M48
;Layer_Color=9474304
;FILE_FORMAT=2:5
INCH,LZ
;TYPE=PLATED
T1F00S00C0.01400
T2F00S00C0.02800
T3F00S00C0.03543
%
T01
X0081055Y0069732
X0078055Y0083732
X008937Y0088189
X0092913Y0090945
X0093852Y0083413
X0109843Y0085039
X0106299Y0088583
X0113779Y0081102
X0116142Y0098425
X0113779Y0104331
X0124016Y0111811
X015748Y0112598
X0159842Y0109449
X0156693Y0098032
X0164173Y0096457
X0182283Y0094882
X0182677Y0105905
X0181102Y0116535
X0177953Y0127953
X017809Y0145353
X0178347Y015315
X0158661Y0155512
X0155905Y0166142
X0147244Y0166535
X0132283Y016811
X0124016Y0165354
X0116535Y0153198
Y0145669
X0129921Y014685
X0147638Y0138976
X0147244Y0193307
X0133858Y0190945
Y0183465
X0167323Y0187008
Y0192913
Y0177165
X0193307Y0176378
Y0186614
X0191339Y0090945
X0187795Y0088189
X0192277Y0083413
X017648Y0083732
X017948Y0069732
X0147638Y0072047
Y0077165
X0141244Y0078291
X012348Y0064732
X0083858Y0094882
X0084252Y0105905
X0082677Y0116535
X0079528Y0127953
X0079665Y0145353
X0079921Y015315
X0060236Y0155512
X005748Y0166142
X0068898Y0177165
Y0187008
Y0192913
X0094882Y0186614
Y0176378
X0059055Y0112598
X0061417Y0109449
X0058268Y0098032
X0065748Y0096457
X0049213Y0077165
Y0072047
X0042819Y0078291
X0015354Y0081102
X0011417Y0085039
X0007874Y0088583
X0017717Y0098425
X0015354Y0104331
X0025591Y0111811
X0031496Y014685
X001811Y0145669
Y0153198
X0025591Y0165354
X0033858Y016811
X0048819Y0166535
Y0193307
X0035433Y0190945
Y0183465
X0049213Y0138976
X0025055Y0064732
T02
X0086176Y0083611
X0184602
X0145669Y0151969
X0047244
T03
X0009055Y0006732
Y0016732
Y0026732
X0019055
Y0016732
Y0006732
X0029055
X0039055
Y0016732
Y0026732
Y0036732
Y0046732
X0049055
Y0036732
Y0026732
Y0016732
Y0006732
X0029055Y0016732
Y0026732
Y0036732
X0019055
Y0046732
X0029055
X0009055
Y0036732
X0059055
Y0046732
X0069055
X0079055
X0089055
Y0036732
X0079055
Y0026732
X0089055
Y0016732
X0079055
Y0006732
X0089055
X010748
Y0016732
Y0026732
X011748
Y0016732
Y0006732
X012748
X013748
Y0016732
Y0026732
Y0036732
Y0046732
X014748
X015748
X016748
X017748
X018748
Y0036732
X017748
Y0026732
X018748
Y0016732
X017748
Y0006732
X018748
X016748
Y0016732
Y0026732
Y0036732
X015748
Y0026732
Y0016732
Y0006732
X014748
Y0016732
Y0026732
Y0036732
X012748
Y0026732
Y0016732
X011748Y0036732
Y0046732
X012748
X010748
Y0036732
X0069055
Y0026732
X0059055
Y0016732
X0069055
Y0006732
X0059055
Y0056732
X0069055
X0079055
X0089055
X010748
X011748
X012748
X013748
X014748
X015748
X016748
X017748
X018748
X017126Y0078858
Y0088858
X0172047Y0117323
X0162047
X0152047
X0142047
X0132047
X0122047
X0122492Y0105512
X0132492
X0142492
X0152492
X018748Y0111732
Y0121732
Y0131732
Y0141732
Y0151732
Y0161732
Y0171732
Y0181732
Y0191732
X010748
Y0181732
Y0171732
Y0161732
Y0151732
Y0141732
Y0131732
Y0121732
Y0111732
X0089055
Y0121732
Y0131732
Y0141732
Y0151732
Y0161732
Y0171732
Y0181732
Y0191732
X0073622Y0117323
X0063622
X0072835Y0088858
Y0078858
X0124409
Y0088858
X0054067Y0105512
X0044067
X0034067
X0024067
X0023622Y0117323
X0033622
X0043622
X0053622
X0009055Y0121732
Y0131732
Y0141732
Y0151732
Y0161732
Y0171732
Y0181732
Y0191732
Y0111732
X0025984Y0088858
Y0078858
X0029055Y0056732
X0019055
X0009055
X0039055
X0049055
M30
