G04 Layer_Color=16711935*
%FSLAX25Y25*%
%MOIN*%
G70*
G01*
G75*
%ADD46R,0.05131X0.07493*%
%ADD51C,0.05800*%
%ADD52R,0.05800X0.05800*%
G04:AMPARAMS|DCode=53|XSize=58mil|YSize=58mil|CornerRadius=16.5mil|HoleSize=0mil|Usage=FLASHONLY|Rotation=0.000|XOffset=0mil|YOffset=0mil|HoleType=Round|Shape=RoundedRectangle|*
%AMROUNDEDRECTD53*
21,1,0.05800,0.02500,0,0,0.0*
21,1,0.02500,0.05800,0,0,0.0*
1,1,0.03300,0.01250,-0.01250*
1,1,0.03300,-0.01250,-0.01250*
1,1,0.03300,-0.01250,0.01250*
1,1,0.03300,0.01250,0.01250*
%
%ADD53ROUNDEDRECTD53*%
%ADD54P,0.06278X8X22.5*%
%ADD55R,0.05800X0.05800*%
%ADD56C,0.06706*%
%ADD57R,0.06706X0.06706*%
%ADD58R,0.06706X0.06706*%
%ADD59P,0.07258X8X292.5*%
%ADD60R,0.01575X0.06299*%
%ADD61R,0.06299X0.01575*%
%ADD62R,0.06800X0.06800*%
%ADD63R,0.07493X0.05131*%
%ADD64R,0.03162X0.04737*%
G04:AMPARAMS|DCode=65|XSize=31.62mil|YSize=47.37mil|CornerRadius=9.91mil|HoleSize=0mil|Usage=FLASHONLY|Rotation=0.000|XOffset=0mil|YOffset=0mil|HoleType=Round|Shape=RoundedRectangle|*
%AMROUNDEDRECTD65*
21,1,0.03162,0.02756,0,0,0.0*
21,1,0.01181,0.04737,0,0,0.0*
1,1,0.01981,0.00591,-0.01378*
1,1,0.01981,-0.00591,-0.01378*
1,1,0.01981,-0.00591,0.01378*
1,1,0.01981,0.00591,0.01378*
%
%ADD65ROUNDEDRECTD65*%
%ADD66R,0.06800X0.06800*%
D46*
X23819Y159055D02*
D03*
X34449D02*
D03*
X78150Y102756D02*
D03*
X67520D02*
D03*
X60433Y155512D02*
D03*
X71063D02*
D03*
X60433Y147244D02*
D03*
X71063D02*
D03*
X80905Y137402D02*
D03*
X70276D02*
D03*
X29724Y183071D02*
D03*
X19094D02*
D03*
X29724Y174409D02*
D03*
X19094D02*
D03*
X29724Y191339D02*
D03*
X19094D02*
D03*
X122244Y159055D02*
D03*
X132874D02*
D03*
X176575Y102756D02*
D03*
X165945D02*
D03*
X158858Y155512D02*
D03*
X169488D02*
D03*
X158858Y147244D02*
D03*
X169488D02*
D03*
X179331Y137402D02*
D03*
X168701D02*
D03*
X128150Y183071D02*
D03*
X117520D02*
D03*
X128150Y174409D02*
D03*
X117520D02*
D03*
X128150Y191339D02*
D03*
X117520D02*
D03*
D51*
X69055Y56732D02*
D03*
X19055D02*
D03*
X79055D02*
D03*
Y46732D02*
D03*
Y36732D02*
D03*
Y26732D02*
D03*
Y16732D02*
D03*
Y6732D02*
D03*
X59055Y46732D02*
D03*
X69055D02*
D03*
X59055Y36732D02*
D03*
X69055D02*
D03*
X59055Y26732D02*
D03*
X69055D02*
D03*
X59055Y16732D02*
D03*
X69055D02*
D03*
X59055Y6732D02*
D03*
X69055D02*
D03*
X39055Y46732D02*
D03*
X49055D02*
D03*
X39055Y36732D02*
D03*
X49055D02*
D03*
X39055Y26732D02*
D03*
X49055D02*
D03*
X39055Y16732D02*
D03*
X49055D02*
D03*
X39055Y6732D02*
D03*
X49055D02*
D03*
X29055D02*
D03*
X19055D02*
D03*
X29055Y16732D02*
D03*
X19055D02*
D03*
X29055Y26732D02*
D03*
X19055D02*
D03*
X29055Y36732D02*
D03*
X19055D02*
D03*
X29055Y46732D02*
D03*
X19055D02*
D03*
X39055Y56732D02*
D03*
X29055D02*
D03*
X25984Y88858D02*
D03*
X72835D02*
D03*
X167480Y56732D02*
D03*
X117480D02*
D03*
X177480D02*
D03*
Y46732D02*
D03*
Y36732D02*
D03*
Y26732D02*
D03*
Y16732D02*
D03*
Y6732D02*
D03*
X157480Y46732D02*
D03*
X167480D02*
D03*
X157480Y36732D02*
D03*
X167480D02*
D03*
X157480Y26732D02*
D03*
X167480D02*
D03*
X157480Y16732D02*
D03*
X167480D02*
D03*
X157480Y6732D02*
D03*
X167480D02*
D03*
X137480Y46732D02*
D03*
X147480D02*
D03*
X137480Y36732D02*
D03*
X147480D02*
D03*
X137480Y26732D02*
D03*
X147480D02*
D03*
X137480Y16732D02*
D03*
X147480D02*
D03*
X137480Y6732D02*
D03*
X147480D02*
D03*
X127480D02*
D03*
X117480D02*
D03*
X127480Y16732D02*
D03*
X117480D02*
D03*
X127480Y26732D02*
D03*
X117480D02*
D03*
X127480Y36732D02*
D03*
X117480D02*
D03*
X127480Y46732D02*
D03*
X117480D02*
D03*
X137480Y56732D02*
D03*
X127480D02*
D03*
X124409Y88858D02*
D03*
X171260D02*
D03*
D52*
X9055Y26732D02*
D03*
Y16732D02*
D03*
Y6732D02*
D03*
Y36732D02*
D03*
Y46732D02*
D03*
Y56732D02*
D03*
X107480Y26732D02*
D03*
Y16732D02*
D03*
Y6732D02*
D03*
Y36732D02*
D03*
Y46732D02*
D03*
Y56732D02*
D03*
D53*
X89055Y46732D02*
D03*
Y36732D02*
D03*
Y56732D02*
D03*
X187480Y46732D02*
D03*
Y36732D02*
D03*
Y56732D02*
D03*
D54*
X89055Y26732D02*
D03*
Y16732D02*
D03*
Y6732D02*
D03*
X59055Y56732D02*
D03*
X49055D02*
D03*
X187480Y26732D02*
D03*
Y16732D02*
D03*
Y6732D02*
D03*
X157480Y56732D02*
D03*
X147480D02*
D03*
D55*
X25984Y78858D02*
D03*
X72835D02*
D03*
X124409D02*
D03*
X171260D02*
D03*
D56*
X24067Y105512D02*
D03*
X34067D02*
D03*
X44067D02*
D03*
X89055Y191732D02*
D03*
Y171732D02*
D03*
Y161732D02*
D03*
Y151732D02*
D03*
Y141732D02*
D03*
Y131732D02*
D03*
Y121732D02*
D03*
Y111732D02*
D03*
Y181732D02*
D03*
X9055Y171732D02*
D03*
Y161732D02*
D03*
Y151732D02*
D03*
Y141732D02*
D03*
Y131732D02*
D03*
Y121732D02*
D03*
Y181732D02*
D03*
X33622Y117323D02*
D03*
X43622D02*
D03*
X53622D02*
D03*
X63622D02*
D03*
X73622D02*
D03*
X122492Y105512D02*
D03*
X132492D02*
D03*
X142492D02*
D03*
X187480Y191732D02*
D03*
Y171732D02*
D03*
Y161732D02*
D03*
Y151732D02*
D03*
Y141732D02*
D03*
Y131732D02*
D03*
Y121732D02*
D03*
Y111732D02*
D03*
Y181732D02*
D03*
X107480Y171732D02*
D03*
Y161732D02*
D03*
Y151732D02*
D03*
Y141732D02*
D03*
Y131732D02*
D03*
Y121732D02*
D03*
Y181732D02*
D03*
X132047Y117323D02*
D03*
X142047D02*
D03*
X152047D02*
D03*
X162047D02*
D03*
X172047D02*
D03*
D57*
X54067Y105512D02*
D03*
X23622Y117323D02*
D03*
X152492Y105512D02*
D03*
X122047Y117323D02*
D03*
D58*
X9055Y191732D02*
D03*
X107480D02*
D03*
D59*
X9055Y111732D02*
D03*
X107480D02*
D03*
D60*
X39040Y83898D02*
D03*
X46914Y83898D02*
D03*
X137466Y83898D02*
D03*
X145340Y83898D02*
D03*
D61*
X40945Y187402D02*
D03*
X139370D02*
D03*
D62*
X35039Y83898D02*
D03*
X50913D02*
D03*
X42913D02*
D03*
X133465D02*
D03*
X149339D02*
D03*
X141339D02*
D03*
D63*
X25197Y141142D02*
D03*
Y151772D02*
D03*
X123622Y141142D02*
D03*
Y151772D02*
D03*
D64*
X36220Y141142D02*
D03*
X39961Y151772D02*
D03*
X134646Y141142D02*
D03*
X138386Y151772D02*
D03*
D65*
X32480D02*
D03*
X130905D02*
D03*
D66*
X40945Y183402D02*
D03*
Y191402D02*
D03*
X139370Y183402D02*
D03*
Y191402D02*
D03*
M02*
