G04 Layer_Color=32896*
%FSLAX25Y25*%
%MOIN*%
G70*
G01*
G75*
%ADD21C,0.01000*%
%ADD38C,0.00500*%
%ADD39C,0.00787*%
G36*
X68613Y194540D02*
X69391Y194466D01*
X70132Y194281D01*
X70872Y194096D01*
X71576Y193873D01*
X72205Y193614D01*
X72835Y193318D01*
X73390Y193059D01*
X74353Y192466D01*
X75094Y191985D01*
X75723Y191503D01*
X76390Y190911D01*
X76982Y190281D01*
X77908Y189022D01*
X78575Y187763D01*
X79019Y186616D01*
X79426Y184801D01*
X79500Y184097D01*
X79463Y183431D01*
X79389Y182838D01*
X79130Y181913D01*
X78908Y181320D01*
X78797Y181135D01*
X78278Y180580D01*
X78093Y180394D01*
X78019Y180357D01*
Y180320D01*
X77315Y179839D01*
X77056Y179691D01*
X77019Y179617D01*
X76982D01*
X76131Y179172D01*
X75871Y179024D01*
X75797Y178950D01*
X75760D01*
X74872Y178506D01*
X74575Y178358D01*
X74501Y178321D01*
X74464D01*
X74427Y178061D01*
Y177802D01*
X74501Y177506D01*
X74686Y177025D01*
X74797Y176803D01*
X74909Y176617D01*
X75205Y176247D01*
X75723Y175729D01*
X75982Y175543D01*
X76982Y175025D01*
X77427Y174766D01*
X78834Y174025D01*
X79315Y173618D01*
X79685Y173211D01*
X79945Y172766D01*
X80130Y172359D01*
X80278Y171729D01*
X80315Y171470D01*
X80241Y170952D01*
X80093Y170507D01*
X79834Y170100D01*
X79537Y169767D01*
X79167Y169471D01*
X78723Y169248D01*
X77797Y168878D01*
X76908Y168656D01*
X76094Y168545D01*
X75538Y168508D01*
X75316D01*
X74983Y168545D01*
X74723Y168656D01*
X74538Y168730D01*
X74501Y168767D01*
X74983Y168693D01*
X75464Y168730D01*
X75945Y168878D01*
X76427Y169063D01*
X76908Y169248D01*
X77612Y169619D01*
X77908Y169804D01*
X78500Y170211D01*
X78945Y170581D01*
X79500Y171211D01*
X79760Y171618D01*
X79796Y171729D01*
Y171766D01*
X79611Y172248D01*
X79130Y172359D01*
X78686Y172285D01*
X77871Y172063D01*
X76797Y171766D01*
X76242Y171581D01*
X75649Y171396D01*
X73501Y170730D01*
X72835Y170507D01*
X72650Y170470D01*
X72576Y170433D01*
X69021Y169285D01*
X67910Y168915D01*
X67132Y168656D01*
X66392Y168360D01*
X66281Y168286D01*
X66244D01*
X66207Y168101D01*
X66281Y167841D01*
X66429Y167471D01*
X66170Y167212D01*
X66095D01*
X65762Y167508D01*
X65022Y168101D01*
X64318Y168730D01*
X64059Y168915D01*
X64022Y168989D01*
X63985D01*
X63207Y169693D01*
X62429Y170359D01*
X61096Y171507D01*
X60171Y172285D01*
X59874Y172507D01*
X59837Y172581D01*
X59800D01*
X58949Y173359D01*
X58245Y174099D01*
X57134Y175395D01*
X56468Y176284D01*
X56283Y176543D01*
X56245Y176580D01*
Y176617D01*
X55727Y177543D01*
X55357Y178469D01*
X54912Y180135D01*
X54764Y181320D01*
X54727Y181691D01*
Y181764D01*
Y181802D01*
Y182320D01*
X54764Y182838D01*
X54875Y183801D01*
X55060Y184764D01*
X55320Y185616D01*
X55579Y186430D01*
X55912Y187208D01*
X56245Y187911D01*
X56579Y188541D01*
X57282Y189615D01*
X57875Y190392D01*
X58319Y190911D01*
X58430Y191022D01*
X58467Y191059D01*
X59171Y191689D01*
X59911Y192207D01*
X61504Y193096D01*
X63059Y193725D01*
X64503Y194132D01*
X66873Y194540D01*
X67799Y194577D01*
X68613Y194540D01*
D02*
G37*
%LPC*%
G36*
X55394Y179839D02*
X55357D01*
X55283Y179765D01*
Y179654D01*
X55431Y179395D01*
X55727Y179024D01*
X56171Y178580D01*
X56727Y178136D01*
X57097Y177950D01*
X57356Y177839D01*
X57282Y178173D01*
X57171Y178432D01*
X57060Y178580D01*
X56986Y178617D01*
X56171Y179246D01*
X55838Y179506D01*
X55727Y179580D01*
X55690Y179617D01*
X55505Y179728D01*
X55431Y179802D01*
X55394Y179839D01*
D02*
G37*
G36*
X69798Y180728D02*
X69761D01*
X69798Y180506D01*
X69836Y180431D01*
X70650Y179617D01*
X71206Y179209D01*
X71502Y179061D01*
X71613Y179024D01*
X71650Y179098D01*
Y179135D01*
Y179172D01*
X71576Y179469D01*
X71391Y179654D01*
X71206Y179728D01*
X71169Y179765D01*
X71131D01*
X70946Y179987D01*
X70872Y180024D01*
Y180061D01*
X70650Y180135D01*
X70465Y180283D01*
X70317Y180394D01*
X70280Y180431D01*
X70058Y180617D01*
X69910Y180691D01*
X69798Y180728D01*
D02*
G37*
G36*
X73798Y186726D02*
X73761D01*
X73650Y186578D01*
X73539Y186319D01*
X73353Y185505D01*
X73131Y183246D01*
X73057Y180098D01*
Y178691D01*
X73131Y178247D01*
X73242Y177988D01*
X73353Y177728D01*
X73464Y177580D01*
X73576Y177506D01*
Y178099D01*
Y178358D01*
Y178432D01*
Y178469D01*
Y179172D01*
Y179358D01*
Y179432D01*
Y180357D01*
Y180691D01*
Y180802D01*
Y180839D01*
X73612Y181542D01*
X73650Y182172D01*
X73687Y182653D01*
X73724Y182801D01*
Y182838D01*
X73909Y185394D01*
X73946Y186023D01*
Y186171D01*
Y186208D01*
X73909Y186504D01*
X73835Y186653D01*
X73798Y186726D01*
D02*
G37*
G36*
X57430Y175692D02*
X57393D01*
X57430Y175432D01*
X57542Y175247D01*
X57801Y175062D01*
X58097Y174951D01*
X58245D01*
X58097Y175136D01*
X57986Y175247D01*
X57949Y175321D01*
X57727Y175543D01*
X57542Y175655D01*
X57430Y175692D01*
D02*
G37*
G36*
X56134Y177988D02*
X56060D01*
X55986Y177950D01*
Y177876D01*
X56060Y177654D01*
X56208Y177395D01*
X56431Y177136D01*
X56653Y177062D01*
X56764Y176988D01*
X57134Y176728D01*
X57467Y176506D01*
X57653Y176395D01*
X57727Y176469D01*
Y176506D01*
X57690Y176691D01*
X57653Y176766D01*
X56875Y177469D01*
X56394Y177839D01*
X56134Y177988D01*
D02*
G37*
G36*
X55283Y181209D02*
X55246D01*
X55172Y181172D01*
X55098Y181135D01*
Y181061D01*
X55209Y180802D01*
X55394Y180543D01*
X55727Y180209D01*
X56097Y179876D01*
X56394Y179691D01*
X56616Y179617D01*
X56690Y179543D01*
X56801Y179358D01*
X56986Y179283D01*
X57134D01*
X57208Y179395D01*
Y179469D01*
X57060Y179691D01*
X56764Y180024D01*
X56505Y180320D01*
X56394Y180394D01*
X56357Y180431D01*
X55431Y181098D01*
X55283Y181209D01*
D02*
G37*
G36*
X55394Y183653D02*
X55357D01*
X55283Y183616D01*
X55209Y183542D01*
Y183431D01*
X55320Y183172D01*
X57208Y181653D01*
X57282D01*
X57393Y181691D01*
X57430Y181764D01*
X57467Y181839D01*
Y181876D01*
X57319Y182098D01*
X56949Y182431D01*
X56616Y182727D01*
X56505Y182801D01*
X56468Y182838D01*
X55542Y183542D01*
X55394Y183653D01*
D02*
G37*
G36*
X55468Y184764D02*
X55394D01*
Y184505D01*
X55468Y184357D01*
X56468Y183468D01*
X56875Y183135D01*
X57060Y183098D01*
X57134Y183024D01*
X57319Y182838D01*
X57393Y182727D01*
X57504D01*
X57578Y182764D01*
X57616Y182838D01*
X57653Y182913D01*
Y182949D01*
X57504Y183209D01*
X57171Y183579D01*
X56838Y183875D01*
X56727Y183949D01*
X56690Y183986D01*
X55690Y184653D01*
X55468Y184764D01*
D02*
G37*
G36*
X69761Y183283D02*
X69724D01*
X69613Y183246D01*
X69576Y183172D01*
X69539Y183061D01*
X69650Y182875D01*
X69910Y182616D01*
X70317Y182246D01*
X70835Y181839D01*
X71317Y181468D01*
X71613D01*
X71576Y181653D01*
X71539Y181839D01*
X71502Y181913D01*
X71465Y181950D01*
X70946Y182431D01*
X70687Y182653D01*
X70613Y182690D01*
X70576Y182727D01*
X69872Y183209D01*
X69761Y183283D01*
D02*
G37*
G36*
X69576Y182061D02*
X69539D01*
X69576Y181876D01*
X69650Y181691D01*
X69761Y181505D01*
X70206Y181098D01*
X70650Y180765D01*
X71354Y180246D01*
X71502Y180172D01*
X71613Y180209D01*
Y180468D01*
X71169Y180987D01*
X70761Y181394D01*
X70095Y181876D01*
X69687Y182024D01*
X69576Y182061D01*
D02*
G37*
G36*
X55209Y182468D02*
X55135D01*
Y182209D01*
X55172Y182061D01*
X55209Y182024D01*
X56171Y181172D01*
X56764Y180728D01*
X57134Y180543D01*
X57245Y180617D01*
X57282Y180654D01*
X57245Y180802D01*
X57171Y180950D01*
X56949Y181209D01*
X56764Y181357D01*
X56690Y181394D01*
X56653D01*
X56245Y181728D01*
X56023Y181950D01*
X55949Y182024D01*
X55912Y182061D01*
X55616Y182283D01*
X55357Y182431D01*
X55209Y182468D01*
D02*
G37*
G36*
X75168Y175358D02*
X75020D01*
X75094Y175099D01*
X75168Y174988D01*
X76056Y174247D01*
X76649Y173840D01*
X76945Y173729D01*
X77019Y173692D01*
X77167Y173729D01*
X77279Y173766D01*
X77315Y173803D01*
Y173840D01*
X77093Y174136D01*
X76797Y174396D01*
X76168Y174840D01*
X75649Y175173D01*
X75501Y175247D01*
X75427Y175284D01*
X75168Y175358D01*
D02*
G37*
G36*
X66614Y172285D02*
X66577D01*
X66429Y172248D01*
Y172211D01*
X66540Y171915D01*
X66799Y171618D01*
X67169Y171285D01*
X67651Y170952D01*
X67984Y170804D01*
X68243Y170730D01*
Y170878D01*
X67984Y171137D01*
X67910Y171211D01*
X67873Y171248D01*
X67466Y171581D01*
X67317Y171692D01*
X67280Y171729D01*
X66947Y172063D01*
X66725Y172211D01*
X66614Y172285D01*
D02*
G37*
G36*
X67688Y172618D02*
X67651D01*
X67428Y172581D01*
X67392Y172507D01*
X67428Y172433D01*
X67503Y172285D01*
X67799Y172026D01*
X68206Y171655D01*
X69021Y171100D01*
X69243Y171026D01*
X69428D01*
X69502Y171100D01*
Y171137D01*
Y171174D01*
X69465Y171248D01*
X69391Y171396D01*
X69095Y171655D01*
X68799Y171878D01*
X68725Y171952D01*
X68687Y171989D01*
X67873Y172544D01*
X67688Y172618D01*
D02*
G37*
G36*
X65429Y171915D02*
X65392D01*
X65244Y171841D01*
X65207Y171766D01*
X65318Y171544D01*
X65540Y171248D01*
X65910Y170915D01*
X66688Y170433D01*
X66873Y170359D01*
X67058Y170396D01*
X67169Y170470D01*
X67206Y170544D01*
Y170581D01*
X67021Y170693D01*
X66984Y170767D01*
X66947D01*
X66688Y170952D01*
X66614Y171026D01*
X66577Y171063D01*
X65984Y171544D01*
X65651Y171803D01*
X65429Y171915D01*
D02*
G37*
G36*
X63059Y171248D02*
X63022D01*
X62911Y171211D01*
X62874Y171174D01*
X62837Y171063D01*
X62948Y170841D01*
X63207Y170544D01*
X63577Y170137D01*
X64318Y169545D01*
X64503Y169471D01*
X64725Y169508D01*
X64873Y169582D01*
X64911Y169656D01*
Y169693D01*
X64799Y169915D01*
X64503Y170211D01*
X64207Y170433D01*
X64133Y170507D01*
X64096Y170544D01*
X63577Y170952D01*
X63244Y171174D01*
X63059Y171248D01*
D02*
G37*
G36*
X64207Y171507D02*
X64170D01*
X64096Y171470D01*
X64059Y171396D01*
Y171285D01*
X64911Y170470D01*
X65466Y170063D01*
X65799Y169878D01*
X65947Y169915D01*
X66021Y169989D01*
X66058Y170063D01*
Y170100D01*
X65170Y170915D01*
X64577Y171322D01*
X64281Y171470D01*
X64207Y171507D01*
D02*
G37*
G36*
X68762Y172988D02*
X68725D01*
X68576Y172914D01*
X68539Y172840D01*
X68651Y172692D01*
X68910Y172433D01*
X69280Y172100D01*
X69947Y171544D01*
X70095Y171470D01*
X70465D01*
X70539Y171581D01*
Y171618D01*
Y171655D01*
X70280Y171952D01*
X69984Y172248D01*
X69761Y172433D01*
X69687Y172507D01*
X69650D01*
X68947Y172914D01*
X68762Y172988D01*
D02*
G37*
G36*
X73205Y174544D02*
X73168D01*
X72983Y174507D01*
X72946Y174470D01*
X73020Y174285D01*
X73242Y174062D01*
X73539Y173803D01*
X73946Y173507D01*
X74316Y173174D01*
X74649Y173026D01*
X74835Y172988D01*
X75020Y173063D01*
X75057Y173100D01*
X75020Y173174D01*
X74946Y173322D01*
X74649Y173581D01*
X74353Y173803D01*
X74279Y173877D01*
X74242Y173914D01*
X73724Y174285D01*
X73390Y174470D01*
X73205Y174544D01*
D02*
G37*
G36*
X74390Y174914D02*
X74242D01*
X74094Y174877D01*
X74057Y174840D01*
X74020Y174766D01*
X74353Y174433D01*
X75057Y173803D01*
X75538Y173507D01*
X75908Y173359D01*
X76020Y173396D01*
Y173433D01*
X75908Y173655D01*
X75686Y173877D01*
X75464Y174062D01*
X75390Y174136D01*
X75353D01*
X74686Y174692D01*
X74612Y174766D01*
Y174803D01*
X74501Y174877D01*
X74390Y174914D01*
D02*
G37*
G36*
X72094Y174210D02*
X71909D01*
X71835Y174173D01*
Y174099D01*
X71872Y173988D01*
X71946Y173840D01*
X72242Y173544D01*
X72650Y173211D01*
X73131Y172840D01*
X73427Y172655D01*
X73650Y172581D01*
X73798Y172618D01*
X73872Y172655D01*
X73909Y172692D01*
Y172729D01*
X73798Y172914D01*
X73501Y173211D01*
X73242Y173433D01*
X73168Y173507D01*
X73131Y173544D01*
X72279Y174136D01*
X72094Y174210D01*
D02*
G37*
G36*
X69872Y173433D02*
X69836D01*
X69724Y173396D01*
X69687Y173322D01*
X69650Y173174D01*
X70539Y172322D01*
X71057Y171878D01*
X71391Y171692D01*
X71539Y171729D01*
X71613Y171878D01*
X71650Y171989D01*
Y172026D01*
X71317Y172359D01*
X71131Y172507D01*
X71057Y172581D01*
X70724Y172840D01*
X70539Y173026D01*
X70465Y173100D01*
X70021Y173396D01*
X69872Y173433D01*
D02*
G37*
G36*
X70946Y173840D02*
X70909D01*
X70724Y173803D01*
X70650Y173766D01*
X70613Y173692D01*
X71576Y172803D01*
X72168Y172322D01*
X72465Y172174D01*
X72539Y172137D01*
X72687Y172174D01*
X72761Y172248D01*
X72798Y172285D01*
Y172322D01*
X72761Y172396D01*
X72687Y172544D01*
X72391Y172803D01*
X72094Y173026D01*
X72020Y173100D01*
X71983Y173136D01*
X71465Y173544D01*
X71131Y173766D01*
X70946Y173840D01*
D02*
G37*
G36*
X60689Y192170D02*
X60652D01*
X60504Y192133D01*
Y192059D01*
X60652Y191837D01*
X60985Y191503D01*
X61467Y191059D01*
X62392Y190356D01*
X62615Y190244D01*
X62726Y190281D01*
X62800Y190356D01*
X62837Y190429D01*
Y190467D01*
X62689Y190689D01*
X62355Y190985D01*
X62022Y191281D01*
X61911Y191355D01*
X61874Y191392D01*
X61282Y191837D01*
X60911Y192059D01*
X60689Y192170D01*
D02*
G37*
G36*
X61726Y192725D02*
X61652D01*
X61541Y192688D01*
X61504Y192614D01*
X61467Y192503D01*
X61504Y192355D01*
X62541Y191541D01*
X63429Y190911D01*
X63577Y190837D01*
X63837Y190911D01*
X63874Y190948D01*
Y190985D01*
X63837Y191133D01*
X63726Y191207D01*
X63614Y191281D01*
X63577Y191318D01*
X63466Y191392D01*
X63392Y191429D01*
X63244Y191541D01*
X63170Y191577D01*
X62467Y192281D01*
X62133Y192540D01*
X61874Y192688D01*
X61726Y192725D01*
D02*
G37*
G36*
X62763Y193207D02*
X62726D01*
X62541Y193170D01*
X62467Y193096D01*
X62429Y192985D01*
X62578Y192799D01*
X62911Y192503D01*
X63392Y192096D01*
X64355Y191466D01*
X64577Y191392D01*
X64725Y191429D01*
X64762Y191466D01*
X64503Y191763D01*
X64170Y192096D01*
X63837Y192355D01*
X63762Y192429D01*
X63726Y192466D01*
X62911Y193133D01*
X62763Y193207D01*
D02*
G37*
G36*
X59097Y190948D02*
X58949Y190911D01*
X58912Y190874D01*
X58875Y190763D01*
X58912Y190689D01*
X59023Y190541D01*
X59319Y190244D01*
X59800Y189874D01*
X60356Y189393D01*
X60911Y188948D01*
X61059Y188985D01*
X61133Y189134D01*
X61171Y189245D01*
Y189282D01*
X60134Y190244D01*
X59504Y190726D01*
X59171Y190911D01*
X59097Y190948D01*
D02*
G37*
G36*
X59837Y191577D02*
X59800D01*
X59689Y191541D01*
X59652Y191466D01*
X59837Y191170D01*
X60171Y190837D01*
X60652Y190429D01*
X61207Y189985D01*
X61578Y189800D01*
X61837Y189689D01*
X61911Y189726D01*
X61948Y189763D01*
Y189800D01*
Y189837D01*
X61800Y190059D01*
X61467Y190392D01*
X61133Y190689D01*
X61022Y190763D01*
X60985Y190800D01*
X59986Y191466D01*
X59837Y191577D01*
D02*
G37*
G36*
X71761Y191059D02*
X71576D01*
X70539Y191022D01*
X70058Y190985D01*
X69576Y190911D01*
X69095Y190837D01*
X68651Y190763D01*
X67799Y190541D01*
X66984Y190281D01*
X66207Y189985D01*
X65503Y189689D01*
X64873Y189356D01*
X63800Y188726D01*
X63022Y188171D01*
X62503Y187800D01*
X62392Y187689D01*
X62355Y187652D01*
X61689Y186986D01*
X61133Y186282D01*
X60245Y184801D01*
X59874Y184060D01*
X59578Y183320D01*
X59134Y181913D01*
X58727Y179617D01*
X58689Y178691D01*
Y178099D01*
X58727Y177543D01*
X58763Y177099D01*
X58838Y176691D01*
X58986Y175988D01*
X59097Y175840D01*
X59134Y175877D01*
Y177358D01*
Y177876D01*
X59171Y178358D01*
X59208Y178839D01*
X59282Y179283D01*
X59467Y180209D01*
X59689Y181061D01*
X59948Y181876D01*
X60245Y182653D01*
X60578Y183357D01*
X60911Y183986D01*
X61578Y185097D01*
X62133Y185912D01*
X62541Y186393D01*
X62652Y186541D01*
X62689Y186578D01*
X63022Y186949D01*
X63355Y187282D01*
X64096Y187874D01*
X64799Y188393D01*
X65577Y188837D01*
X67058Y189541D01*
X68465Y190022D01*
X69724Y190281D01*
X70724Y190429D01*
X71613Y190504D01*
X72316Y190467D01*
X73020Y190356D01*
X73761Y190207D01*
X74464Y190096D01*
X74797Y190022D01*
X75871Y189800D01*
X75686Y190022D01*
X75390Y190207D01*
X74761Y190504D01*
X74168Y190689D01*
X73983Y190763D01*
X73909D01*
X72242Y191022D01*
X71761Y191059D01*
D02*
G37*
G36*
X66281Y194132D02*
X66244D01*
X66132Y194096D01*
X66095Y194059D01*
X66058Y193947D01*
X66540Y193540D01*
X67058Y193096D01*
X67651Y192540D01*
X68058Y192392D01*
X68243Y192355D01*
X68465Y192429D01*
X68502Y192466D01*
X68354Y192688D01*
X67984Y192985D01*
X67651Y193281D01*
X67540Y193355D01*
X67503Y193392D01*
X66466Y194059D01*
X66281Y194132D01*
D02*
G37*
G36*
X69613Y194096D02*
X69539D01*
X69465Y194059D01*
Y193984D01*
X69650Y193725D01*
X69984Y193392D01*
X70428Y192911D01*
X70761Y192651D01*
X71095Y192540D01*
X71428Y192466D01*
X71539Y192540D01*
X71280Y192874D01*
X70946Y193207D01*
X70687Y193429D01*
X70613Y193503D01*
X70576Y193540D01*
X70132Y193873D01*
X69798Y194021D01*
X69613Y194096D01*
D02*
G37*
G36*
X67836Y194207D02*
X67799D01*
X67725Y194170D01*
X67651Y194132D01*
Y194059D01*
X67910Y193762D01*
X68428Y193318D01*
X69206Y192688D01*
X69576Y192540D01*
X69724Y192503D01*
X69836Y192577D01*
X69872Y192614D01*
Y192651D01*
X69836Y192762D01*
X69724Y192874D01*
X69428Y193133D01*
X69132Y193392D01*
X69021Y193466D01*
X68984Y193503D01*
X68021Y194132D01*
X67836Y194207D01*
D02*
G37*
G36*
X63874Y193651D02*
X63688Y193577D01*
X63577Y193503D01*
X63540Y193429D01*
X63688Y193207D01*
X64022Y192874D01*
X64540Y192429D01*
X65466Y191800D01*
X65688Y191689D01*
X65799Y191763D01*
Y191800D01*
X65762Y191948D01*
X65688Y192133D01*
X65392Y192466D01*
X65096Y192688D01*
X65022Y192762D01*
X64985Y192799D01*
X64614Y193133D01*
X64466Y193207D01*
X64429Y193244D01*
X64022Y193540D01*
X63911Y193614D01*
X63874Y193651D01*
D02*
G37*
G36*
X65022Y193910D02*
X64911D01*
X64762Y193873D01*
X64725Y193836D01*
X64688Y193762D01*
X65392Y193059D01*
X65947Y192688D01*
X66429Y192281D01*
X66799Y192059D01*
X67132Y191985D01*
Y192170D01*
X67095Y192281D01*
Y192355D01*
X66540Y192911D01*
X65947Y193392D01*
X65429Y193725D01*
X65281Y193799D01*
X65244Y193836D01*
X65022Y193910D01*
D02*
G37*
G36*
X71761Y193503D02*
X71724D01*
X71798Y193355D01*
X71909Y193170D01*
X72131Y192911D01*
X72576Y192540D01*
X72687Y192466D01*
X73279Y192170D01*
X73390Y192207D01*
X73427Y192244D01*
X73353Y192392D01*
X73316Y192466D01*
X73279Y192503D01*
X72983Y192799D01*
X72872Y192911D01*
X72835Y192948D01*
X72465Y193207D01*
X72316Y193281D01*
X72279Y193318D01*
X71872Y193466D01*
X71761Y193503D01*
D02*
G37*
G36*
X56171Y186801D02*
X56134D01*
X56060Y186764D01*
X56023Y186726D01*
Y186616D01*
X56171Y186393D01*
X56505Y186060D01*
X57023Y185616D01*
X57578Y185134D01*
X57949Y184912D01*
X58208Y184801D01*
X58356Y184838D01*
Y185171D01*
X57727Y185690D01*
X57393Y185986D01*
X57282Y186060D01*
X57245Y186097D01*
X56690Y186504D01*
X56357Y186726D01*
X56171Y186801D01*
D02*
G37*
G36*
X69576Y187134D02*
X69539D01*
X69391Y187097D01*
Y187023D01*
X69539Y186764D01*
X69872Y186393D01*
X70354Y185912D01*
X70909Y185431D01*
X71280Y185208D01*
X71539Y185097D01*
X71650Y185134D01*
X71687Y185282D01*
X71724Y185394D01*
Y185431D01*
X70650Y186430D01*
X69984Y186912D01*
X69650Y187097D01*
X69576Y187134D01*
D02*
G37*
G36*
X56690Y187800D02*
X56616D01*
X56468Y187763D01*
X56431Y187726D01*
X56394Y187615D01*
Y187541D01*
X56431Y187467D01*
X57504Y186430D01*
X58171Y185912D01*
X58504Y185727D01*
X58578Y185690D01*
X58689Y185727D01*
X58763Y185838D01*
X58801Y185912D01*
Y185949D01*
X58727Y186097D01*
X58504Y186356D01*
X57801Y186949D01*
X57097Y187504D01*
X56875Y187652D01*
X56838Y187726D01*
X56801D01*
X56690Y187800D01*
D02*
G37*
G36*
X69798Y184542D02*
X69539D01*
X69576Y184357D01*
X69613Y184209D01*
X69798Y183949D01*
X69984Y183801D01*
X70058Y183727D01*
X70502Y183357D01*
X71131Y182875D01*
X71317Y182764D01*
X71428Y182727D01*
X71502Y182764D01*
X71539Y182875D01*
X71576Y182949D01*
Y182986D01*
X71428Y183172D01*
X71131Y183468D01*
X70872Y183727D01*
X70761Y183801D01*
X70724Y183838D01*
X69947Y184468D01*
X69798Y184542D01*
D02*
G37*
G36*
X55912Y185838D02*
X55875D01*
X55801Y185764D01*
X55727Y185653D01*
Y185431D01*
X55764Y185356D01*
X55838Y185245D01*
X55986Y185171D01*
X56245Y184986D01*
X56357Y184949D01*
X57060Y184246D01*
X57430Y183986D01*
X57653Y183838D01*
X57838Y183764D01*
X57912Y183838D01*
X57949Y183949D01*
X57986Y184060D01*
Y184134D01*
X57690Y184431D01*
X57653Y184505D01*
X57171Y184838D01*
X56949Y185023D01*
X56875Y185097D01*
X56838D01*
X56542Y185431D01*
X56431Y185542D01*
X56394Y185579D01*
X56023Y185801D01*
X55912Y185838D01*
D02*
G37*
G36*
X69613Y185912D02*
X69576D01*
X69465Y185875D01*
Y185801D01*
X69502Y185579D01*
X70502Y184653D01*
X71095Y184171D01*
X71428Y183986D01*
X71502Y183949D01*
X71576Y183986D01*
X71613Y184060D01*
X71650Y184097D01*
Y184134D01*
X71613Y184283D01*
Y184320D01*
Y184357D01*
X71095Y184838D01*
X70761Y185097D01*
X70650Y185171D01*
X70613Y185208D01*
X69724Y185838D01*
X69613Y185912D01*
D02*
G37*
G36*
X70724Y188319D02*
X70687D01*
Y188282D01*
X70724Y188171D01*
X70798Y188097D01*
X70909Y188023D01*
X71206Y187800D01*
X71502Y187578D01*
X71761Y187319D01*
X71798D01*
X71872Y187356D01*
X71909Y187393D01*
Y187430D01*
Y187467D01*
X71835Y187652D01*
X71724Y187800D01*
X71280Y188060D01*
X70872Y188245D01*
X70724Y188319D01*
D02*
G37*
G36*
X57727Y189504D02*
X57690D01*
X57504Y189467D01*
X57430Y189430D01*
X57393Y189319D01*
X57542Y189096D01*
X57912Y188800D01*
X58430Y188356D01*
X59356Y187615D01*
X59578Y187504D01*
X59726Y187541D01*
X59800Y187615D01*
X59837Y187689D01*
Y187726D01*
X59800Y187874D01*
X59689Y188023D01*
X59615Y188097D01*
X59578Y188134D01*
X58689Y188800D01*
X58319Y189096D01*
X58208Y189171D01*
X58171Y189208D01*
X57986Y189393D01*
X57838Y189467D01*
X57727Y189504D01*
D02*
G37*
G36*
X58356Y190281D02*
X58282D01*
X58134Y190207D01*
X58097Y190133D01*
X58134Y190022D01*
X58245Y189874D01*
X58615Y189541D01*
X59134Y189096D01*
X60097Y188393D01*
X60319Y188282D01*
X60430Y188356D01*
X60467Y188393D01*
Y188430D01*
X60430Y188578D01*
X60319Y188726D01*
X59986Y189059D01*
X59652Y189356D01*
X59541Y189430D01*
X59504Y189467D01*
X58541Y190170D01*
X58356Y190281D01*
D02*
G37*
G36*
X73612Y189800D02*
X71280D01*
X70687Y189763D01*
X70280Y189652D01*
X70095Y189504D01*
X70021Y189467D01*
X70280Y189245D01*
X70687Y188985D01*
X71798Y188430D01*
X73316Y187800D01*
X74205Y187393D01*
X74909Y187097D01*
X75723Y186616D01*
X75908Y186467D01*
X76020Y186356D01*
X76056Y186282D01*
X76020Y186208D01*
X75908Y186171D01*
X75797D01*
X75538Y186208D01*
X75427Y186245D01*
X75390D01*
X75057Y186282D01*
X74946D01*
X74686Y185616D01*
X74501Y184690D01*
X74316Y183505D01*
X74242Y181913D01*
Y180580D01*
X74279Y180209D01*
X74353Y179950D01*
X74501Y179765D01*
X74909Y179839D01*
X75316Y180061D01*
X75760Y180357D01*
X76168Y180691D01*
X76501Y181024D01*
X76797Y181283D01*
X76982Y181505D01*
X77019Y181579D01*
X77056D01*
X77945Y182764D01*
X78389Y183653D01*
X78612Y184209D01*
X78649Y184357D01*
Y184394D01*
Y184838D01*
Y184986D01*
Y185060D01*
Y185579D01*
Y185764D01*
Y185838D01*
X78612Y186171D01*
X78575Y186504D01*
X78464Y186801D01*
X78352Y187060D01*
X78056Y187578D01*
X77723Y187986D01*
X77390Y188356D01*
X77130Y188578D01*
X76908Y188763D01*
X76834Y188800D01*
X76205Y189134D01*
X75575Y189393D01*
X74427Y189689D01*
X73612Y189800D01*
D02*
G37*
G36*
X68762Y189134D02*
X68354D01*
X67984Y189059D01*
X67428Y188837D01*
X66873Y188652D01*
X66725Y188578D01*
X66651Y188541D01*
X66058Y188245D01*
X65503Y187949D01*
X64985Y187578D01*
X64503Y187171D01*
X64059Y186764D01*
X63652Y186319D01*
X62911Y185505D01*
X62355Y184727D01*
X61948Y184060D01*
X61615Y183468D01*
X61059Y182246D01*
X60652Y180987D01*
X60171Y178691D01*
X59986Y177025D01*
X59948Y176358D01*
X59986Y175840D01*
X60060Y175321D01*
X60171Y174840D01*
X60282Y174433D01*
X60504Y173766D01*
X60615Y173507D01*
X60948Y172914D01*
X61282Y172470D01*
X61911Y171915D01*
X62429Y171729D01*
X62615Y171692D01*
X63059Y171729D01*
X63652Y171841D01*
X65059Y172211D01*
X65688Y172396D01*
X66244Y172581D01*
X66762Y172729D01*
X68651Y173359D01*
X69354Y173618D01*
X69910Y173803D01*
X70872Y174210D01*
X71206Y174321D01*
X71909Y174581D01*
X72872Y174914D01*
X73798Y175284D01*
X74279Y175506D01*
X74427Y175618D01*
X74464Y175655D01*
Y175692D01*
X73798Y176358D01*
X72983Y176988D01*
X72316Y177506D01*
X72094Y177691D01*
X72020Y177728D01*
X70650Y177950D01*
X70206Y177988D01*
X70058Y178024D01*
X70021D01*
X69280Y178173D01*
X68651Y178284D01*
X68206Y178358D01*
X68095Y178395D01*
X68058D01*
X67428Y178580D01*
X66910Y178765D01*
X66429Y178987D01*
X66021Y179246D01*
X65688Y179506D01*
X65392Y179802D01*
X64985Y180320D01*
X64725Y180839D01*
X64577Y181246D01*
X64540Y181542D01*
Y181616D01*
Y181653D01*
Y181728D01*
X64577Y181764D01*
Y181802D01*
X64614Y182098D01*
X64651Y182246D01*
Y182283D01*
X65096Y182616D01*
X65170D01*
X65244Y182579D01*
X65281Y182505D01*
Y182061D01*
X65244Y181764D01*
Y181728D01*
X65318Y181172D01*
X65540Y180691D01*
X65836Y180283D01*
X66170Y179913D01*
X66799Y179469D01*
X67095Y179321D01*
X68243Y178876D01*
X69280Y178691D01*
X70280Y178580D01*
X70872D01*
X71020Y178728D01*
Y178765D01*
X70835Y179024D01*
X70539Y179321D01*
X70317Y179543D01*
X70243Y179580D01*
X70206Y179617D01*
X69724Y179987D01*
X69428Y180320D01*
X69280Y180506D01*
X69243Y180580D01*
X69169Y182320D01*
Y183468D01*
Y183838D01*
Y183949D01*
Y183986D01*
Y185838D01*
Y186319D01*
Y186430D01*
Y186467D01*
Y187356D01*
Y187541D01*
Y187578D01*
X69206Y188097D01*
X69243Y188356D01*
X69317Y188393D01*
X69354D01*
X70021Y187689D01*
X70539Y187171D01*
X71280Y186541D01*
X71613Y186319D01*
X71724Y186282D01*
X71835Y186430D01*
X70280Y187874D01*
X69243Y188726D01*
X68873Y189022D01*
X68799Y189096D01*
X68762Y189134D01*
D02*
G37*
G36*
X57060Y188726D02*
X56949Y188689D01*
X56912Y188578D01*
X56875Y188393D01*
X57282Y187986D01*
X57653Y187652D01*
X57838Y187467D01*
X58023Y187393D01*
X58097Y187319D01*
X58430Y187023D01*
X58763Y186764D01*
X58949Y186653D01*
X59060D01*
X59134Y186689D01*
X59171Y186838D01*
X59208Y186949D01*
Y186986D01*
X58134Y187986D01*
X57467Y188504D01*
X57134Y188689D01*
X57060Y188726D01*
D02*
G37*
%LPD*%
G36*
X167039Y194540D02*
X167816Y194466D01*
X168557Y194281D01*
X169298Y194096D01*
X170001Y193873D01*
X170631Y193614D01*
X171260Y193318D01*
X171816Y193059D01*
X172778Y192466D01*
X173519Y191985D01*
X174148Y191503D01*
X174815Y190911D01*
X175408Y190281D01*
X176333Y189022D01*
X177000Y187763D01*
X177444Y186616D01*
X177851Y184801D01*
X177926Y184097D01*
X177889Y183431D01*
X177814Y182838D01*
X177555Y181913D01*
X177333Y181320D01*
X177222Y181135D01*
X176704Y180580D01*
X176518Y180394D01*
X176444Y180357D01*
Y180320D01*
X175741Y179839D01*
X175481Y179691D01*
X175444Y179617D01*
X175408D01*
X174556Y179172D01*
X174297Y179024D01*
X174223Y178950D01*
X174186D01*
X173297Y178506D01*
X173001Y178358D01*
X172926Y178321D01*
X172889D01*
X172852Y178061D01*
Y177802D01*
X172926Y177506D01*
X173112Y177025D01*
X173223Y176803D01*
X173334Y176617D01*
X173630Y176247D01*
X174148Y175729D01*
X174408Y175543D01*
X175408Y175025D01*
X175852Y174766D01*
X177259Y174025D01*
X177740Y173618D01*
X178111Y173211D01*
X178370Y172766D01*
X178555Y172359D01*
X178703Y171729D01*
X178740Y171470D01*
X178666Y170952D01*
X178518Y170507D01*
X178259Y170100D01*
X177963Y169767D01*
X177592Y169471D01*
X177148Y169248D01*
X176222Y168878D01*
X175333Y168656D01*
X174519Y168545D01*
X173963Y168508D01*
X173741D01*
X173408Y168545D01*
X173149Y168656D01*
X172964Y168730D01*
X172926Y168767D01*
X173408Y168693D01*
X173889Y168730D01*
X174371Y168878D01*
X174852Y169063D01*
X175333Y169248D01*
X176037Y169619D01*
X176333Y169804D01*
X176926Y170211D01*
X177370Y170581D01*
X177926Y171211D01*
X178185Y171618D01*
X178222Y171729D01*
Y171766D01*
X178037Y172248D01*
X177555Y172359D01*
X177111Y172285D01*
X176296Y172063D01*
X175222Y171766D01*
X174667Y171581D01*
X174074Y171396D01*
X171927Y170730D01*
X171260Y170507D01*
X171075Y170470D01*
X171001Y170433D01*
X167446Y169285D01*
X166335Y168915D01*
X165558Y168656D01*
X164817Y168360D01*
X164706Y168286D01*
X164669D01*
X164632Y168101D01*
X164706Y167841D01*
X164854Y167471D01*
X164595Y167212D01*
X164521D01*
X164187Y167508D01*
X163447Y168101D01*
X162743Y168730D01*
X162484Y168915D01*
X162447Y168989D01*
X162410D01*
X161632Y169693D01*
X160855Y170359D01*
X159522Y171507D01*
X158596Y172285D01*
X158300Y172507D01*
X158263Y172581D01*
X158226D01*
X157374Y173359D01*
X156670Y174099D01*
X155559Y175395D01*
X154893Y176284D01*
X154708Y176543D01*
X154671Y176580D01*
Y176617D01*
X154152Y177543D01*
X153782Y178469D01*
X153338Y180135D01*
X153190Y181320D01*
X153152Y181691D01*
Y181764D01*
Y181802D01*
Y182320D01*
X153190Y182838D01*
X153300Y183801D01*
X153486Y184764D01*
X153745Y185616D01*
X154004Y186430D01*
X154337Y187208D01*
X154671Y187911D01*
X155004Y188541D01*
X155708Y189615D01*
X156300Y190392D01*
X156744Y190911D01*
X156855Y191022D01*
X156893Y191059D01*
X157596Y191689D01*
X158337Y192207D01*
X159929Y193096D01*
X161484Y193725D01*
X162928Y194132D01*
X165298Y194540D01*
X166224Y194577D01*
X167039Y194540D01*
D02*
G37*
%LPC*%
G36*
X153819Y179839D02*
X153782D01*
X153708Y179765D01*
Y179654D01*
X153856Y179395D01*
X154152Y179024D01*
X154597Y178580D01*
X155152Y178136D01*
X155522Y177950D01*
X155782Y177839D01*
X155708Y178173D01*
X155596Y178432D01*
X155485Y178580D01*
X155411Y178617D01*
X154597Y179246D01*
X154263Y179506D01*
X154152Y179580D01*
X154115Y179617D01*
X153930Y179728D01*
X153856Y179802D01*
X153819Y179839D01*
D02*
G37*
G36*
X168224Y180728D02*
X168187D01*
X168224Y180506D01*
X168261Y180431D01*
X169075Y179617D01*
X169631Y179209D01*
X169927Y179061D01*
X170038Y179024D01*
X170075Y179098D01*
Y179135D01*
Y179172D01*
X170001Y179469D01*
X169816Y179654D01*
X169631Y179728D01*
X169594Y179765D01*
X169557D01*
X169372Y179987D01*
X169298Y180024D01*
Y180061D01*
X169075Y180135D01*
X168890Y180283D01*
X168742Y180394D01*
X168705Y180431D01*
X168483Y180617D01*
X168335Y180691D01*
X168224Y180728D01*
D02*
G37*
G36*
X172223Y186726D02*
X172186D01*
X172075Y186578D01*
X171964Y186319D01*
X171779Y185505D01*
X171556Y183246D01*
X171482Y180098D01*
Y178691D01*
X171556Y178247D01*
X171667Y177988D01*
X171779Y177728D01*
X171890Y177580D01*
X172001Y177506D01*
Y178099D01*
Y178358D01*
Y178432D01*
Y178469D01*
Y179172D01*
Y179358D01*
Y179432D01*
Y180357D01*
Y180691D01*
Y180802D01*
Y180839D01*
X172038Y181542D01*
X172075Y182172D01*
X172112Y182653D01*
X172149Y182801D01*
Y182838D01*
X172334Y185394D01*
X172371Y186023D01*
Y186171D01*
Y186208D01*
X172334Y186504D01*
X172260Y186653D01*
X172223Y186726D01*
D02*
G37*
G36*
X155856Y175692D02*
X155819D01*
X155856Y175432D01*
X155967Y175247D01*
X156226Y175062D01*
X156522Y174951D01*
X156670D01*
X156522Y175136D01*
X156411Y175247D01*
X156374Y175321D01*
X156152Y175543D01*
X155967Y175655D01*
X155856Y175692D01*
D02*
G37*
G36*
X154560Y177988D02*
X154485D01*
X154411Y177950D01*
Y177876D01*
X154485Y177654D01*
X154634Y177395D01*
X154856Y177136D01*
X155078Y177062D01*
X155189Y176988D01*
X155559Y176728D01*
X155893Y176506D01*
X156078Y176395D01*
X156152Y176469D01*
Y176506D01*
X156115Y176691D01*
X156078Y176766D01*
X155300Y177469D01*
X154819Y177839D01*
X154560Y177988D01*
D02*
G37*
G36*
X153708Y181209D02*
X153671D01*
X153597Y181172D01*
X153523Y181135D01*
Y181061D01*
X153634Y180802D01*
X153819Y180543D01*
X154152Y180209D01*
X154523Y179876D01*
X154819Y179691D01*
X155041Y179617D01*
X155115Y179543D01*
X155226Y179358D01*
X155411Y179283D01*
X155559D01*
X155633Y179395D01*
Y179469D01*
X155485Y179691D01*
X155189Y180024D01*
X154930Y180320D01*
X154819Y180394D01*
X154782Y180431D01*
X153856Y181098D01*
X153708Y181209D01*
D02*
G37*
G36*
X153819Y183653D02*
X153782D01*
X153708Y183616D01*
X153634Y183542D01*
Y183431D01*
X153745Y183172D01*
X155633Y181653D01*
X155708D01*
X155819Y181691D01*
X155856Y181764D01*
X155893Y181839D01*
Y181876D01*
X155745Y182098D01*
X155374Y182431D01*
X155041Y182727D01*
X154930Y182801D01*
X154893Y182838D01*
X153967Y183542D01*
X153819Y183653D01*
D02*
G37*
G36*
X153893Y184764D02*
X153819D01*
Y184505D01*
X153893Y184357D01*
X154893Y183468D01*
X155300Y183135D01*
X155485Y183098D01*
X155559Y183024D01*
X155745Y182838D01*
X155819Y182727D01*
X155930D01*
X156004Y182764D01*
X156041Y182838D01*
X156078Y182913D01*
Y182949D01*
X155930Y183209D01*
X155596Y183579D01*
X155263Y183875D01*
X155152Y183949D01*
X155115Y183986D01*
X154115Y184653D01*
X153893Y184764D01*
D02*
G37*
G36*
X168187Y183283D02*
X168150D01*
X168038Y183246D01*
X168001Y183172D01*
X167964Y183061D01*
X168076Y182875D01*
X168335Y182616D01*
X168742Y182246D01*
X169261Y181839D01*
X169742Y181468D01*
X170038D01*
X170001Y181653D01*
X169964Y181839D01*
X169927Y181913D01*
X169890Y181950D01*
X169372Y182431D01*
X169112Y182653D01*
X169038Y182690D01*
X169001Y182727D01*
X168298Y183209D01*
X168187Y183283D01*
D02*
G37*
G36*
X168001Y182061D02*
X167964D01*
X168001Y181876D01*
X168076Y181691D01*
X168187Y181505D01*
X168631Y181098D01*
X169075Y180765D01*
X169779Y180246D01*
X169927Y180172D01*
X170038Y180209D01*
Y180468D01*
X169594Y180987D01*
X169186Y181394D01*
X168520Y181876D01*
X168113Y182024D01*
X168001Y182061D01*
D02*
G37*
G36*
X153634Y182468D02*
X153560D01*
Y182209D01*
X153597Y182061D01*
X153634Y182024D01*
X154597Y181172D01*
X155189Y180728D01*
X155559Y180543D01*
X155670Y180617D01*
X155708Y180654D01*
X155670Y180802D01*
X155596Y180950D01*
X155374Y181209D01*
X155189Y181357D01*
X155115Y181394D01*
X155078D01*
X154671Y181728D01*
X154448Y181950D01*
X154374Y182024D01*
X154337Y182061D01*
X154041Y182283D01*
X153782Y182431D01*
X153634Y182468D01*
D02*
G37*
G36*
X173593Y175358D02*
X173445D01*
X173519Y175099D01*
X173593Y174988D01*
X174482Y174247D01*
X175074Y173840D01*
X175370Y173729D01*
X175444Y173692D01*
X175593Y173729D01*
X175704Y173766D01*
X175741Y173803D01*
Y173840D01*
X175519Y174136D01*
X175222Y174396D01*
X174593Y174840D01*
X174074Y175173D01*
X173926Y175247D01*
X173852Y175284D01*
X173593Y175358D01*
D02*
G37*
G36*
X165039Y172285D02*
X165002D01*
X164854Y172248D01*
Y172211D01*
X164965Y171915D01*
X165224Y171618D01*
X165594Y171285D01*
X166076Y170952D01*
X166409Y170804D01*
X166668Y170730D01*
Y170878D01*
X166409Y171137D01*
X166335Y171211D01*
X166298Y171248D01*
X165891Y171581D01*
X165743Y171692D01*
X165706Y171729D01*
X165372Y172063D01*
X165150Y172211D01*
X165039Y172285D01*
D02*
G37*
G36*
X166113Y172618D02*
X166076D01*
X165854Y172581D01*
X165817Y172507D01*
X165854Y172433D01*
X165928Y172285D01*
X166224Y172026D01*
X166631Y171655D01*
X167446Y171100D01*
X167668Y171026D01*
X167853D01*
X167927Y171100D01*
Y171137D01*
Y171174D01*
X167890Y171248D01*
X167816Y171396D01*
X167520Y171655D01*
X167224Y171878D01*
X167150Y171952D01*
X167113Y171989D01*
X166298Y172544D01*
X166113Y172618D01*
D02*
G37*
G36*
X163854Y171915D02*
X163817D01*
X163669Y171841D01*
X163632Y171766D01*
X163743Y171544D01*
X163965Y171248D01*
X164336Y170915D01*
X165113Y170433D01*
X165298Y170359D01*
X165483Y170396D01*
X165594Y170470D01*
X165631Y170544D01*
Y170581D01*
X165446Y170693D01*
X165409Y170767D01*
X165372D01*
X165113Y170952D01*
X165039Y171026D01*
X165002Y171063D01*
X164409Y171544D01*
X164076Y171803D01*
X163854Y171915D01*
D02*
G37*
G36*
X161484Y171248D02*
X161447D01*
X161336Y171211D01*
X161299Y171174D01*
X161262Y171063D01*
X161373Y170841D01*
X161632Y170544D01*
X162003Y170137D01*
X162743Y169545D01*
X162928Y169471D01*
X163151Y169508D01*
X163299Y169582D01*
X163336Y169656D01*
Y169693D01*
X163225Y169915D01*
X162928Y170211D01*
X162632Y170433D01*
X162558Y170507D01*
X162521Y170544D01*
X162003Y170952D01*
X161669Y171174D01*
X161484Y171248D01*
D02*
G37*
G36*
X162632Y171507D02*
X162595D01*
X162521Y171470D01*
X162484Y171396D01*
Y171285D01*
X163336Y170470D01*
X163891Y170063D01*
X164224Y169878D01*
X164373Y169915D01*
X164447Y169989D01*
X164484Y170063D01*
Y170100D01*
X163595Y170915D01*
X163002Y171322D01*
X162706Y171470D01*
X162632Y171507D01*
D02*
G37*
G36*
X167187Y172988D02*
X167150D01*
X167002Y172914D01*
X166965Y172840D01*
X167076Y172692D01*
X167335Y172433D01*
X167705Y172100D01*
X168372Y171544D01*
X168520Y171470D01*
X168890D01*
X168964Y171581D01*
Y171618D01*
Y171655D01*
X168705Y171952D01*
X168409Y172248D01*
X168187Y172433D01*
X168113Y172507D01*
X168076D01*
X167372Y172914D01*
X167187Y172988D01*
D02*
G37*
G36*
X171630Y174544D02*
X171593D01*
X171408Y174507D01*
X171371Y174470D01*
X171445Y174285D01*
X171667Y174062D01*
X171964Y173803D01*
X172371Y173507D01*
X172741Y173174D01*
X173075Y173026D01*
X173260Y172988D01*
X173445Y173063D01*
X173482Y173100D01*
X173445Y173174D01*
X173371Y173322D01*
X173075Y173581D01*
X172778Y173803D01*
X172704Y173877D01*
X172667Y173914D01*
X172149Y174285D01*
X171816Y174470D01*
X171630Y174544D01*
D02*
G37*
G36*
X172815Y174914D02*
X172667D01*
X172519Y174877D01*
X172482Y174840D01*
X172445Y174766D01*
X172778Y174433D01*
X173482Y173803D01*
X173963Y173507D01*
X174334Y173359D01*
X174445Y173396D01*
Y173433D01*
X174334Y173655D01*
X174111Y173877D01*
X173889Y174062D01*
X173815Y174136D01*
X173778D01*
X173112Y174692D01*
X173038Y174766D01*
Y174803D01*
X172926Y174877D01*
X172815Y174914D01*
D02*
G37*
G36*
X170519Y174210D02*
X170334D01*
X170260Y174173D01*
Y174099D01*
X170297Y173988D01*
X170371Y173840D01*
X170668Y173544D01*
X171075Y173211D01*
X171556Y172840D01*
X171853Y172655D01*
X172075Y172581D01*
X172223Y172618D01*
X172297Y172655D01*
X172334Y172692D01*
Y172729D01*
X172223Y172914D01*
X171927Y173211D01*
X171667Y173433D01*
X171593Y173507D01*
X171556Y173544D01*
X170705Y174136D01*
X170519Y174210D01*
D02*
G37*
G36*
X168298Y173433D02*
X168261D01*
X168150Y173396D01*
X168113Y173322D01*
X168076Y173174D01*
X168964Y172322D01*
X169483Y171878D01*
X169816Y171692D01*
X169964Y171729D01*
X170038Y171878D01*
X170075Y171989D01*
Y172026D01*
X169742Y172359D01*
X169557Y172507D01*
X169483Y172581D01*
X169149Y172840D01*
X168964Y173026D01*
X168890Y173100D01*
X168446Y173396D01*
X168298Y173433D01*
D02*
G37*
G36*
X169372Y173840D02*
X169334D01*
X169149Y173803D01*
X169075Y173766D01*
X169038Y173692D01*
X170001Y172803D01*
X170594Y172322D01*
X170890Y172174D01*
X170964Y172137D01*
X171112Y172174D01*
X171186Y172248D01*
X171223Y172285D01*
Y172322D01*
X171186Y172396D01*
X171112Y172544D01*
X170816Y172803D01*
X170519Y173026D01*
X170445Y173100D01*
X170408Y173136D01*
X169890Y173544D01*
X169557Y173766D01*
X169372Y173840D01*
D02*
G37*
G36*
X159114Y192170D02*
X159077D01*
X158929Y192133D01*
Y192059D01*
X159077Y191837D01*
X159411Y191503D01*
X159892Y191059D01*
X160818Y190356D01*
X161040Y190244D01*
X161151Y190281D01*
X161225Y190356D01*
X161262Y190429D01*
Y190467D01*
X161114Y190689D01*
X160781Y190985D01*
X160447Y191281D01*
X160336Y191355D01*
X160299Y191392D01*
X159707Y191837D01*
X159336Y192059D01*
X159114Y192170D01*
D02*
G37*
G36*
X160151Y192725D02*
X160077D01*
X159966Y192688D01*
X159929Y192614D01*
X159892Y192503D01*
X159929Y192355D01*
X160966Y191541D01*
X161855Y190911D01*
X162003Y190837D01*
X162262Y190911D01*
X162299Y190948D01*
Y190985D01*
X162262Y191133D01*
X162151Y191207D01*
X162040Y191281D01*
X162003Y191318D01*
X161891Y191392D01*
X161818Y191429D01*
X161669Y191541D01*
X161595Y191577D01*
X160892Y192281D01*
X160558Y192540D01*
X160299Y192688D01*
X160151Y192725D01*
D02*
G37*
G36*
X161188Y193207D02*
X161151D01*
X160966Y193170D01*
X160892Y193096D01*
X160855Y192985D01*
X161003Y192799D01*
X161336Y192503D01*
X161818Y192096D01*
X162780Y191466D01*
X163002Y191392D01*
X163151Y191429D01*
X163188Y191466D01*
X162928Y191763D01*
X162595Y192096D01*
X162262Y192355D01*
X162188Y192429D01*
X162151Y192466D01*
X161336Y193133D01*
X161188Y193207D01*
D02*
G37*
G36*
X157522Y190948D02*
X157374Y190911D01*
X157337Y190874D01*
X157300Y190763D01*
X157337Y190689D01*
X157448Y190541D01*
X157744Y190244D01*
X158226Y189874D01*
X158781Y189393D01*
X159336Y188948D01*
X159485Y188985D01*
X159559Y189134D01*
X159596Y189245D01*
Y189282D01*
X158559Y190244D01*
X157929Y190726D01*
X157596Y190911D01*
X157522Y190948D01*
D02*
G37*
G36*
X158263Y191577D02*
X158226D01*
X158115Y191541D01*
X158077Y191466D01*
X158263Y191170D01*
X158596Y190837D01*
X159077Y190429D01*
X159633Y189985D01*
X160003Y189800D01*
X160262Y189689D01*
X160336Y189726D01*
X160373Y189763D01*
Y189800D01*
Y189837D01*
X160225Y190059D01*
X159892Y190392D01*
X159559Y190689D01*
X159448Y190763D01*
X159411Y190800D01*
X158411Y191466D01*
X158263Y191577D01*
D02*
G37*
G36*
X170186Y191059D02*
X170001D01*
X168964Y191022D01*
X168483Y190985D01*
X168001Y190911D01*
X167520Y190837D01*
X167076Y190763D01*
X166224Y190541D01*
X165409Y190281D01*
X164632Y189985D01*
X163928Y189689D01*
X163299Y189356D01*
X162225Y188726D01*
X161447Y188171D01*
X160929Y187800D01*
X160818Y187689D01*
X160781Y187652D01*
X160114Y186986D01*
X159559Y186282D01*
X158670Y184801D01*
X158300Y184060D01*
X158003Y183320D01*
X157559Y181913D01*
X157152Y179617D01*
X157115Y178691D01*
Y178099D01*
X157152Y177543D01*
X157189Y177099D01*
X157263Y176691D01*
X157411Y175988D01*
X157522Y175840D01*
X157559Y175877D01*
Y177358D01*
Y177876D01*
X157596Y178358D01*
X157633Y178839D01*
X157707Y179283D01*
X157892Y180209D01*
X158115Y181061D01*
X158374Y181876D01*
X158670Y182653D01*
X159003Y183357D01*
X159336Y183986D01*
X160003Y185097D01*
X160558Y185912D01*
X160966Y186393D01*
X161077Y186541D01*
X161114Y186578D01*
X161447Y186949D01*
X161780Y187282D01*
X162521Y187874D01*
X163225Y188393D01*
X164002Y188837D01*
X165483Y189541D01*
X166891Y190022D01*
X168150Y190281D01*
X169149Y190429D01*
X170038Y190504D01*
X170742Y190467D01*
X171445Y190356D01*
X172186Y190207D01*
X172889Y190096D01*
X173223Y190022D01*
X174297Y189800D01*
X174111Y190022D01*
X173815Y190207D01*
X173186Y190504D01*
X172593Y190689D01*
X172408Y190763D01*
X172334D01*
X170668Y191022D01*
X170186Y191059D01*
D02*
G37*
G36*
X164706Y194132D02*
X164669D01*
X164558Y194096D01*
X164521Y194059D01*
X164484Y193947D01*
X164965Y193540D01*
X165483Y193096D01*
X166076Y192540D01*
X166483Y192392D01*
X166668Y192355D01*
X166891Y192429D01*
X166928Y192466D01*
X166779Y192688D01*
X166409Y192985D01*
X166076Y193281D01*
X165965Y193355D01*
X165928Y193392D01*
X164891Y194059D01*
X164706Y194132D01*
D02*
G37*
G36*
X168038Y194096D02*
X167964D01*
X167890Y194059D01*
Y193984D01*
X168076Y193725D01*
X168409Y193392D01*
X168853Y192911D01*
X169186Y192651D01*
X169520Y192540D01*
X169853Y192466D01*
X169964Y192540D01*
X169705Y192874D01*
X169372Y193207D01*
X169112Y193429D01*
X169038Y193503D01*
X169001Y193540D01*
X168557Y193873D01*
X168224Y194021D01*
X168038Y194096D01*
D02*
G37*
G36*
X166261Y194207D02*
X166224D01*
X166150Y194170D01*
X166076Y194132D01*
Y194059D01*
X166335Y193762D01*
X166853Y193318D01*
X167631Y192688D01*
X168001Y192540D01*
X168150Y192503D01*
X168261Y192577D01*
X168298Y192614D01*
Y192651D01*
X168261Y192762D01*
X168150Y192874D01*
X167853Y193133D01*
X167557Y193392D01*
X167446Y193466D01*
X167409Y193503D01*
X166446Y194132D01*
X166261Y194207D01*
D02*
G37*
G36*
X162299Y193651D02*
X162114Y193577D01*
X162003Y193503D01*
X161966Y193429D01*
X162114Y193207D01*
X162447Y192874D01*
X162965Y192429D01*
X163891Y191800D01*
X164113Y191689D01*
X164224Y191763D01*
Y191800D01*
X164187Y191948D01*
X164113Y192133D01*
X163817Y192466D01*
X163521Y192688D01*
X163447Y192762D01*
X163410Y192799D01*
X163039Y193133D01*
X162891Y193207D01*
X162854Y193244D01*
X162447Y193540D01*
X162336Y193614D01*
X162299Y193651D01*
D02*
G37*
G36*
X163447Y193910D02*
X163336D01*
X163188Y193873D01*
X163151Y193836D01*
X163113Y193762D01*
X163817Y193059D01*
X164373Y192688D01*
X164854Y192281D01*
X165224Y192059D01*
X165558Y191985D01*
Y192170D01*
X165521Y192281D01*
Y192355D01*
X164965Y192911D01*
X164373Y193392D01*
X163854Y193725D01*
X163706Y193799D01*
X163669Y193836D01*
X163447Y193910D01*
D02*
G37*
G36*
X170186Y193503D02*
X170149D01*
X170223Y193355D01*
X170334Y193170D01*
X170556Y192911D01*
X171001Y192540D01*
X171112Y192466D01*
X171704Y192170D01*
X171816Y192207D01*
X171853Y192244D01*
X171779Y192392D01*
X171741Y192466D01*
X171704Y192503D01*
X171408Y192799D01*
X171297Y192911D01*
X171260Y192948D01*
X170890Y193207D01*
X170742Y193281D01*
X170705Y193318D01*
X170297Y193466D01*
X170186Y193503D01*
D02*
G37*
G36*
X154597Y186801D02*
X154560D01*
X154485Y186764D01*
X154448Y186726D01*
Y186616D01*
X154597Y186393D01*
X154930Y186060D01*
X155448Y185616D01*
X156004Y185134D01*
X156374Y184912D01*
X156633Y184801D01*
X156781Y184838D01*
Y185171D01*
X156152Y185690D01*
X155819Y185986D01*
X155708Y186060D01*
X155670Y186097D01*
X155115Y186504D01*
X154782Y186726D01*
X154597Y186801D01*
D02*
G37*
G36*
X168001Y187134D02*
X167964D01*
X167816Y187097D01*
Y187023D01*
X167964Y186764D01*
X168298Y186393D01*
X168779Y185912D01*
X169334Y185431D01*
X169705Y185208D01*
X169964Y185097D01*
X170075Y185134D01*
X170112Y185282D01*
X170149Y185394D01*
Y185431D01*
X169075Y186430D01*
X168409Y186912D01*
X168076Y187097D01*
X168001Y187134D01*
D02*
G37*
G36*
X155115Y187800D02*
X155041D01*
X154893Y187763D01*
X154856Y187726D01*
X154819Y187615D01*
Y187541D01*
X154856Y187467D01*
X155930Y186430D01*
X156596Y185912D01*
X156930Y185727D01*
X157003Y185690D01*
X157115Y185727D01*
X157189Y185838D01*
X157226Y185912D01*
Y185949D01*
X157152Y186097D01*
X156930Y186356D01*
X156226Y186949D01*
X155522Y187504D01*
X155300Y187652D01*
X155263Y187726D01*
X155226D01*
X155115Y187800D01*
D02*
G37*
G36*
X168224Y184542D02*
X167964D01*
X168001Y184357D01*
X168038Y184209D01*
X168224Y183949D01*
X168409Y183801D01*
X168483Y183727D01*
X168927Y183357D01*
X169557Y182875D01*
X169742Y182764D01*
X169853Y182727D01*
X169927Y182764D01*
X169964Y182875D01*
X170001Y182949D01*
Y182986D01*
X169853Y183172D01*
X169557Y183468D01*
X169298Y183727D01*
X169186Y183801D01*
X169149Y183838D01*
X168372Y184468D01*
X168224Y184542D01*
D02*
G37*
G36*
X154337Y185838D02*
X154300D01*
X154226Y185764D01*
X154152Y185653D01*
Y185431D01*
X154189Y185356D01*
X154263Y185245D01*
X154411Y185171D01*
X154671Y184986D01*
X154782Y184949D01*
X155485Y184246D01*
X155856Y183986D01*
X156078Y183838D01*
X156263Y183764D01*
X156337Y183838D01*
X156374Y183949D01*
X156411Y184060D01*
Y184134D01*
X156115Y184431D01*
X156078Y184505D01*
X155596Y184838D01*
X155374Y185023D01*
X155300Y185097D01*
X155263D01*
X154967Y185431D01*
X154856Y185542D01*
X154819Y185579D01*
X154448Y185801D01*
X154337Y185838D01*
D02*
G37*
G36*
X168038Y185912D02*
X168001D01*
X167890Y185875D01*
Y185801D01*
X167927Y185579D01*
X168927Y184653D01*
X169520Y184171D01*
X169853Y183986D01*
X169927Y183949D01*
X170001Y183986D01*
X170038Y184060D01*
X170075Y184097D01*
Y184134D01*
X170038Y184283D01*
Y184320D01*
Y184357D01*
X169520Y184838D01*
X169186Y185097D01*
X169075Y185171D01*
X169038Y185208D01*
X168150Y185838D01*
X168038Y185912D01*
D02*
G37*
G36*
X169149Y188319D02*
X169112D01*
Y188282D01*
X169149Y188171D01*
X169223Y188097D01*
X169334Y188023D01*
X169631Y187800D01*
X169927Y187578D01*
X170186Y187319D01*
X170223D01*
X170297Y187356D01*
X170334Y187393D01*
Y187430D01*
Y187467D01*
X170260Y187652D01*
X170149Y187800D01*
X169705Y188060D01*
X169298Y188245D01*
X169149Y188319D01*
D02*
G37*
G36*
X156152Y189504D02*
X156115D01*
X155930Y189467D01*
X155856Y189430D01*
X155819Y189319D01*
X155967Y189096D01*
X156337Y188800D01*
X156855Y188356D01*
X157781Y187615D01*
X158003Y187504D01*
X158151Y187541D01*
X158226Y187615D01*
X158263Y187689D01*
Y187726D01*
X158226Y187874D01*
X158115Y188023D01*
X158040Y188097D01*
X158003Y188134D01*
X157115Y188800D01*
X156744Y189096D01*
X156633Y189171D01*
X156596Y189208D01*
X156411Y189393D01*
X156263Y189467D01*
X156152Y189504D01*
D02*
G37*
G36*
X156781Y190281D02*
X156707D01*
X156559Y190207D01*
X156522Y190133D01*
X156559Y190022D01*
X156670Y189874D01*
X157041Y189541D01*
X157559Y189096D01*
X158522Y188393D01*
X158744Y188282D01*
X158855Y188356D01*
X158892Y188393D01*
Y188430D01*
X158855Y188578D01*
X158744Y188726D01*
X158411Y189059D01*
X158077Y189356D01*
X157966Y189430D01*
X157929Y189467D01*
X156966Y190170D01*
X156781Y190281D01*
D02*
G37*
G36*
X172038Y189800D02*
X169705D01*
X169112Y189763D01*
X168705Y189652D01*
X168520Y189504D01*
X168446Y189467D01*
X168705Y189245D01*
X169112Y188985D01*
X170223Y188430D01*
X171741Y187800D01*
X172630Y187393D01*
X173334Y187097D01*
X174148Y186616D01*
X174334Y186467D01*
X174445Y186356D01*
X174482Y186282D01*
X174445Y186208D01*
X174334Y186171D01*
X174223D01*
X173963Y186208D01*
X173852Y186245D01*
X173815D01*
X173482Y186282D01*
X173371D01*
X173112Y185616D01*
X172926Y184690D01*
X172741Y183505D01*
X172667Y181913D01*
Y180580D01*
X172704Y180209D01*
X172778Y179950D01*
X172926Y179765D01*
X173334Y179839D01*
X173741Y180061D01*
X174186Y180357D01*
X174593Y180691D01*
X174926Y181024D01*
X175222Y181283D01*
X175408Y181505D01*
X175444Y181579D01*
X175481D01*
X176370Y182764D01*
X176815Y183653D01*
X177037Y184209D01*
X177074Y184357D01*
Y184394D01*
Y184838D01*
Y184986D01*
Y185060D01*
Y185579D01*
Y185764D01*
Y185838D01*
X177037Y186171D01*
X177000Y186504D01*
X176889Y186801D01*
X176778Y187060D01*
X176481Y187578D01*
X176148Y187986D01*
X175815Y188356D01*
X175556Y188578D01*
X175333Y188763D01*
X175259Y188800D01*
X174630Y189134D01*
X174000Y189393D01*
X172852Y189689D01*
X172038Y189800D01*
D02*
G37*
G36*
X167187Y189134D02*
X166779D01*
X166409Y189059D01*
X165854Y188837D01*
X165298Y188652D01*
X165150Y188578D01*
X165076Y188541D01*
X164484Y188245D01*
X163928Y187949D01*
X163410Y187578D01*
X162928Y187171D01*
X162484Y186764D01*
X162077Y186319D01*
X161336Y185505D01*
X160781Y184727D01*
X160373Y184060D01*
X160040Y183468D01*
X159485Y182246D01*
X159077Y180987D01*
X158596Y178691D01*
X158411Y177025D01*
X158374Y176358D01*
X158411Y175840D01*
X158485Y175321D01*
X158596Y174840D01*
X158707Y174433D01*
X158929Y173766D01*
X159040Y173507D01*
X159373Y172914D01*
X159707Y172470D01*
X160336Y171915D01*
X160855Y171729D01*
X161040Y171692D01*
X161484Y171729D01*
X162077Y171841D01*
X163484Y172211D01*
X164113Y172396D01*
X164669Y172581D01*
X165187Y172729D01*
X167076Y173359D01*
X167779Y173618D01*
X168335Y173803D01*
X169298Y174210D01*
X169631Y174321D01*
X170334Y174581D01*
X171297Y174914D01*
X172223Y175284D01*
X172704Y175506D01*
X172852Y175618D01*
X172889Y175655D01*
Y175692D01*
X172223Y176358D01*
X171408Y176988D01*
X170742Y177506D01*
X170519Y177691D01*
X170445Y177728D01*
X169075Y177950D01*
X168631Y177988D01*
X168483Y178024D01*
X168446D01*
X167705Y178173D01*
X167076Y178284D01*
X166631Y178358D01*
X166520Y178395D01*
X166483D01*
X165854Y178580D01*
X165335Y178765D01*
X164854Y178987D01*
X164447Y179246D01*
X164113Y179506D01*
X163817Y179802D01*
X163410Y180320D01*
X163151Y180839D01*
X163002Y181246D01*
X162965Y181542D01*
Y181616D01*
Y181653D01*
Y181728D01*
X163002Y181764D01*
Y181802D01*
X163039Y182098D01*
X163076Y182246D01*
Y182283D01*
X163521Y182616D01*
X163595D01*
X163669Y182579D01*
X163706Y182505D01*
Y182061D01*
X163669Y181764D01*
Y181728D01*
X163743Y181172D01*
X163965Y180691D01*
X164261Y180283D01*
X164595Y179913D01*
X165224Y179469D01*
X165521Y179321D01*
X166668Y178876D01*
X167705Y178691D01*
X168705Y178580D01*
X169298D01*
X169446Y178728D01*
Y178765D01*
X169261Y179024D01*
X168964Y179321D01*
X168742Y179543D01*
X168668Y179580D01*
X168631Y179617D01*
X168150Y179987D01*
X167853Y180320D01*
X167705Y180506D01*
X167668Y180580D01*
X167594Y182320D01*
Y183468D01*
Y183838D01*
Y183949D01*
Y183986D01*
Y185838D01*
Y186319D01*
Y186430D01*
Y186467D01*
Y187356D01*
Y187541D01*
Y187578D01*
X167631Y188097D01*
X167668Y188356D01*
X167742Y188393D01*
X167779D01*
X168446Y187689D01*
X168964Y187171D01*
X169705Y186541D01*
X170038Y186319D01*
X170149Y186282D01*
X170260Y186430D01*
X168705Y187874D01*
X167668Y188726D01*
X167298Y189022D01*
X167224Y189096D01*
X167187Y189134D01*
D02*
G37*
G36*
X155485Y188726D02*
X155374Y188689D01*
X155337Y188578D01*
X155300Y188393D01*
X155708Y187986D01*
X156078Y187652D01*
X156263Y187467D01*
X156448Y187393D01*
X156522Y187319D01*
X156855Y187023D01*
X157189Y186764D01*
X157374Y186653D01*
X157485D01*
X157559Y186689D01*
X157596Y186838D01*
X157633Y186949D01*
Y186986D01*
X156559Y187986D01*
X155893Y188504D01*
X155559Y188689D01*
X155485Y188726D01*
D02*
G37*
%LPD*%
D21*
X15354Y90551D02*
Y116142D01*
X2756Y90551D02*
X15354D01*
X2756D02*
Y116142D01*
X15354D01*
X30512Y148622D02*
X42323D01*
Y144291D02*
Y148622D01*
X30512Y144291D02*
X42323D01*
X30512D02*
Y148622D01*
X6207Y98364D02*
Y102362D01*
X9206D01*
X8206Y100363D01*
Y99363D01*
X9206Y98364D01*
X11205D01*
X12205Y99363D01*
Y101363D01*
X11205Y102362D01*
X6207Y96364D02*
X10205D01*
X12205Y94365D01*
X10205Y92365D01*
X6207D01*
X81890Y167809D02*
Y161811D01*
X78891D01*
X77891Y162811D01*
Y166809D01*
X78891Y167809D01*
X81890D01*
X75892Y165810D02*
Y161811D01*
Y163810D01*
X74892Y164810D01*
X73892Y165810D01*
X72893D01*
X69894Y161811D02*
X67894D01*
X68894D01*
Y165810D01*
X69894D01*
X61896Y161811D02*
X63896D01*
X64895Y162811D01*
Y164810D01*
X63896Y165810D01*
X61896D01*
X60897Y164810D01*
Y163810D01*
X64895D01*
X58897Y161811D02*
X55898D01*
X54899Y162811D01*
X55898Y163810D01*
X57898D01*
X58897Y164810D01*
X57898Y165810D01*
X54899D01*
X52899Y166809D02*
X51899Y167809D01*
X49900D01*
X48900Y166809D01*
Y162811D01*
X49900Y161811D01*
X51899D01*
X52899Y162811D01*
Y166809D01*
X46901D02*
X45901Y167809D01*
X43902D01*
X42902Y166809D01*
Y162811D01*
X43902Y161811D01*
X45901D01*
X46901Y162811D01*
Y166809D01*
X40903Y167809D02*
X36904D01*
Y166809D01*
X40903Y162811D01*
Y161811D01*
X94581Y69291D02*
Y71291D01*
Y70291D01*
X88583D01*
Y69291D01*
Y71291D01*
X94581Y77289D02*
Y75289D01*
X93581Y74290D01*
X89582D01*
X88583Y75289D01*
Y77289D01*
X89582Y78288D01*
X93581D01*
X94581Y77289D01*
X90582Y80288D02*
Y84286D01*
X92581Y80288D02*
Y84286D01*
X93581Y86286D02*
X94581Y87286D01*
Y89285D01*
X93581Y90285D01*
X92581D01*
X91582Y89285D01*
Y88285D01*
Y89285D01*
X90582Y90285D01*
X89582D01*
X88583Y89285D01*
Y87286D01*
X89582Y86286D01*
X92581Y92284D02*
X88583Y94283D01*
X92581Y96283D01*
X93581Y98282D02*
X94581Y99282D01*
Y101281D01*
X93581Y102281D01*
X92581D01*
X91582Y101281D01*
Y100281D01*
Y101281D01*
X90582Y102281D01*
X89582D01*
X88583Y101281D01*
Y99282D01*
X89582Y98282D01*
X90582Y104280D02*
X95580D01*
X89582D02*
X88583D01*
X113779Y90551D02*
Y116142D01*
X101181Y90551D02*
X113779D01*
X101181D02*
Y116142D01*
X113779D01*
X128937Y148622D02*
X140748D01*
Y144291D02*
Y148622D01*
X128937Y144291D02*
X140748D01*
X128937D02*
Y148622D01*
X104632Y98364D02*
Y102362D01*
X107631D01*
X106631Y100363D01*
Y99363D01*
X107631Y98364D01*
X109630D01*
X110630Y99363D01*
Y101363D01*
X109630Y102362D01*
X104632Y96364D02*
X108631D01*
X110630Y94365D01*
X108631Y92365D01*
X104632D01*
X180315Y167809D02*
Y161811D01*
X177316D01*
X176316Y162811D01*
Y166809D01*
X177316Y167809D01*
X180315D01*
X174317Y165810D02*
Y161811D01*
Y163810D01*
X173317Y164810D01*
X172318Y165810D01*
X171318D01*
X168319Y161811D02*
X166320D01*
X167319D01*
Y165810D01*
X168319D01*
X160321Y161811D02*
X162321D01*
X163321Y162811D01*
Y164810D01*
X162321Y165810D01*
X160321D01*
X159322Y164810D01*
Y163810D01*
X163321D01*
X157322Y161811D02*
X154323D01*
X153324Y162811D01*
X154323Y163810D01*
X156323D01*
X157322Y164810D01*
X156323Y165810D01*
X153324D01*
X151324Y166809D02*
X150325Y167809D01*
X148325D01*
X147326Y166809D01*
Y162811D01*
X148325Y161811D01*
X150325D01*
X151324Y162811D01*
Y166809D01*
X145326D02*
X144327Y167809D01*
X142327D01*
X141328Y166809D01*
Y162811D01*
X142327Y161811D01*
X144327D01*
X145326Y162811D01*
Y166809D01*
X139328Y167809D02*
X135329D01*
Y166809D01*
X139328Y162811D01*
Y161811D01*
X193006Y69291D02*
Y71291D01*
Y70291D01*
X187008D01*
Y69291D01*
Y71291D01*
X193006Y77289D02*
Y75289D01*
X192006Y74290D01*
X188008D01*
X187008Y75289D01*
Y77289D01*
X188008Y78288D01*
X192006D01*
X193006Y77289D01*
X189007Y80288D02*
Y84286D01*
X191007Y80288D02*
Y84286D01*
X192006Y86286D02*
X193006Y87286D01*
Y89285D01*
X192006Y90285D01*
X191007D01*
X190007Y89285D01*
Y88285D01*
Y89285D01*
X189007Y90285D01*
X188008D01*
X187008Y89285D01*
Y87286D01*
X188008Y86286D01*
X191007Y92284D02*
X187008Y94283D01*
X191007Y96283D01*
X192006Y98282D02*
X193006Y99282D01*
Y101281D01*
X192006Y102281D01*
X191007D01*
X190007Y101281D01*
Y100281D01*
Y101281D01*
X189007Y102281D01*
X188008D01*
X187008Y101281D01*
Y99282D01*
X188008Y98282D01*
X189007Y104280D02*
X194006D01*
X188008D02*
X187008D01*
D38*
X98425Y0D02*
Y196850D01*
X24055Y51732D02*
Y66732D01*
X34055Y51732D02*
Y66929D01*
X44055Y51732D02*
Y66732D01*
X64055Y51732D02*
Y66929D01*
X74055Y51732D02*
Y66732D01*
X84055Y31732D02*
X98425D01*
X84055Y0D02*
Y66929D01*
X14055Y51732D02*
X84055D01*
X13858Y66929D02*
X14055Y66732D01*
Y0D02*
Y66732D01*
X0Y66929D02*
X98425D01*
X36977Y71149D02*
X38976D01*
Y68150D01*
X36977D01*
X38976Y69649D02*
X37977D01*
X33978Y70649D02*
X34478Y71149D01*
X35478D01*
X35977Y70649D01*
Y70149D01*
X35478Y69649D01*
X34478D01*
X33978Y69149D01*
Y68649D01*
X34478Y68150D01*
X35478D01*
X35977Y68649D01*
X32978Y68150D02*
Y71149D01*
X31479D01*
X30979Y70649D01*
Y69649D01*
X31479Y69149D01*
X32978D01*
X29979Y69649D02*
X27980D01*
X26980Y68150D02*
X25981D01*
X26480D01*
Y71149D01*
X26980Y70649D01*
X22482Y68150D02*
X24481D01*
X22482Y70149D01*
Y70649D01*
X22982Y71149D01*
X23981D01*
X24481Y70649D01*
X19483Y71149D02*
X21482D01*
Y68150D01*
X19483D01*
X21482Y69649D02*
X20482D01*
X15484Y70149D02*
Y68150D01*
Y69149D01*
X14984Y69649D01*
X14484Y70149D01*
X13984D01*
X10985Y68150D02*
X11985D01*
X12485Y68649D01*
Y69649D01*
X11985Y70149D01*
X10985D01*
X10486Y69649D01*
Y69149D01*
X12485D01*
X9486Y70149D02*
X8486Y68150D01*
X7486Y70149D01*
X1488Y68150D02*
X3488D01*
X1488Y70149D01*
Y70649D01*
X1988Y71149D01*
X2988D01*
X3488Y70649D01*
X10205Y64350D02*
X10705Y64849D01*
X11705D01*
X12205Y64350D01*
Y62350D01*
X11705Y61850D01*
X10705D01*
X10205Y62350D01*
Y63350D01*
X11205D01*
X9206Y61850D02*
Y64849D01*
X7206Y61850D01*
Y64849D01*
X6207D02*
Y61850D01*
X4707D01*
X4207Y62350D01*
Y64350D01*
X4707Y64849D01*
X6207D01*
X20442Y64350D02*
X20941Y64849D01*
X21941D01*
X22441Y64350D01*
Y62350D01*
X21941Y61850D01*
X20941D01*
X20442Y62350D01*
Y63350D01*
X21441D01*
X19442Y61850D02*
X18442D01*
X18942D01*
Y64849D01*
X19442Y64350D01*
X15443Y61850D02*
Y64849D01*
X16943Y63350D01*
X14943D01*
X92095Y64849D02*
X94095D01*
Y63350D01*
X93095Y63850D01*
X92595D01*
X92095Y63350D01*
Y62350D01*
X92595Y61850D01*
X93595D01*
X94095Y62350D01*
X91095Y63850D02*
X90096Y61850D01*
X89096Y63850D01*
X69654Y64350D02*
X70154Y64849D01*
X71154D01*
X71653Y64350D01*
Y62350D01*
X71154Y61850D01*
X70154D01*
X69654Y62350D01*
Y63350D01*
X70654D01*
X67155Y61850D02*
Y64849D01*
X68655Y63350D01*
X66655D01*
X79497Y64350D02*
X79997Y64849D01*
X80996D01*
X81496Y64350D01*
Y62350D01*
X80996Y61850D01*
X79997D01*
X79497Y62350D01*
Y63350D01*
X80496D01*
X76498Y64849D02*
X78497D01*
Y63350D01*
X77497Y63850D01*
X76998D01*
X76498Y63350D01*
Y62350D01*
X76998Y61850D01*
X77997D01*
X78497Y62350D01*
X30678Y64350D02*
X31178Y64849D01*
X32177D01*
X32677Y64350D01*
Y62350D01*
X32177Y61850D01*
X31178D01*
X30678Y62350D01*
Y63350D01*
X31677D01*
X29678Y61850D02*
X28678D01*
X29178D01*
Y64849D01*
X29678Y64350D01*
X27179D02*
X26679Y64849D01*
X25679D01*
X25180Y64350D01*
Y63850D01*
X25679Y63350D01*
X26179D01*
X25679D01*
X25180Y62850D01*
Y62350D01*
X25679Y61850D01*
X26679D01*
X27179Y62350D01*
X40520Y64350D02*
X41020Y64849D01*
X42020D01*
X42520Y64350D01*
Y62350D01*
X42020Y61850D01*
X41020D01*
X40520Y62350D01*
Y63350D01*
X41520D01*
X39521Y61850D02*
X38521D01*
X39021D01*
Y64849D01*
X39521Y64350D01*
X35022Y61850D02*
X37021D01*
X35022Y63850D01*
Y64350D01*
X35522Y64849D01*
X36522D01*
X37021Y64350D01*
X57874D02*
X57374Y64849D01*
X56375D01*
X55875Y64350D01*
Y63850D01*
X56375Y63350D01*
X56874D01*
X56375D01*
X55875Y62850D01*
Y62350D01*
X56375Y61850D01*
X57374D01*
X57874Y62350D01*
X54875Y63850D02*
X53875Y61850D01*
X52876Y63850D01*
X51876Y64350D02*
X51376Y64849D01*
X50376D01*
X49877Y64350D01*
Y63850D01*
X50376Y63350D01*
X50876D01*
X50376D01*
X49877Y62850D01*
Y62350D01*
X50376Y61850D01*
X51376D01*
X51876Y62350D01*
X95806Y12638D02*
X96306Y13138D01*
Y14137D01*
X95806Y14637D01*
X95306D01*
X94807Y14137D01*
Y13637D01*
Y14137D01*
X94307Y14637D01*
X93807D01*
X93307Y14137D01*
Y13138D01*
X93807Y12638D01*
X95306Y15637D02*
X93307Y16636D01*
X95306Y17636D01*
X95806Y18636D02*
X96306Y19136D01*
Y20135D01*
X95806Y20635D01*
X95306D01*
X94807Y20135D01*
Y19636D01*
Y20135D01*
X94307Y20635D01*
X93807D01*
X93307Y20135D01*
Y19136D01*
X93807Y18636D01*
X57087Y90334D02*
X56587Y90834D01*
X55587D01*
X55087Y90334D01*
Y89834D01*
X55587Y89334D01*
X56087D01*
X55587D01*
X55087Y88834D01*
Y88335D01*
X55587Y87835D01*
X56587D01*
X57087Y88335D01*
X54088Y89834D02*
X53088Y87835D01*
X52088Y89834D01*
X51089Y90334D02*
X50589Y90834D01*
X49589D01*
X49089Y90334D01*
Y89834D01*
X49589Y89334D01*
X50089D01*
X49589D01*
X49089Y88834D01*
Y88335D01*
X49589Y87835D01*
X50589D01*
X51089Y88335D01*
X43591Y90834D02*
X44591D01*
X45090Y90334D01*
Y88335D01*
X44591Y87835D01*
X43591D01*
X43091Y88335D01*
Y90334D01*
X43591Y90834D01*
X42091Y87835D02*
Y90834D01*
X40592D01*
X40092Y90334D01*
Y89334D01*
X40592Y88834D01*
X42091D01*
X41092D02*
X40092Y87835D01*
X34094Y90834D02*
X36093D01*
Y89334D01*
X35094Y89834D01*
X34594D01*
X34094Y89334D01*
Y88335D01*
X34594Y87835D01*
X35594D01*
X36093Y88335D01*
X33094Y89834D02*
X32095Y87835D01*
X31095Y89834D01*
X81890Y68110D02*
Y70110D01*
X80890Y71109D01*
X79890Y70110D01*
Y68110D01*
Y69610D01*
X81890D01*
X78891Y71109D02*
Y68110D01*
X77391D01*
X76891Y68610D01*
Y70609D01*
X77391Y71109D01*
X78891D01*
X73892Y70609D02*
X74392Y71109D01*
X75392D01*
X75892Y70609D01*
Y68610D01*
X75392Y68110D01*
X74392D01*
X73892Y68610D01*
X69894Y69110D02*
X67894D01*
X69894Y70110D02*
X67894D01*
X63896Y68110D02*
X62896D01*
X63396D01*
Y71109D01*
X63896Y70609D01*
X61396Y71109D02*
Y69110D01*
X60397Y68110D01*
X59397Y69110D01*
Y71109D01*
X55398Y68110D02*
Y70110D01*
X54899D01*
X54399Y69610D01*
Y68110D01*
Y69610D01*
X53899Y70110D01*
X53399Y69610D01*
Y68110D01*
X51899Y70110D02*
X50900D01*
X50400Y69610D01*
Y68110D01*
X51899D01*
X52399Y68610D01*
X51899Y69110D01*
X50400D01*
X49400Y70110D02*
X47401Y68110D01*
X48401Y69110D01*
X47401Y70110D01*
X49400Y68110D01*
X55118Y95558D02*
Y92559D01*
X53119D01*
X50120Y95558D02*
X52119D01*
Y92559D01*
X50120D01*
X52119Y94059D02*
X51119D01*
X49120Y95558D02*
Y92559D01*
X47620D01*
X47121Y93059D01*
Y95058D01*
X47620Y95558D01*
X49120D01*
X43122Y91559D02*
Y94558D01*
X41622D01*
X41123Y94059D01*
Y93059D01*
X41622Y92559D01*
X43122D01*
X39623D02*
X38623D01*
X38124Y93059D01*
Y94059D01*
X38623Y94558D01*
X39623D01*
X40123Y94059D01*
Y93059D01*
X39623Y92559D01*
X37124Y94558D02*
Y93059D01*
X36624Y92559D01*
X36124Y93059D01*
X35624Y92559D01*
X35125Y93059D01*
Y94558D01*
X32625Y92559D02*
X33625D01*
X34125Y93059D01*
Y94059D01*
X33625Y94558D01*
X32625D01*
X32125Y94059D01*
Y93559D01*
X34125D01*
X31126Y94558D02*
Y92559D01*
Y93559D01*
X30626Y94059D01*
X30126Y94558D01*
X29626D01*
X19822Y150818D02*
X20322Y150318D01*
Y149319D01*
X19822Y148819D01*
X17823D01*
X17323Y149319D01*
Y150318D01*
X17823Y150818D01*
X20322Y153817D02*
Y151818D01*
X18822D01*
X19322Y152818D01*
Y153317D01*
X18822Y153817D01*
X17823D01*
X17323Y153317D01*
Y152318D01*
X17823Y151818D01*
X19822Y159480D02*
X20322Y158980D01*
Y157980D01*
X19822Y157480D01*
X17823D01*
X17323Y157980D01*
Y158980D01*
X17823Y159480D01*
X17323Y162479D02*
Y160479D01*
X19322Y162479D01*
X19822D01*
X20322Y161979D01*
Y160979D01*
X19822Y160479D01*
X76121Y124322D02*
X76621Y123822D01*
Y122823D01*
X76121Y122323D01*
X74122D01*
X73622Y122823D01*
Y123822D01*
X74122Y124322D01*
X76621Y125322D02*
X73622D01*
Y127321D01*
X76621Y128321D02*
X73622D01*
X74622D01*
X76621Y130320D01*
X75122Y128821D01*
X73622Y130320D01*
X63622Y122323D02*
X66621D01*
X65621Y123322D01*
X66621Y124322D01*
X63622D01*
Y125822D02*
Y126821D01*
X64122Y127321D01*
X65122D01*
X65621Y126821D01*
Y125822D01*
X65122Y125322D01*
X64122D01*
X63622Y125822D01*
X66121Y130320D02*
X66621Y129820D01*
Y128821D01*
X66121Y128321D01*
X65621D01*
X65122Y128821D01*
Y129820D01*
X64622Y130320D01*
X64122D01*
X63622Y129820D01*
Y128821D01*
X64122Y128321D01*
X63622Y131320D02*
Y132320D01*
Y131820D01*
X65621D01*
Y131320D01*
X56621Y122323D02*
X53622D01*
Y123822D01*
X54122Y124322D01*
X56121D01*
X56621Y123822D01*
Y122323D01*
X56121Y125322D02*
X56621Y125822D01*
Y126821D01*
X56121Y127321D01*
X55621D01*
X55122Y126821D01*
Y126321D01*
Y126821D01*
X54622Y127321D01*
X54122D01*
X53622Y126821D01*
Y125822D01*
X54122Y125322D01*
X56621Y131320D02*
X53622D01*
Y132819D01*
X54122Y133319D01*
X56121D01*
X56621Y132819D01*
Y131320D01*
X53622Y134319D02*
Y135319D01*
Y134819D01*
X56621D01*
X56121Y134319D01*
Y136818D02*
X56621Y137318D01*
Y138318D01*
X56121Y138818D01*
X54122D01*
X53622Y138318D01*
Y137318D01*
X54122Y136818D01*
X56121D01*
X46621Y122323D02*
X43622D01*
Y123822D01*
X44122Y124322D01*
X46121D01*
X46621Y123822D01*
Y122323D01*
X43622Y127321D02*
Y125322D01*
X45621Y127321D01*
X46121D01*
X46621Y126821D01*
Y125822D01*
X46121Y125322D01*
Y133319D02*
X46621Y132819D01*
Y131820D01*
X46121Y131320D01*
X44122D01*
X43622Y131820D01*
Y132819D01*
X44122Y133319D01*
X45122D01*
Y132320D01*
X44122Y134319D02*
X43622Y134819D01*
Y135819D01*
X44122Y136318D01*
X46121D01*
X46621Y135819D01*
Y134819D01*
X46121Y134319D01*
X45621D01*
X45122Y134819D01*
Y136318D01*
X33622Y122323D02*
X36621D01*
X35621Y123322D01*
X36621Y124322D01*
X33622D01*
Y125322D02*
Y126321D01*
Y125822D01*
X35621D01*
Y125322D01*
X36121Y129820D02*
X36621Y129321D01*
Y128321D01*
X36121Y127821D01*
X35621D01*
X35122Y128321D01*
Y129321D01*
X34622Y129820D01*
X34122D01*
X33622Y129321D01*
Y128321D01*
X34122Y127821D01*
X33622Y131320D02*
Y132320D01*
X34122Y132819D01*
X35122D01*
X35621Y132320D01*
Y131320D01*
X35122Y130820D01*
X34122D01*
X33622Y131320D01*
X26121Y124322D02*
X26621Y123822D01*
Y122823D01*
X26121Y122323D01*
X24122D01*
X23622Y122823D01*
Y123822D01*
X24122Y124322D01*
X26121Y127321D02*
X26621Y126821D01*
Y125822D01*
X26121Y125322D01*
X25621D01*
X25122Y125822D01*
Y126821D01*
X24622Y127321D01*
X24122D01*
X23622Y126821D01*
Y125822D01*
X24122Y125322D01*
X26121Y128321D02*
X26621Y128821D01*
Y129820D01*
X26121Y130320D01*
X24122D01*
X23622Y129820D01*
Y128821D01*
X24122Y128321D01*
X26121D01*
X59055Y76732D02*
Y79731D01*
X57056Y76732D01*
Y79731D01*
X54057D02*
X56056D01*
Y76732D01*
X54057D01*
X56056Y78232D02*
X55056D01*
X53057Y79731D02*
Y77732D01*
X52057Y76732D01*
X51058Y77732D01*
Y79731D01*
X48059D02*
X50058D01*
Y76732D01*
X48059D01*
X50058Y78232D02*
X49058D01*
X47059Y76732D02*
Y79731D01*
X45559D01*
X45060Y79232D01*
Y78232D01*
X45559Y77732D01*
X47059D01*
X46059D02*
X45060Y76732D01*
X41061Y79731D02*
Y76732D01*
X39561D01*
X39062Y77232D01*
Y77732D01*
X39561Y78232D01*
X41061D01*
X39561D01*
X39062Y78732D01*
Y79232D01*
X39561Y79731D01*
X41061D01*
X36562D02*
X37562D01*
X38062Y79232D01*
Y77232D01*
X37562Y76732D01*
X36562D01*
X36062Y77232D01*
Y79232D01*
X36562Y79731D01*
X35063D02*
X33064D01*
X34063D01*
Y76732D01*
X32064Y79731D02*
Y76732D01*
Y78232D01*
X30064D01*
Y79731D01*
Y76732D01*
X47093Y144488D02*
X44094D01*
Y146487D01*
X47093Y147487D02*
X44094D01*
Y148987D01*
X44594Y149487D01*
X46594D01*
X47093Y148987D01*
Y147487D01*
Y151986D02*
Y150986D01*
X46594Y150486D01*
X44594D01*
X44094Y150986D01*
Y151986D01*
X44594Y152486D01*
X46594D01*
X47093Y151986D01*
X81890Y99606D02*
X84889D01*
Y101106D01*
X84389Y101606D01*
X83389D01*
X82889Y101106D01*
Y99606D01*
Y100606D02*
X81890Y101606D01*
X84889Y104605D02*
X84389Y103605D01*
X83389Y102605D01*
X82390D01*
X81890Y103105D01*
Y104105D01*
X82390Y104605D01*
X82889D01*
X83389Y104105D01*
Y102605D01*
X56662Y101318D02*
X57162Y101818D01*
X58162D01*
X58661Y101318D01*
Y99319D01*
X58162Y98819D01*
X57162D01*
X56662Y99319D01*
Y100318D01*
X57662D01*
X55662Y98819D02*
Y100818D01*
X54163D01*
X53663Y100318D01*
Y98819D01*
X50664Y101818D02*
Y98819D01*
X52163D01*
X52663Y99319D01*
Y100318D01*
X52163Y100818D01*
X50664D01*
X46665Y98819D02*
Y101818D01*
X45166D01*
X44666Y101318D01*
Y100318D01*
X45166Y99819D01*
X46665D01*
X45666D02*
X44666Y98819D01*
X43666Y100818D02*
X41667Y98819D01*
X42667Y99819D01*
X41667Y100818D01*
X43666Y98819D01*
X37668Y101818D02*
X35669D01*
X36669D01*
Y98819D01*
X34669Y100818D02*
X32670Y98819D01*
X33669Y99819D01*
X32670Y100818D01*
X34669Y98819D01*
X28671Y101318D02*
X28171Y101818D01*
X27172D01*
X26672Y101318D01*
Y100818D01*
X27172Y100318D01*
X27671D01*
X27172D01*
X26672Y99819D01*
Y99319D01*
X27172Y98819D01*
X28171D01*
X28671Y99319D01*
X25672Y100818D02*
X24672Y98819D01*
X23673Y100818D01*
X22673Y101318D02*
X22173Y101818D01*
X21173D01*
X20674Y101318D01*
Y100818D01*
X21173Y100318D01*
X21673D01*
X21173D01*
X20674Y99819D01*
Y99319D01*
X21173Y98819D01*
X22173D01*
X22673Y99319D01*
X74803Y152362D02*
X77802D01*
Y153862D01*
X77302Y154362D01*
X76303D01*
X75803Y153862D01*
Y152362D01*
Y153362D02*
X74803Y154362D01*
Y155361D02*
Y156361D01*
Y155861D01*
X77802D01*
X77302Y155361D01*
X74803Y144095D02*
X77802D01*
Y145594D01*
X77302Y146094D01*
X76303D01*
X75803Y145594D01*
Y144095D01*
Y145094D02*
X74803Y146094D01*
Y149093D02*
Y147093D01*
X76802Y149093D01*
X77302D01*
X77802Y148593D01*
Y147593D01*
X77302Y147093D01*
X79528Y142126D02*
X82527D01*
Y143625D01*
X82027Y144125D01*
X81027D01*
X80527Y143625D01*
Y142126D01*
Y143126D02*
X79528Y144125D01*
X82527Y147124D02*
Y145125D01*
X81027D01*
X81527Y146125D01*
Y146625D01*
X81027Y147124D01*
X80027D01*
X79528Y146625D01*
Y145625D01*
X80027Y145125D01*
X47775Y177590D02*
X48275Y177090D01*
Y176090D01*
X47775Y175591D01*
X45775D01*
X45276Y176090D01*
Y177090D01*
X45775Y177590D01*
X46775D01*
Y176590D01*
X45276Y178590D02*
Y179589D01*
Y179089D01*
X48275D01*
X47775Y178590D01*
X48275Y183088D02*
X47775Y182088D01*
X46775Y181089D01*
X45775D01*
X45276Y181589D01*
Y182588D01*
X45775Y183088D01*
X46275D01*
X46775Y182588D01*
Y181089D01*
Y184088D02*
Y186087D01*
X45276Y187087D02*
X48275D01*
Y188586D01*
X47775Y189086D01*
X46775D01*
X46275Y188586D01*
Y187087D01*
Y188086D02*
X45276Y189086D01*
X47775Y192085D02*
X48275Y191585D01*
Y190586D01*
X47775Y190086D01*
X47275D01*
X46775Y190586D01*
Y191585D01*
X46275Y192085D01*
X45775D01*
X45276Y191585D01*
Y190586D01*
X45775Y190086D01*
X48275Y193085D02*
Y195084D01*
Y194085D01*
X45276D01*
X33071Y179921D02*
X36070D01*
Y181421D01*
X35570Y181921D01*
X34570D01*
X34071Y181421D01*
Y179921D01*
Y180921D02*
X33071Y181921D01*
Y184420D02*
X36070D01*
X34570Y182920D01*
Y184920D01*
X33465Y171260D02*
X36464D01*
Y172759D01*
X35964Y173259D01*
X34964D01*
X34464Y172759D01*
Y171260D01*
Y172259D02*
X33465Y173259D01*
X35964Y174259D02*
X36464Y174759D01*
Y175758D01*
X35964Y176258D01*
X35464D01*
X34964Y175758D01*
Y175259D01*
Y175758D01*
X34464Y176258D01*
X33964D01*
X33465Y175758D01*
Y174759D01*
X33964Y174259D01*
X35570Y189795D02*
X36070Y189295D01*
Y188295D01*
X35570Y187795D01*
X33571D01*
X33071Y188295D01*
Y189295D01*
X33571Y189795D01*
X33071Y190794D02*
Y191794D01*
Y191294D01*
X36070D01*
X35570Y190794D01*
X122480Y51732D02*
Y66732D01*
X132480Y51732D02*
Y66929D01*
X142480Y51732D02*
Y66732D01*
X162480Y51732D02*
Y66929D01*
X172480Y51732D02*
Y66732D01*
X182480Y31732D02*
X196850D01*
X182480Y0D02*
Y66929D01*
X112480Y51732D02*
X182480D01*
X112283Y66929D02*
X112480Y66732D01*
Y0D02*
Y66732D01*
X98425Y66929D02*
X196850D01*
X135402Y71149D02*
X137402D01*
Y68150D01*
X135402D01*
X137402Y69649D02*
X136402D01*
X132403Y70649D02*
X132903Y71149D01*
X133903D01*
X134403Y70649D01*
Y70149D01*
X133903Y69649D01*
X132903D01*
X132403Y69149D01*
Y68649D01*
X132903Y68150D01*
X133903D01*
X134403Y68649D01*
X131404Y68150D02*
Y71149D01*
X129904D01*
X129404Y70649D01*
Y69649D01*
X129904Y69149D01*
X131404D01*
X128404Y69649D02*
X126405D01*
X125405Y68150D02*
X124406D01*
X124906D01*
Y71149D01*
X125405Y70649D01*
X120907Y68150D02*
X122906D01*
X120907Y70149D01*
Y70649D01*
X121407Y71149D01*
X122406D01*
X122906Y70649D01*
X117908Y71149D02*
X119907D01*
Y68150D01*
X117908D01*
X119907Y69649D02*
X118907D01*
X113909Y70149D02*
Y68150D01*
Y69149D01*
X113409Y69649D01*
X112909Y70149D01*
X112410D01*
X109411Y68150D02*
X110410D01*
X110910Y68649D01*
Y69649D01*
X110410Y70149D01*
X109411D01*
X108911Y69649D01*
Y69149D01*
X110910D01*
X107911Y70149D02*
X106911Y68150D01*
X105912Y70149D01*
X99914Y68150D02*
X101913D01*
X99914Y70149D01*
Y70649D01*
X100414Y71149D01*
X101413D01*
X101913Y70649D01*
X108631Y64350D02*
X109130Y64849D01*
X110130D01*
X110630Y64350D01*
Y62350D01*
X110130Y61850D01*
X109130D01*
X108631Y62350D01*
Y63350D01*
X109630D01*
X107631Y61850D02*
Y64849D01*
X105631Y61850D01*
Y64849D01*
X104632D02*
Y61850D01*
X103132D01*
X102632Y62350D01*
Y64350D01*
X103132Y64849D01*
X104632D01*
X118867Y64350D02*
X119367Y64849D01*
X120366D01*
X120866Y64350D01*
Y62350D01*
X120366Y61850D01*
X119367D01*
X118867Y62350D01*
Y63350D01*
X119867D01*
X117867Y61850D02*
X116867D01*
X117367D01*
Y64849D01*
X117867Y64350D01*
X113868Y61850D02*
Y64849D01*
X115368Y63350D01*
X113369D01*
X190520Y64849D02*
X192520D01*
Y63350D01*
X191520Y63850D01*
X191020D01*
X190520Y63350D01*
Y62350D01*
X191020Y61850D01*
X192020D01*
X192520Y62350D01*
X189521Y63850D02*
X188521Y61850D01*
X187521Y63850D01*
X168079Y64350D02*
X168579Y64849D01*
X169579D01*
X170079Y64350D01*
Y62350D01*
X169579Y61850D01*
X168579D01*
X168079Y62350D01*
Y63350D01*
X169079D01*
X165580Y61850D02*
Y64849D01*
X167080Y63350D01*
X165080D01*
X177922Y64350D02*
X178422Y64849D01*
X179421D01*
X179921Y64350D01*
Y62350D01*
X179421Y61850D01*
X178422D01*
X177922Y62350D01*
Y63350D01*
X178922D01*
X174923Y64849D02*
X176922D01*
Y63350D01*
X175923Y63850D01*
X175423D01*
X174923Y63350D01*
Y62350D01*
X175423Y61850D01*
X176422D01*
X176922Y62350D01*
X129103Y64350D02*
X129603Y64849D01*
X130603D01*
X131102Y64350D01*
Y62350D01*
X130603Y61850D01*
X129603D01*
X129103Y62350D01*
Y63350D01*
X130103D01*
X128103Y61850D02*
X127104D01*
X127603D01*
Y64849D01*
X128103Y64350D01*
X125604D02*
X125104Y64849D01*
X124105D01*
X123605Y64350D01*
Y63850D01*
X124105Y63350D01*
X124604D01*
X124105D01*
X123605Y62850D01*
Y62350D01*
X124105Y61850D01*
X125104D01*
X125604Y62350D01*
X138945Y64350D02*
X139445Y64849D01*
X140445D01*
X140945Y64350D01*
Y62350D01*
X140445Y61850D01*
X139445D01*
X138945Y62350D01*
Y63350D01*
X139945D01*
X137946Y61850D02*
X136946D01*
X137446D01*
Y64849D01*
X137946Y64350D01*
X133447Y61850D02*
X135447D01*
X133447Y63850D01*
Y64350D01*
X133947Y64849D01*
X134947D01*
X135447Y64350D01*
X156299D02*
X155799Y64849D01*
X154800D01*
X154300Y64350D01*
Y63850D01*
X154800Y63350D01*
X155299D01*
X154800D01*
X154300Y62850D01*
Y62350D01*
X154800Y61850D01*
X155799D01*
X156299Y62350D01*
X153300Y63850D02*
X152301Y61850D01*
X151301Y63850D01*
X150301Y64350D02*
X149801Y64849D01*
X148802D01*
X148302Y64350D01*
Y63850D01*
X148802Y63350D01*
X149302D01*
X148802D01*
X148302Y62850D01*
Y62350D01*
X148802Y61850D01*
X149801D01*
X150301Y62350D01*
X194231Y12638D02*
X194731Y13138D01*
Y14137D01*
X194231Y14637D01*
X193732D01*
X193232Y14137D01*
Y13637D01*
Y14137D01*
X192732Y14637D01*
X192232D01*
X191732Y14137D01*
Y13138D01*
X192232Y12638D01*
X193732Y15637D02*
X191732Y16636D01*
X193732Y17636D01*
X194231Y18636D02*
X194731Y19136D01*
Y20135D01*
X194231Y20635D01*
X193732D01*
X193232Y20135D01*
Y19636D01*
Y20135D01*
X192732Y20635D01*
X192232D01*
X191732Y20135D01*
Y19136D01*
X192232Y18636D01*
X155512Y90334D02*
X155012Y90834D01*
X154012D01*
X153512Y90334D01*
Y89834D01*
X154012Y89334D01*
X154512D01*
X154012D01*
X153512Y88834D01*
Y88335D01*
X154012Y87835D01*
X155012D01*
X155512Y88335D01*
X152513Y89834D02*
X151513Y87835D01*
X150513Y89834D01*
X149514Y90334D02*
X149014Y90834D01*
X148014D01*
X147514Y90334D01*
Y89834D01*
X148014Y89334D01*
X148514D01*
X148014D01*
X147514Y88834D01*
Y88335D01*
X148014Y87835D01*
X149014D01*
X149514Y88335D01*
X142016Y90834D02*
X143016D01*
X143516Y90334D01*
Y88335D01*
X143016Y87835D01*
X142016D01*
X141516Y88335D01*
Y90334D01*
X142016Y90834D01*
X140517Y87835D02*
Y90834D01*
X139017D01*
X138517Y90334D01*
Y89334D01*
X139017Y88834D01*
X140517D01*
X139517D02*
X138517Y87835D01*
X132519Y90834D02*
X134519D01*
Y89334D01*
X133519Y89834D01*
X133019D01*
X132519Y89334D01*
Y88335D01*
X133019Y87835D01*
X134019D01*
X134519Y88335D01*
X131520Y89834D02*
X130520Y87835D01*
X129520Y89834D01*
X180315Y68110D02*
Y70110D01*
X179315Y71109D01*
X178316Y70110D01*
Y68110D01*
Y69610D01*
X180315D01*
X177316Y71109D02*
Y68110D01*
X175816D01*
X175317Y68610D01*
Y70609D01*
X175816Y71109D01*
X177316D01*
X172318Y70609D02*
X172817Y71109D01*
X173817D01*
X174317Y70609D01*
Y68610D01*
X173817Y68110D01*
X172817D01*
X172318Y68610D01*
X168319Y69110D02*
X166320D01*
X168319Y70110D02*
X166320D01*
X162321Y68110D02*
X161321D01*
X161821D01*
Y71109D01*
X162321Y70609D01*
X159822Y71109D02*
Y69110D01*
X158822Y68110D01*
X157822Y69110D01*
Y71109D01*
X153823Y68110D02*
Y70110D01*
X153324D01*
X152824Y69610D01*
Y68110D01*
Y69610D01*
X152324Y70110D01*
X151824Y69610D01*
Y68110D01*
X150325Y70110D02*
X149325D01*
X148825Y69610D01*
Y68110D01*
X150325D01*
X150824Y68610D01*
X150325Y69110D01*
X148825D01*
X147826Y70110D02*
X145826Y68110D01*
X146826Y69110D01*
X145826Y70110D01*
X147826Y68110D01*
X153543Y95558D02*
Y92559D01*
X151544D01*
X148545Y95558D02*
X150544D01*
Y92559D01*
X148545D01*
X150544Y94059D02*
X149545D01*
X147545Y95558D02*
Y92559D01*
X146046D01*
X145546Y93059D01*
Y95058D01*
X146046Y95558D01*
X147545D01*
X141547Y91559D02*
Y94558D01*
X140048D01*
X139548Y94059D01*
Y93059D01*
X140048Y92559D01*
X141547D01*
X138048D02*
X137049D01*
X136549Y93059D01*
Y94059D01*
X137049Y94558D01*
X138048D01*
X138548Y94059D01*
Y93059D01*
X138048Y92559D01*
X135549Y94558D02*
Y93059D01*
X135049Y92559D01*
X134549Y93059D01*
X134050Y92559D01*
X133550Y93059D01*
Y94558D01*
X131051Y92559D02*
X132050D01*
X132550Y93059D01*
Y94059D01*
X132050Y94558D01*
X131051D01*
X130551Y94059D01*
Y93559D01*
X132550D01*
X129551Y94558D02*
Y92559D01*
Y93559D01*
X129051Y94059D01*
X128551Y94558D01*
X128051D01*
X118247Y150818D02*
X118747Y150318D01*
Y149319D01*
X118247Y148819D01*
X116248D01*
X115748Y149319D01*
Y150318D01*
X116248Y150818D01*
X118747Y153817D02*
Y151818D01*
X117248D01*
X117747Y152818D01*
Y153317D01*
X117248Y153817D01*
X116248D01*
X115748Y153317D01*
Y152318D01*
X116248Y151818D01*
X118247Y159480D02*
X118747Y158980D01*
Y157980D01*
X118247Y157480D01*
X116248D01*
X115748Y157980D01*
Y158980D01*
X116248Y159480D01*
X115748Y162479D02*
Y160479D01*
X117747Y162479D01*
X118247D01*
X118747Y161979D01*
Y160979D01*
X118247Y160479D01*
X174546Y124322D02*
X175046Y123822D01*
Y122823D01*
X174546Y122323D01*
X172547D01*
X172047Y122823D01*
Y123822D01*
X172547Y124322D01*
X175046Y125322D02*
X172047D01*
Y127321D01*
X175046Y128321D02*
X172047D01*
X173047D01*
X175046Y130320D01*
X173547Y128821D01*
X172047Y130320D01*
X162047Y122323D02*
X165046D01*
X164047Y123322D01*
X165046Y124322D01*
X162047D01*
Y125822D02*
Y126821D01*
X162547Y127321D01*
X163547D01*
X164047Y126821D01*
Y125822D01*
X163547Y125322D01*
X162547D01*
X162047Y125822D01*
X164546Y130320D02*
X165046Y129820D01*
Y128821D01*
X164546Y128321D01*
X164047D01*
X163547Y128821D01*
Y129820D01*
X163047Y130320D01*
X162547D01*
X162047Y129820D01*
Y128821D01*
X162547Y128321D01*
X162047Y131320D02*
Y132320D01*
Y131820D01*
X164047D01*
Y131320D01*
X155046Y122323D02*
X152047D01*
Y123822D01*
X152547Y124322D01*
X154546D01*
X155046Y123822D01*
Y122323D01*
X154546Y125322D02*
X155046Y125822D01*
Y126821D01*
X154546Y127321D01*
X154047D01*
X153547Y126821D01*
Y126321D01*
Y126821D01*
X153047Y127321D01*
X152547D01*
X152047Y126821D01*
Y125822D01*
X152547Y125322D01*
X155046Y131320D02*
X152047D01*
Y132819D01*
X152547Y133319D01*
X154546D01*
X155046Y132819D01*
Y131320D01*
X152047Y134319D02*
Y135319D01*
Y134819D01*
X155046D01*
X154546Y134319D01*
Y136818D02*
X155046Y137318D01*
Y138318D01*
X154546Y138818D01*
X152547D01*
X152047Y138318D01*
Y137318D01*
X152547Y136818D01*
X154546D01*
X145046Y122323D02*
X142047D01*
Y123822D01*
X142547Y124322D01*
X144546D01*
X145046Y123822D01*
Y122323D01*
X142047Y127321D02*
Y125322D01*
X144047Y127321D01*
X144546D01*
X145046Y126821D01*
Y125822D01*
X144546Y125322D01*
Y133319D02*
X145046Y132819D01*
Y131820D01*
X144546Y131320D01*
X142547D01*
X142047Y131820D01*
Y132819D01*
X142547Y133319D01*
X143547D01*
Y132320D01*
X142547Y134319D02*
X142047Y134819D01*
Y135819D01*
X142547Y136318D01*
X144546D01*
X145046Y135819D01*
Y134819D01*
X144546Y134319D01*
X144047D01*
X143547Y134819D01*
Y136318D01*
X132047Y122323D02*
X135046D01*
X134047Y123322D01*
X135046Y124322D01*
X132047D01*
Y125322D02*
Y126321D01*
Y125822D01*
X134047D01*
Y125322D01*
X134546Y129820D02*
X135046Y129321D01*
Y128321D01*
X134546Y127821D01*
X134047D01*
X133547Y128321D01*
Y129321D01*
X133047Y129820D01*
X132547D01*
X132047Y129321D01*
Y128321D01*
X132547Y127821D01*
X132047Y131320D02*
Y132320D01*
X132547Y132819D01*
X133547D01*
X134047Y132320D01*
Y131320D01*
X133547Y130820D01*
X132547D01*
X132047Y131320D01*
X124546Y124322D02*
X125046Y123822D01*
Y122823D01*
X124546Y122323D01*
X122547D01*
X122047Y122823D01*
Y123822D01*
X122547Y124322D01*
X124546Y127321D02*
X125046Y126821D01*
Y125822D01*
X124546Y125322D01*
X124047D01*
X123547Y125822D01*
Y126821D01*
X123047Y127321D01*
X122547D01*
X122047Y126821D01*
Y125822D01*
X122547Y125322D01*
X124546Y128321D02*
X125046Y128821D01*
Y129820D01*
X124546Y130320D01*
X122547D01*
X122047Y129820D01*
Y128821D01*
X122547Y128321D01*
X124546D01*
X157480Y76732D02*
Y79731D01*
X155481Y76732D01*
Y79731D01*
X152482D02*
X154481D01*
Y76732D01*
X152482D01*
X154481Y78232D02*
X153482D01*
X151482Y79731D02*
Y77732D01*
X150483Y76732D01*
X149483Y77732D01*
Y79731D01*
X146484D02*
X148483D01*
Y76732D01*
X146484D01*
X148483Y78232D02*
X147484D01*
X145484Y76732D02*
Y79731D01*
X143985D01*
X143485Y79232D01*
Y78232D01*
X143985Y77732D01*
X145484D01*
X144484D02*
X143485Y76732D01*
X139486Y79731D02*
Y76732D01*
X137987D01*
X137487Y77232D01*
Y77732D01*
X137987Y78232D01*
X139486D01*
X137987D01*
X137487Y78732D01*
Y79232D01*
X137987Y79731D01*
X139486D01*
X134988D02*
X135987D01*
X136487Y79232D01*
Y77232D01*
X135987Y76732D01*
X134988D01*
X134488Y77232D01*
Y79232D01*
X134988Y79731D01*
X133488D02*
X131489D01*
X132488D01*
Y76732D01*
X130489Y79731D02*
Y76732D01*
Y78232D01*
X128490D01*
Y79731D01*
Y76732D01*
X145519Y144488D02*
X142520D01*
Y146487D01*
X145519Y147487D02*
X142520D01*
Y148987D01*
X143019Y149487D01*
X145019D01*
X145519Y148987D01*
Y147487D01*
Y151986D02*
Y150986D01*
X145019Y150486D01*
X143019D01*
X142520Y150986D01*
Y151986D01*
X143019Y152486D01*
X145019D01*
X145519Y151986D01*
X180315Y99606D02*
X183314D01*
Y101106D01*
X182814Y101606D01*
X181815D01*
X181315Y101106D01*
Y99606D01*
Y100606D02*
X180315Y101606D01*
X183314Y104605D02*
X182814Y103605D01*
X181815Y102605D01*
X180815D01*
X180315Y103105D01*
Y104105D01*
X180815Y104605D01*
X181315D01*
X181815Y104105D01*
Y102605D01*
X155087Y101318D02*
X155587Y101818D01*
X156587D01*
X157087Y101318D01*
Y99319D01*
X156587Y98819D01*
X155587D01*
X155087Y99319D01*
Y100318D01*
X156087D01*
X154088Y98819D02*
Y100818D01*
X152588D01*
X152088Y100318D01*
Y98819D01*
X149089Y101818D02*
Y98819D01*
X150589D01*
X151089Y99319D01*
Y100318D01*
X150589Y100818D01*
X149089D01*
X145090Y98819D02*
Y101818D01*
X143591D01*
X143091Y101318D01*
Y100318D01*
X143591Y99819D01*
X145090D01*
X144091D02*
X143091Y98819D01*
X142092Y100818D02*
X140092Y98819D01*
X141092Y99819D01*
X140092Y100818D01*
X142092Y98819D01*
X136093Y101818D02*
X134094D01*
X135094D01*
Y98819D01*
X133094Y100818D02*
X131095Y98819D01*
X132095Y99819D01*
X131095Y100818D01*
X133094Y98819D01*
X127096Y101318D02*
X126596Y101818D01*
X125597D01*
X125097Y101318D01*
Y100818D01*
X125597Y100318D01*
X126097D01*
X125597D01*
X125097Y99819D01*
Y99319D01*
X125597Y98819D01*
X126596D01*
X127096Y99319D01*
X124097Y100818D02*
X123098Y98819D01*
X122098Y100818D01*
X121098Y101318D02*
X120598Y101818D01*
X119599D01*
X119099Y101318D01*
Y100818D01*
X119599Y100318D01*
X120099D01*
X119599D01*
X119099Y99819D01*
Y99319D01*
X119599Y98819D01*
X120598D01*
X121098Y99319D01*
X173228Y152362D02*
X176227D01*
Y153862D01*
X175727Y154362D01*
X174728D01*
X174228Y153862D01*
Y152362D01*
Y153362D02*
X173228Y154362D01*
Y155361D02*
Y156361D01*
Y155861D01*
X176227D01*
X175727Y155361D01*
X173228Y144095D02*
X176227D01*
Y145594D01*
X175727Y146094D01*
X174728D01*
X174228Y145594D01*
Y144095D01*
Y145094D02*
X173228Y146094D01*
Y149093D02*
Y147093D01*
X175228Y149093D01*
X175727D01*
X176227Y148593D01*
Y147593D01*
X175727Y147093D01*
X177953Y142126D02*
X180952D01*
Y143625D01*
X180452Y144125D01*
X179452D01*
X178952Y143625D01*
Y142126D01*
Y143126D02*
X177953Y144125D01*
X180952Y147124D02*
Y145125D01*
X179452D01*
X179952Y146125D01*
Y146625D01*
X179452Y147124D01*
X178453D01*
X177953Y146625D01*
Y145625D01*
X178453Y145125D01*
X146200Y177590D02*
X146700Y177090D01*
Y176090D01*
X146200Y175591D01*
X144201D01*
X143701Y176090D01*
Y177090D01*
X144201Y177590D01*
X145200D01*
Y176590D01*
X143701Y178590D02*
Y179589D01*
Y179089D01*
X146700D01*
X146200Y178590D01*
X146700Y183088D02*
X146200Y182088D01*
X145200Y181089D01*
X144201D01*
X143701Y181589D01*
Y182588D01*
X144201Y183088D01*
X144701D01*
X145200Y182588D01*
Y181089D01*
Y184088D02*
Y186087D01*
X143701Y187087D02*
X146700D01*
Y188586D01*
X146200Y189086D01*
X145200D01*
X144701Y188586D01*
Y187087D01*
Y188086D02*
X143701Y189086D01*
X146200Y192085D02*
X146700Y191585D01*
Y190586D01*
X146200Y190086D01*
X145700D01*
X145200Y190586D01*
Y191585D01*
X144701Y192085D01*
X144201D01*
X143701Y191585D01*
Y190586D01*
X144201Y190086D01*
X146700Y193085D02*
Y195084D01*
Y194085D01*
X143701D01*
X131496Y179921D02*
X134495D01*
Y181421D01*
X133995Y181921D01*
X132996D01*
X132496Y181421D01*
Y179921D01*
Y180921D02*
X131496Y181921D01*
Y184420D02*
X134495D01*
X132996Y182920D01*
Y184920D01*
X131890Y171260D02*
X134889D01*
Y172759D01*
X134389Y173259D01*
X133389D01*
X132889Y172759D01*
Y171260D01*
Y172259D02*
X131890Y173259D01*
X134389Y174259D02*
X134889Y174759D01*
Y175758D01*
X134389Y176258D01*
X133889D01*
X133389Y175758D01*
Y175259D01*
Y175758D01*
X132889Y176258D01*
X132390D01*
X131890Y175758D01*
Y174759D01*
X132390Y174259D01*
X133995Y189795D02*
X134495Y189295D01*
Y188295D01*
X133995Y187795D01*
X131996D01*
X131496Y188295D01*
Y189295D01*
X131996Y189795D01*
X131496Y190794D02*
Y191794D01*
Y191294D01*
X134495D01*
X133995Y190794D01*
D39*
X28150Y144882D02*
Y148031D01*
X22244Y144882D02*
Y148031D01*
X27559Y156102D02*
X30709D01*
X27559Y162008D02*
X30709D01*
X71260Y105709D02*
X74410D01*
X71260Y99803D02*
X74410D01*
X64173Y152559D02*
X67323D01*
X64173Y158465D02*
X67323D01*
X64173Y144291D02*
X67323D01*
X64173Y150197D02*
X67323D01*
X74016Y140354D02*
X77165D01*
X74016Y134449D02*
X77165D01*
X22835Y186024D02*
X25984D01*
X22835Y180118D02*
X25984D01*
X22835Y177362D02*
X25984D01*
X22835Y171457D02*
X25984D01*
X22835Y194291D02*
X25984D01*
X22835Y188386D02*
X25984D01*
X84055Y106732D02*
X94055D01*
Y196732D01*
X84055D02*
X94055D01*
X84055Y106732D02*
Y196732D01*
X4055Y106732D02*
X14055D01*
Y196732D01*
X4055D02*
X14055D01*
X4055Y106732D02*
Y196732D01*
X126575Y144882D02*
Y148031D01*
X120669Y144882D02*
Y148031D01*
X125984Y156102D02*
X129134D01*
X125984Y162008D02*
X129134D01*
X169685Y105709D02*
X172835D01*
X169685Y99803D02*
X172835D01*
X162598Y152559D02*
X165748D01*
X162598Y158465D02*
X165748D01*
X162598Y144291D02*
X165748D01*
X162598Y150197D02*
X165748D01*
X172441Y140354D02*
X175591D01*
X172441Y134449D02*
X175591D01*
X121260Y186024D02*
X124409D01*
X121260Y180118D02*
X124409D01*
X121260Y177362D02*
X124409D01*
X121260Y171457D02*
X124409D01*
X121260Y194291D02*
X124409D01*
X121260Y188386D02*
X124409D01*
X182480Y106732D02*
X192480D01*
Y196732D01*
X182480D02*
X192480D01*
X182480Y106732D02*
Y196732D01*
X102480Y106732D02*
X112480D01*
Y196732D01*
X102480D02*
X112480D01*
X102480Y106732D02*
Y196732D01*
M02*
