G04 Layer_Color=2752767*
%FSLAX23Y23*%
%MOIN*%
G70*
G01*
G75*
%ADD54C,0.002*%
%ADD55C,0.003*%
D54*
X1431Y1091D02*
Y1107D01*
X1447D01*
Y1091D01*
X1431D01*
X1531D02*
Y1107D01*
X1547D01*
Y1091D01*
X1531D01*
X1911Y1911D02*
Y1927D01*
X1927D01*
Y1911D01*
X1911D01*
Y1811D02*
Y1827D01*
X1927D01*
Y1811D01*
X1911D01*
Y1711D02*
Y1727D01*
X1927D01*
Y1711D01*
X1911D01*
Y1611D02*
Y1627D01*
X1927D01*
Y1611D01*
X1911D01*
Y1511D02*
Y1527D01*
X1927D01*
Y1511D01*
X1911D01*
Y1411D02*
Y1427D01*
X1927D01*
Y1411D01*
X1911D01*
Y1311D02*
Y1327D01*
X1927D01*
Y1311D01*
X1911D01*
Y1211D02*
Y1227D01*
X1927D01*
Y1211D01*
X1911D01*
Y1111D02*
Y1127D01*
X1927D01*
Y1111D01*
X1911D01*
Y1011D02*
Y1027D01*
X1927D01*
Y1011D01*
X1911D01*
Y911D02*
Y927D01*
X1927D01*
Y911D01*
X1911D01*
X1061Y1911D02*
Y1927D01*
X1077D01*
Y1911D01*
X1061D01*
Y1811D02*
Y1827D01*
X1077D01*
Y1811D01*
X1061D01*
Y1711D02*
Y1727D01*
X1077D01*
Y1711D01*
X1061D01*
Y1611D02*
Y1627D01*
X1077D01*
Y1611D01*
X1061D01*
Y1511D02*
Y1527D01*
X1077D01*
Y1511D01*
X1061D01*
Y1411D02*
Y1427D01*
X1077D01*
Y1411D01*
X1061D01*
Y1311D02*
Y1327D01*
X1077D01*
Y1311D01*
X1061D01*
Y1211D02*
Y1227D01*
X1077D01*
Y1211D01*
X1061D01*
Y1111D02*
Y1127D01*
X1077D01*
Y1111D01*
X1061D01*
Y1011D02*
Y1027D01*
X1077D01*
Y1011D01*
X1061D01*
Y911D02*
Y927D01*
X1077D01*
Y911D01*
X1061D01*
X1641D02*
Y927D01*
X1657D01*
Y911D01*
X1641D01*
X1541D02*
Y927D01*
X1557D01*
Y911D01*
X1541D01*
X1441D02*
Y927D01*
X1457D01*
Y911D01*
X1441D01*
X1341D02*
Y927D01*
X1357D01*
Y911D01*
X1341D01*
X412Y1091D02*
Y1107D01*
X428D01*
Y1091D01*
X412D01*
X512D02*
Y1107D01*
X528D01*
Y1091D01*
X512D01*
X892Y1911D02*
Y1927D01*
X908D01*
Y1911D01*
X892D01*
Y1811D02*
Y1827D01*
X908D01*
Y1811D01*
X892D01*
Y1711D02*
Y1727D01*
X908D01*
Y1711D01*
X892D01*
Y1611D02*
Y1627D01*
X908D01*
Y1611D01*
X892D01*
Y1511D02*
Y1527D01*
X908D01*
Y1511D01*
X892D01*
Y1411D02*
Y1427D01*
X908D01*
Y1411D01*
X892D01*
Y1311D02*
Y1327D01*
X908D01*
Y1311D01*
X892D01*
Y1211D02*
Y1227D01*
X908D01*
Y1211D01*
X892D01*
Y1111D02*
Y1127D01*
X908D01*
Y1111D01*
X892D01*
Y1011D02*
Y1027D01*
X908D01*
Y1011D01*
X892D01*
Y911D02*
Y927D01*
X908D01*
Y911D01*
X892D01*
X42Y1911D02*
Y1927D01*
X58D01*
Y1911D01*
X42D01*
Y1811D02*
Y1827D01*
X58D01*
Y1811D01*
X42D01*
Y1711D02*
Y1727D01*
X58D01*
Y1711D01*
X42D01*
Y1611D02*
Y1627D01*
X58D01*
Y1611D01*
X42D01*
Y1511D02*
Y1527D01*
X58D01*
Y1511D01*
X42D01*
Y1411D02*
Y1427D01*
X58D01*
Y1411D01*
X42D01*
Y1311D02*
Y1327D01*
X58D01*
Y1311D01*
X42D01*
Y1211D02*
Y1227D01*
X58D01*
Y1211D01*
X42D01*
Y1111D02*
Y1127D01*
X58D01*
Y1111D01*
X42D01*
Y1011D02*
Y1027D01*
X58D01*
Y1011D01*
X42D01*
Y911D02*
Y927D01*
X58D01*
Y911D01*
X42D01*
X622D02*
Y927D01*
X638D01*
Y911D01*
X622D01*
X522D02*
Y927D01*
X538D01*
Y911D01*
X522D01*
X422D02*
Y927D01*
X438D01*
Y911D01*
X422D01*
X322D02*
Y927D01*
X338D01*
Y911D01*
X322D01*
D55*
X1275Y1014D02*
G03*
X1275Y1014I-8J0D01*
G01*
X1780Y1254D02*
G03*
X1780Y1254I-8J0D01*
G01*
X1215Y1262D02*
G03*
X1215Y1262I-8J0D01*
G01*
X1327Y1719D02*
G03*
X1327Y1719I-8J0D01*
G01*
X1687D02*
G03*
X1687Y1719I-8J0D01*
G01*
X1497Y1389D02*
G03*
X1497Y1389I-8J0D01*
G01*
X1647Y1019D02*
G03*
X1647Y1019I-8J0D01*
G01*
X256Y1014D02*
G03*
X256Y1014I-8J0D01*
G01*
X761Y1254D02*
G03*
X761Y1254I-8J0D01*
G01*
X197Y1262D02*
G03*
X197Y1262I-8J0D01*
G01*
X308Y1719D02*
G03*
X308Y1719I-8J0D01*
G01*
X668D02*
G03*
X668Y1719I-8J0D01*
G01*
X478Y1389D02*
G03*
X478Y1389I-8J0D01*
G01*
X628Y1019D02*
G03*
X628Y1019I-8J0D01*
G01*
X1819Y197D02*
G03*
X1819Y197I-8J0D01*
G01*
X162D02*
G03*
X162Y197I-8J0D01*
G01*
X638Y335D02*
G03*
X638Y335I-8J0D01*
G01*
X874D02*
G03*
X874Y335I-8J0D01*
G01*
X1110D02*
G03*
X1110Y335I-8J0D01*
G01*
X1347D02*
G03*
X1347Y335I-8J0D01*
G01*
X1583D02*
G03*
X1583Y335I-8J0D01*
G01*
X1813Y346D02*
G03*
X1813Y346I-8J0D01*
G01*
X1815Y47D02*
G03*
X1815Y47I-8J0D01*
G01*
X1578Y54D02*
G03*
X1578Y54I-8J0D01*
G01*
X1342D02*
G03*
X1342Y54I-8J0D01*
G01*
X1105D02*
G03*
X1105Y54I-8J0D01*
G01*
X869D02*
G03*
X869Y54I-8J0D01*
G01*
X633D02*
G03*
X633Y54I-8J0D01*
G01*
X397D02*
G03*
X397Y54I-8J0D01*
G01*
X164Y48D02*
G03*
X164Y48I-8J0D01*
G01*
X402Y335D02*
G03*
X402Y335I-8J0D01*
G01*
X171Y345D02*
G03*
X171Y345I-8J0D01*
G01*
X1819Y630D02*
G03*
X1819Y630I-8J0D01*
G01*
X162D02*
G03*
X162Y630I-8J0D01*
G01*
X638Y768D02*
G03*
X638Y768I-8J0D01*
G01*
X874D02*
G03*
X874Y768I-8J0D01*
G01*
X1110D02*
G03*
X1110Y768I-8J0D01*
G01*
X1347D02*
G03*
X1347Y768I-8J0D01*
G01*
X1583D02*
G03*
X1583Y768I-8J0D01*
G01*
X1813Y780D02*
G03*
X1813Y780I-8J0D01*
G01*
X1815Y480D02*
G03*
X1815Y480I-8J0D01*
G01*
X1578Y487D02*
G03*
X1578Y487I-8J0D01*
G01*
X1342D02*
G03*
X1342Y487I-8J0D01*
G01*
X1105D02*
G03*
X1105Y487I-8J0D01*
G01*
X869D02*
G03*
X869Y487I-8J0D01*
G01*
X633D02*
G03*
X633Y487I-8J0D01*
G01*
X397D02*
G03*
X397Y487I-8J0D01*
G01*
X164Y481D02*
G03*
X164Y481I-8J0D01*
G01*
X402Y768D02*
G03*
X402Y768I-8J0D01*
G01*
X171Y779D02*
G03*
X171Y779I-8J0D01*
G01*
M02*
