G04 Layer_Color=65535*
%FSLAX23Y23*%
%MOIN*%
G70*
G01*
G75*
%ADD16C,0.010*%
%ADD32C,0.005*%
%ADD33C,0.001*%
%ADD34C,0.008*%
D16*
X0Y413D02*
X1969D01*
X0Y846D02*
X1969D01*
X984D02*
Y1969D01*
X1595Y992D02*
Y1205D01*
X1382Y1177D02*
X1410Y1205D01*
X1595D01*
X1382Y1020D02*
Y1177D01*
Y1020D02*
X1410Y992D01*
X1595D01*
X1148Y1203D02*
X1267D01*
Y888D02*
Y1203D01*
X1148Y888D02*
X1267D01*
X1148D02*
Y1203D01*
X1841Y888D02*
Y1203D01*
X1723D02*
X1841D01*
X1723Y888D02*
Y1203D01*
Y888D02*
X1841D01*
X1174Y1954D02*
Y2254D01*
Y1299D02*
Y1324D01*
Y1299D02*
X1254D01*
X1734D02*
X1814D01*
Y1329D01*
Y1954D02*
Y2254D01*
X1174D02*
X1814D01*
X1289Y989D02*
X1369D01*
X1413Y1628D02*
X1423Y1638D01*
X1443D01*
X1453Y1628D01*
Y1618D01*
X1443Y1608D01*
X1433D01*
X1443D01*
X1453Y1598D01*
Y1589D01*
X1443Y1579D01*
X1423D01*
X1413Y1589D01*
X1473Y1618D02*
X1493Y1579D01*
X1513Y1618D01*
X1533Y1628D02*
X1543Y1638D01*
X1563D01*
X1573Y1628D01*
Y1618D01*
X1563Y1608D01*
X1553D01*
X1563D01*
X1573Y1598D01*
Y1589D01*
X1563Y1579D01*
X1543D01*
X1533Y1589D01*
X1593Y1598D02*
Y1648D01*
Y1589D02*
Y1579D01*
X1438Y1684D02*
X1398D01*
X1438Y1724D01*
Y1734D01*
X1428Y1744D01*
X1408D01*
X1398Y1734D01*
X1458D02*
X1468Y1744D01*
X1488D01*
X1498Y1734D01*
Y1694D01*
X1488Y1684D01*
X1468D01*
X1458Y1694D01*
Y1734D01*
X1518Y1684D02*
X1538D01*
X1528D01*
Y1744D01*
X1518Y1734D01*
X1608Y1744D02*
X1588Y1734D01*
X1568Y1714D01*
Y1694D01*
X1578Y1684D01*
X1598D01*
X1608Y1694D01*
Y1704D01*
X1598Y1714D01*
X1568D01*
X1348Y1840D02*
X1308D01*
Y1780D01*
X1348D01*
X1308Y1810D02*
X1328D01*
X1408Y1830D02*
X1398Y1840D01*
X1378D01*
X1368Y1830D01*
Y1820D01*
X1378Y1810D01*
X1398D01*
X1408Y1800D01*
Y1790D01*
X1398Y1780D01*
X1378D01*
X1368Y1790D01*
X1428Y1780D02*
Y1840D01*
X1458D01*
X1468Y1830D01*
Y1810D01*
X1458Y1800D01*
X1428D01*
X1488Y1810D02*
X1528D01*
X1548Y1780D02*
X1568D01*
X1558D01*
Y1840D01*
X1548Y1830D01*
X1638Y1780D02*
X1598D01*
X1638Y1820D01*
Y1830D01*
X1628Y1840D01*
X1608D01*
X1598Y1830D01*
X1698Y1840D02*
X1658D01*
Y1780D01*
X1698D01*
X1658Y1810D02*
X1678D01*
X1279Y1936D02*
Y1876D01*
X1308D01*
X1318Y1886D01*
Y1926D01*
X1308Y1936D01*
X1279D01*
X1338Y1916D02*
Y1876D01*
Y1896D01*
X1348Y1906D01*
X1358Y1916D01*
X1368D01*
X1398Y1876D02*
X1418D01*
X1408D01*
Y1916D01*
X1398D01*
X1478Y1876D02*
X1458D01*
X1448Y1886D01*
Y1906D01*
X1458Y1916D01*
X1478D01*
X1488Y1906D01*
Y1896D01*
X1448D01*
X1508Y1876D02*
X1538D01*
X1548Y1886D01*
X1538Y1896D01*
X1518D01*
X1508Y1906D01*
X1518Y1916D01*
X1548D01*
X1568Y1926D02*
X1578Y1936D01*
X1598D01*
X1608Y1926D01*
Y1886D01*
X1598Y1876D01*
X1578D01*
X1568Y1886D01*
Y1926D01*
X1628D02*
X1638Y1936D01*
X1658D01*
X1668Y1926D01*
Y1886D01*
X1658Y1876D01*
X1638D01*
X1628Y1886D01*
Y1926D01*
X1688Y1936D02*
X1728D01*
Y1926D01*
X1688Y1886D01*
Y1876D01*
X576Y992D02*
Y1205D01*
X364Y1177D02*
X391Y1205D01*
X576D01*
X364Y1020D02*
Y1177D01*
Y1020D02*
X391Y992D01*
X576D01*
X130Y1203D02*
X248D01*
Y888D02*
Y1203D01*
X130Y888D02*
X248D01*
X130D02*
Y1203D01*
X823Y888D02*
Y1203D01*
X705D02*
X823D01*
X705Y888D02*
Y1203D01*
Y888D02*
X823D01*
X155Y1954D02*
Y2254D01*
Y1299D02*
Y1324D01*
Y1299D02*
X235D01*
X715D02*
X795D01*
Y1329D01*
Y1954D02*
Y2254D01*
X155D02*
X795D01*
X270Y989D02*
X350D01*
X395Y1628D02*
X405Y1638D01*
X425D01*
X435Y1628D01*
Y1618D01*
X425Y1608D01*
X415D01*
X425D01*
X435Y1598D01*
Y1589D01*
X425Y1579D01*
X405D01*
X395Y1589D01*
X455Y1618D02*
X475Y1579D01*
X495Y1618D01*
X515Y1628D02*
X525Y1638D01*
X545D01*
X555Y1628D01*
Y1618D01*
X545Y1608D01*
X535D01*
X545D01*
X555Y1598D01*
Y1589D01*
X545Y1579D01*
X525D01*
X515Y1589D01*
X575Y1598D02*
Y1648D01*
Y1589D02*
Y1579D01*
X420Y1684D02*
X380D01*
X420Y1724D01*
Y1734D01*
X410Y1744D01*
X390D01*
X380Y1734D01*
X440D02*
X450Y1744D01*
X470D01*
X480Y1734D01*
Y1694D01*
X470Y1684D01*
X450D01*
X440Y1694D01*
Y1734D01*
X500Y1684D02*
X520D01*
X510D01*
Y1744D01*
X500Y1734D01*
X590Y1744D02*
X570Y1734D01*
X550Y1714D01*
Y1694D01*
X560Y1684D01*
X580D01*
X590Y1694D01*
Y1704D01*
X580Y1714D01*
X550D01*
X330Y1840D02*
X290D01*
Y1780D01*
X330D01*
X290Y1810D02*
X310D01*
X390Y1830D02*
X380Y1840D01*
X360D01*
X350Y1830D01*
Y1820D01*
X360Y1810D01*
X380D01*
X390Y1800D01*
Y1790D01*
X380Y1780D01*
X360D01*
X350Y1790D01*
X410Y1780D02*
Y1840D01*
X440D01*
X450Y1830D01*
Y1810D01*
X440Y1800D01*
X410D01*
X470Y1810D02*
X510D01*
X530Y1780D02*
X550D01*
X540D01*
Y1840D01*
X530Y1830D01*
X620Y1780D02*
X580D01*
X620Y1820D01*
Y1830D01*
X610Y1840D01*
X590D01*
X580Y1830D01*
X680Y1840D02*
X640D01*
Y1780D01*
X680D01*
X640Y1810D02*
X660D01*
X260Y1936D02*
Y1876D01*
X290D01*
X300Y1886D01*
Y1926D01*
X290Y1936D01*
X260D01*
X320Y1916D02*
Y1876D01*
Y1896D01*
X330Y1906D01*
X340Y1916D01*
X350D01*
X380Y1876D02*
X400D01*
X390D01*
Y1916D01*
X380D01*
X460Y1876D02*
X440D01*
X430Y1886D01*
Y1906D01*
X440Y1916D01*
X460D01*
X470Y1906D01*
Y1896D01*
X430D01*
X490Y1876D02*
X520D01*
X530Y1886D01*
X520Y1896D01*
X500D01*
X490Y1906D01*
X500Y1916D01*
X530D01*
X550Y1926D02*
X560Y1936D01*
X580D01*
X590Y1926D01*
Y1886D01*
X580Y1876D01*
X560D01*
X550Y1886D01*
Y1926D01*
X610D02*
X620Y1936D01*
X640D01*
X650Y1926D01*
Y1886D01*
X640Y1876D01*
X620D01*
X610Y1886D01*
Y1926D01*
X670Y1936D02*
X710D01*
Y1926D01*
X670Y1886D01*
Y1876D01*
X1655Y374D02*
X1710D01*
X1655D02*
X1667Y362D01*
X1655Y374D02*
X1667Y386D01*
X1675Y20D02*
X1687Y31D01*
X1675Y20D02*
X1687Y8D01*
X1675Y20D02*
X1730D01*
X56Y297D02*
X253D01*
X56Y100D02*
Y297D01*
Y100D02*
X253D01*
Y297D01*
X58Y201D02*
X158Y101D01*
X295Y201D02*
X394Y101D01*
X489Y100D02*
Y297D01*
X292Y100D02*
X489D01*
X292D02*
Y297D01*
X489D01*
X529D02*
X725D01*
X529Y100D02*
Y297D01*
Y100D02*
X725D01*
Y297D01*
X531Y201D02*
X631Y101D01*
X767Y201D02*
X867Y101D01*
X962Y100D02*
Y297D01*
X765Y100D02*
X962D01*
X765D02*
Y297D01*
X962D01*
X1001D02*
X1198D01*
X1001Y100D02*
Y297D01*
Y100D02*
X1198D01*
Y297D01*
X1003Y201D02*
X1103Y101D01*
X1239Y201D02*
X1339Y101D01*
X1434Y100D02*
Y297D01*
X1237Y100D02*
X1434D01*
X1237D02*
Y297D01*
X1434D01*
X1473D02*
X1670D01*
X1473Y100D02*
Y297D01*
Y100D02*
X1670D01*
Y297D01*
X1476Y201D02*
X1576Y101D01*
X1712Y201D02*
X1812Y101D01*
X1906Y100D02*
Y297D01*
X1710Y100D02*
X1906D01*
X1710D02*
Y297D01*
X1906D01*
X1655Y807D02*
X1710D01*
X1655D02*
X1667Y795D01*
X1655Y807D02*
X1667Y819D01*
X1675Y453D02*
X1687Y465D01*
X1675Y453D02*
X1687Y441D01*
X1675Y453D02*
X1730D01*
X56Y730D02*
X253D01*
X56Y533D02*
Y730D01*
Y533D02*
X253D01*
Y730D01*
X58Y634D02*
X158Y534D01*
X295Y634D02*
X394Y534D01*
X489Y533D02*
Y730D01*
X292Y533D02*
X489D01*
X292D02*
Y730D01*
X489D01*
X529D02*
X725D01*
X529Y533D02*
Y730D01*
Y533D02*
X725D01*
Y730D01*
X531Y634D02*
X631Y534D01*
X767Y634D02*
X867Y534D01*
X962Y533D02*
Y730D01*
X765Y533D02*
X962D01*
X765D02*
Y730D01*
X962D01*
X1001D02*
X1198D01*
X1001Y533D02*
Y730D01*
Y533D02*
X1198D01*
Y730D01*
X1003Y634D02*
X1103Y534D01*
X1239Y634D02*
X1339Y534D01*
X1434Y533D02*
Y730D01*
X1237Y533D02*
X1434D01*
X1237D02*
Y730D01*
X1434D01*
X1473D02*
X1670D01*
X1473Y533D02*
Y730D01*
Y533D02*
X1670D01*
Y730D01*
X1476Y634D02*
X1576Y534D01*
X1712Y634D02*
X1812Y534D01*
X1906Y533D02*
Y730D01*
X1710Y533D02*
X1906D01*
X1710D02*
Y730D01*
X1906D01*
D32*
X1701Y1179D02*
Y1199D01*
X1686D01*
Y1189D01*
Y1199D01*
X1671D01*
Y1169D02*
Y1159D01*
Y1164D01*
X1701D01*
Y1169D01*
X1691Y1139D02*
Y1129D01*
X1686Y1124D01*
X1671D01*
Y1139D01*
X1676Y1144D01*
X1681Y1139D01*
Y1124D01*
X1671Y1114D02*
Y1099D01*
X1676Y1094D01*
X1681Y1099D01*
Y1109D01*
X1686Y1114D01*
X1691Y1109D01*
Y1094D01*
X1701Y1084D02*
X1671D01*
X1686D01*
X1691Y1079D01*
Y1069D01*
X1686Y1064D01*
X1671D01*
X1287Y1206D02*
X1317D01*
Y1191D01*
X1312Y1186D01*
X1302D01*
X1297Y1191D01*
Y1206D01*
Y1196D02*
X1287Y1186D01*
Y1161D02*
Y1171D01*
X1292Y1176D01*
X1302D01*
X1307Y1171D01*
Y1161D01*
X1302Y1156D01*
X1297D01*
Y1176D01*
X1287Y1146D02*
Y1131D01*
X1292Y1126D01*
X1297Y1131D01*
Y1141D01*
X1302Y1146D01*
X1307Y1141D01*
Y1126D01*
X1287Y1101D02*
Y1111D01*
X1292Y1116D01*
X1302D01*
X1307Y1111D01*
Y1101D01*
X1302Y1096D01*
X1297D01*
Y1116D01*
X1312Y1081D02*
X1307D01*
Y1086D01*
Y1076D01*
Y1081D01*
X1292D01*
X1287Y1076D01*
X1289Y1023D02*
X1294Y1028D01*
X1303D01*
X1308Y1023D01*
Y1018D01*
X1303Y1013D01*
X1299D01*
X1303D01*
X1308Y1009D01*
Y1004D01*
X1303Y999D01*
X1294D01*
X1289Y1004D01*
X1318Y1018D02*
X1328Y999D01*
X1338Y1018D01*
X1348Y1023D02*
X1353Y1028D01*
X1363D01*
X1368Y1023D01*
Y1018D01*
X1363Y1013D01*
X1358D01*
X1363D01*
X1368Y1009D01*
Y1004D01*
X1363Y999D01*
X1353D01*
X1348Y1004D01*
X682Y1179D02*
Y1199D01*
X667D01*
Y1189D01*
Y1199D01*
X652D01*
Y1169D02*
Y1159D01*
Y1164D01*
X682D01*
Y1169D01*
X672Y1139D02*
Y1129D01*
X667Y1124D01*
X652D01*
Y1139D01*
X657Y1144D01*
X662Y1139D01*
Y1124D01*
X652Y1114D02*
Y1099D01*
X657Y1094D01*
X662Y1099D01*
Y1109D01*
X667Y1114D01*
X672Y1109D01*
Y1094D01*
X682Y1084D02*
X652D01*
X667D01*
X672Y1079D01*
Y1069D01*
X667Y1064D01*
X652D01*
X269Y1206D02*
X299D01*
Y1191D01*
X294Y1186D01*
X284D01*
X279Y1191D01*
Y1206D01*
Y1196D02*
X269Y1186D01*
Y1161D02*
Y1171D01*
X274Y1176D01*
X284D01*
X289Y1171D01*
Y1161D01*
X284Y1156D01*
X279D01*
Y1176D01*
X269Y1146D02*
Y1131D01*
X274Y1126D01*
X279Y1131D01*
Y1141D01*
X284Y1146D01*
X289Y1141D01*
Y1126D01*
X269Y1101D02*
Y1111D01*
X274Y1116D01*
X284D01*
X289Y1111D01*
Y1101D01*
X284Y1096D01*
X279D01*
Y1116D01*
X294Y1081D02*
X289D01*
Y1086D01*
Y1076D01*
Y1081D01*
X274D01*
X269Y1076D01*
X270Y1023D02*
X275Y1028D01*
X285D01*
X290Y1023D01*
Y1018D01*
X285Y1013D01*
X280D01*
X285D01*
X290Y1009D01*
Y1004D01*
X285Y999D01*
X275D01*
X270Y1004D01*
X300Y1018D02*
X310Y999D01*
X320Y1018D01*
X330Y1023D02*
X335Y1028D01*
X345D01*
X350Y1023D01*
Y1018D01*
X345Y1013D01*
X340D01*
X345D01*
X350Y1009D01*
Y1004D01*
X345Y999D01*
X335D01*
X330Y1004D01*
X1142Y42D02*
Y12D01*
X1152Y22D01*
X1162Y12D01*
Y42D01*
X1192Y37D02*
X1187Y42D01*
X1177D01*
X1172Y37D01*
Y32D01*
X1177Y27D01*
X1187D01*
X1192Y22D01*
Y17D01*
X1187Y12D01*
X1177D01*
X1172Y17D01*
X1222Y12D02*
X1202D01*
X1222Y32D01*
Y37D01*
X1217Y42D01*
X1207D01*
X1202Y37D01*
X1232D02*
X1237Y42D01*
X1247D01*
X1252Y37D01*
Y32D01*
X1247Y27D01*
X1252Y22D01*
Y17D01*
X1247Y12D01*
X1237D01*
X1232Y17D01*
Y22D01*
X1237Y27D01*
X1232Y32D01*
Y37D01*
X1237Y27D02*
X1247D01*
X1262Y12D02*
X1272D01*
X1267D01*
Y42D01*
X1262Y37D01*
X1307Y12D02*
X1287D01*
X1307Y32D01*
Y37D01*
X1302Y42D01*
X1292D01*
X1287Y37D01*
X949Y12D02*
X929D01*
X949Y32D01*
Y37D01*
X944Y42D01*
X934D01*
X929Y37D01*
X959D02*
X964Y42D01*
X974D01*
X979Y37D01*
Y17D01*
X974Y12D01*
X964D01*
X959Y17D01*
Y37D01*
X989Y12D02*
X999D01*
X994D01*
Y42D01*
X989Y37D01*
X1034Y42D02*
X1024Y37D01*
X1014Y27D01*
Y17D01*
X1019Y12D01*
X1029D01*
X1034Y17D01*
Y22D01*
X1029Y27D01*
X1014D01*
X13Y146D02*
X43D01*
Y161D01*
X38Y166D01*
X18D01*
X13Y161D01*
Y146D01*
Y191D02*
Y181D01*
X18Y176D01*
X38D01*
X43Y181D01*
Y191D01*
X38Y196D01*
X18D01*
X13Y191D01*
Y206D02*
X38D01*
X43Y211D01*
Y221D01*
X38Y226D01*
X13D01*
Y236D02*
Y256D01*
Y246D01*
X43D01*
X1923Y161D02*
X1953D01*
Y176D01*
X1948Y181D01*
X1928D01*
X1923Y176D01*
Y161D01*
Y191D02*
Y201D01*
Y196D01*
X1953D01*
Y191D01*
Y201D01*
Y216D02*
X1923D01*
X1953Y236D01*
X1923D01*
X1918Y373D02*
X1898D01*
Y358D01*
X1908Y363D01*
X1913D01*
X1918Y358D01*
Y348D01*
X1913Y343D01*
X1903D01*
X1898Y348D01*
X1928Y373D02*
Y353D01*
X1938Y343D01*
X1948Y353D01*
Y373D01*
X1890Y41D02*
X1885Y46D01*
X1875D01*
X1870Y41D01*
Y21D01*
X1875Y16D01*
X1885D01*
X1890Y21D01*
Y31D01*
X1880D01*
X1900Y16D02*
Y46D01*
X1920Y16D01*
Y46D01*
X1930D02*
Y16D01*
X1945D01*
X1950Y21D01*
Y41D01*
X1945Y46D01*
X1930D01*
X36Y41D02*
X31Y46D01*
X21D01*
X16Y41D01*
Y21D01*
X21Y16D01*
X31D01*
X36Y21D01*
Y31D01*
X26D01*
X46Y16D02*
Y46D01*
X66Y16D01*
Y46D01*
X76D02*
Y16D01*
X91D01*
X96Y21D01*
Y41D01*
X91Y46D01*
X76D01*
X40Y376D02*
X20D01*
Y361D01*
X30Y366D01*
X35D01*
X40Y361D01*
Y351D01*
X35Y346D01*
X25D01*
X20Y351D01*
X50Y376D02*
Y356D01*
X60Y346D01*
X70Y356D01*
Y376D01*
X693Y42D02*
Y12D01*
X708D01*
X713Y17D01*
Y37D01*
X708Y42D01*
X693D01*
X723Y37D02*
X728Y42D01*
X738D01*
X743Y37D01*
Y17D01*
X738Y12D01*
X728D01*
X723Y17D01*
Y37D01*
X753D02*
X758Y42D01*
X768D01*
X773Y37D01*
Y17D01*
X768Y12D01*
X758D01*
X753Y17D01*
Y37D01*
X783Y42D02*
X803D01*
Y37D01*
X783Y17D01*
Y12D01*
X1142Y475D02*
Y445D01*
X1152Y455D01*
X1162Y445D01*
Y475D01*
X1192Y470D02*
X1187Y475D01*
X1177D01*
X1172Y470D01*
Y465D01*
X1177Y460D01*
X1187D01*
X1192Y455D01*
Y450D01*
X1187Y445D01*
X1177D01*
X1172Y450D01*
X1222Y445D02*
X1202D01*
X1222Y465D01*
Y470D01*
X1217Y475D01*
X1207D01*
X1202Y470D01*
X1232D02*
X1237Y475D01*
X1247D01*
X1252Y470D01*
Y465D01*
X1247Y460D01*
X1252Y455D01*
Y450D01*
X1247Y445D01*
X1237D01*
X1232Y450D01*
Y455D01*
X1237Y460D01*
X1232Y465D01*
Y470D01*
X1237Y460D02*
X1247D01*
X1262Y445D02*
X1272D01*
X1267D01*
Y475D01*
X1262Y470D01*
X1307Y445D02*
X1287D01*
X1307Y465D01*
Y470D01*
X1302Y475D01*
X1292D01*
X1287Y470D01*
X949Y445D02*
X929D01*
X949Y465D01*
Y470D01*
X944Y475D01*
X934D01*
X929Y470D01*
X959D02*
X964Y475D01*
X974D01*
X979Y470D01*
Y450D01*
X974Y445D01*
X964D01*
X959Y450D01*
Y470D01*
X989Y445D02*
X999D01*
X994D01*
Y475D01*
X989Y470D01*
X1034Y475D02*
X1024Y470D01*
X1014Y460D01*
Y450D01*
X1019Y445D01*
X1029D01*
X1034Y450D01*
Y455D01*
X1029Y460D01*
X1014D01*
X13Y579D02*
X43D01*
Y594D01*
X38Y599D01*
X18D01*
X13Y594D01*
Y579D01*
Y624D02*
Y614D01*
X18Y609D01*
X38D01*
X43Y614D01*
Y624D01*
X38Y629D01*
X18D01*
X13Y624D01*
Y639D02*
X38D01*
X43Y644D01*
Y654D01*
X38Y659D01*
X13D01*
Y669D02*
Y689D01*
Y679D01*
X43D01*
X1923Y594D02*
X1953D01*
Y609D01*
X1948Y614D01*
X1928D01*
X1923Y609D01*
Y594D01*
Y624D02*
Y634D01*
Y629D01*
X1953D01*
Y624D01*
Y634D01*
Y649D02*
X1923D01*
X1953Y669D01*
X1923D01*
X1918Y806D02*
X1898D01*
Y791D01*
X1908Y796D01*
X1913D01*
X1918Y791D01*
Y781D01*
X1913Y776D01*
X1903D01*
X1898Y781D01*
X1928Y806D02*
Y786D01*
X1938Y776D01*
X1948Y786D01*
Y806D01*
X1890Y474D02*
X1885Y479D01*
X1875D01*
X1870Y474D01*
Y454D01*
X1875Y449D01*
X1885D01*
X1890Y454D01*
Y464D01*
X1880D01*
X1900Y449D02*
Y479D01*
X1920Y449D01*
Y479D01*
X1930D02*
Y449D01*
X1945D01*
X1950Y454D01*
Y474D01*
X1945Y479D01*
X1930D01*
X36Y474D02*
X31Y479D01*
X21D01*
X16Y474D01*
Y454D01*
X21Y449D01*
X31D01*
X36Y454D01*
Y464D01*
X26D01*
X46Y449D02*
Y479D01*
X66Y449D01*
Y479D01*
X76D02*
Y449D01*
X91D01*
X96Y454D01*
Y474D01*
X91Y479D01*
X76D01*
X40Y810D02*
X20D01*
Y795D01*
X30Y800D01*
X35D01*
X40Y795D01*
Y785D01*
X35Y780D01*
X25D01*
X20Y785D01*
X50Y810D02*
Y790D01*
X60Y780D01*
X70Y790D01*
Y810D01*
X693Y475D02*
Y445D01*
X708D01*
X713Y450D01*
Y470D01*
X708Y475D01*
X693D01*
X723Y470D02*
X728Y475D01*
X738D01*
X743Y470D01*
Y450D01*
X738Y445D01*
X728D01*
X723Y450D01*
Y470D01*
X753D02*
X758Y475D01*
X768D01*
X773Y470D01*
Y450D01*
X768Y445D01*
X758D01*
X753Y450D01*
Y470D01*
X783Y475D02*
X803D01*
Y470D01*
X783Y450D01*
Y445D01*
D33*
X1414Y2057D02*
X1599D01*
X1410Y2058D02*
X1603D01*
X1408Y2058D02*
X1605D01*
X1406Y2059D02*
X1607D01*
X1404Y2059D02*
X1608D01*
X1403Y2060D02*
X1610D01*
X1401Y2060D02*
X1611D01*
X1400Y2061D02*
X1612D01*
X1399Y2061D02*
X1613D01*
X1600Y2062D02*
X1614D01*
X1398D02*
X1493D01*
X1603Y2062D02*
X1615D01*
X1397D02*
X1494D01*
X1606Y2063D02*
X1616D01*
X1396D02*
X1495D01*
X1607Y2063D02*
X1617D01*
X1395D02*
X1495D01*
X1609Y2064D02*
X1618D01*
X1394D02*
X1496D01*
X1610Y2064D02*
X1619D01*
X1394D02*
X1496D01*
X1611Y2065D02*
X1620D01*
X1393D02*
X1497D01*
X1612Y2065D02*
X1620D01*
X1392D02*
X1497D01*
X1613Y2066D02*
X1621D01*
X1391D02*
X1498D01*
X1614Y2066D02*
X1622D01*
X1391D02*
X1498D01*
X1615Y2067D02*
X1622D01*
X1390D02*
X1499D01*
X1616Y2067D02*
X1623D01*
X1390D02*
X1499D01*
X1617Y2068D02*
X1623D01*
X1389D02*
X1500D01*
X1618Y2068D02*
X1624D01*
X1388D02*
X1500D01*
X1618Y2069D02*
X1625D01*
X1388D02*
X1501D01*
X1619Y2069D02*
X1625D01*
X1387D02*
X1501D01*
X1620Y2070D02*
X1626D01*
X1387D02*
X1501D01*
X1620Y2070D02*
X1626D01*
X1386D02*
X1502D01*
X1621Y2071D02*
X1627D01*
X1386D02*
X1502D01*
X1621Y2071D02*
X1627D01*
X1385D02*
X1503D01*
X1622Y2072D02*
X1628D01*
X1385D02*
X1503D01*
X1623Y2072D02*
X1628D01*
X1384D02*
X1503D01*
X1623Y2073D02*
X1628D01*
X1384D02*
X1504D01*
X1624Y2073D02*
X1629D01*
X1384D02*
X1504D01*
X1624Y2074D02*
X1629D01*
X1383D02*
X1504D01*
X1624Y2074D02*
X1630D01*
X1383D02*
X1505D01*
X1625Y2075D02*
X1630D01*
X1382D02*
X1505D01*
X1625Y2075D02*
X1630D01*
X1382D02*
X1505D01*
X1626Y2076D02*
X1631D01*
X1382D02*
X1506D01*
X1626Y2076D02*
X1631D01*
X1381D02*
X1506D01*
X1627Y2077D02*
X1632D01*
X1381D02*
X1506D01*
X1627Y2077D02*
X1632D01*
X1381D02*
X1506D01*
X1627Y2078D02*
X1632D01*
X1380D02*
X1507D01*
X1628Y2078D02*
X1633D01*
X1380D02*
X1507D01*
X1628Y2079D02*
X1633D01*
X1380D02*
X1507D01*
X1628Y2079D02*
X1633D01*
X1379D02*
X1507D01*
X1629Y2080D02*
X1633D01*
X1379D02*
X1508D01*
X1629Y2080D02*
X1634D01*
X1379D02*
X1508D01*
X1629Y2081D02*
X1634D01*
X1378D02*
X1508D01*
X1630Y2081D02*
X1634D01*
X1378D02*
X1508D01*
X1630Y2082D02*
X1634D01*
X1378D02*
X1508D01*
X1630Y2082D02*
X1635D01*
X1378D02*
X1509D01*
X1630Y2083D02*
X1635D01*
X1377D02*
X1509D01*
X1631Y2083D02*
X1635D01*
X1377D02*
X1509D01*
X1631Y2084D02*
X1635D01*
X1377D02*
X1509D01*
X1631Y2084D02*
X1636D01*
X1377D02*
X1509D01*
X1631Y2085D02*
X1636D01*
X1377D02*
X1510D01*
X1632Y2085D02*
X1636D01*
X1600D02*
X1600D01*
X1590D02*
X1598D01*
X1588D02*
X1589D01*
X1534D02*
X1546D01*
X1494D02*
X1510D01*
X1458D02*
X1482D01*
X1449D02*
X1450D01*
X1448D02*
X1449D01*
X1422D02*
X1447D01*
X1414D02*
X1414D01*
X1376D02*
X1413D01*
X1632Y2086D02*
X1636D01*
X1587D02*
X1600D01*
X1533D02*
X1546D01*
X1494D02*
X1510D01*
X1458D02*
X1481D01*
X1423D02*
X1447D01*
X1376D02*
X1412D01*
X1632Y2086D02*
X1636D01*
X1587D02*
X1600D01*
X1533D02*
X1546D01*
X1494D02*
X1510D01*
X1459D02*
X1481D01*
X1423D02*
X1447D01*
X1376D02*
X1412D01*
X1632Y2087D02*
X1637D01*
X1587D02*
X1600D01*
X1533D02*
X1546D01*
X1494D02*
X1510D01*
X1459D02*
X1481D01*
X1423D02*
X1447D01*
X1376D02*
X1412D01*
X1632Y2087D02*
X1637D01*
X1587D02*
X1600D01*
X1533D02*
X1546D01*
X1494D02*
X1510D01*
X1459D02*
X1482D01*
X1424D02*
X1447D01*
X1376D02*
X1412D01*
X1633Y2088D02*
X1637D01*
X1587D02*
X1600D01*
X1533D02*
X1546D01*
X1494D02*
X1510D01*
X1459D02*
X1482D01*
X1424D02*
X1447D01*
X1375D02*
X1412D01*
X1633Y2088D02*
X1637D01*
X1587D02*
X1600D01*
X1533D02*
X1546D01*
X1494D02*
X1511D01*
X1459D02*
X1481D01*
X1424D02*
X1446D01*
X1375D02*
X1412D01*
X1633Y2089D02*
X1637D01*
X1587D02*
X1600D01*
X1533D02*
X1546D01*
X1494D02*
X1511D01*
X1459D02*
X1481D01*
X1424D02*
X1446D01*
X1375D02*
X1412D01*
X1633Y2089D02*
X1637D01*
X1587D02*
X1600D01*
X1533D02*
X1546D01*
X1494D02*
X1511D01*
X1459D02*
X1481D01*
X1424D02*
X1446D01*
X1375D02*
X1411D01*
X1633Y2090D02*
X1638D01*
X1587D02*
X1600D01*
X1533D02*
X1546D01*
X1494D02*
X1511D01*
X1459D02*
X1481D01*
X1424D02*
X1446D01*
X1375D02*
X1411D01*
X1633Y2090D02*
X1638D01*
X1587D02*
X1600D01*
X1533D02*
X1546D01*
X1494D02*
X1511D01*
X1460D02*
X1481D01*
X1424D02*
X1446D01*
X1375D02*
X1411D01*
X1634Y2091D02*
X1638D01*
X1587D02*
X1600D01*
X1533D02*
X1546D01*
X1494D02*
X1511D01*
X1460D02*
X1481D01*
X1425D02*
X1446D01*
X1375D02*
X1411D01*
X1634Y2091D02*
X1638D01*
X1587D02*
X1600D01*
X1533D02*
X1546D01*
X1494D02*
X1511D01*
X1460D02*
X1481D01*
X1425D02*
X1446D01*
X1374D02*
X1411D01*
X1634Y2092D02*
X1638D01*
X1587D02*
X1600D01*
X1533D02*
X1546D01*
X1494D02*
X1511D01*
X1460D02*
X1481D01*
X1425D02*
X1445D01*
X1374D02*
X1411D01*
X1634Y2092D02*
X1638D01*
X1587D02*
X1600D01*
X1533D02*
X1546D01*
X1494D02*
X1511D01*
X1460D02*
X1481D01*
X1425D02*
X1445D01*
X1374D02*
X1411D01*
X1634Y2093D02*
X1638D01*
X1587D02*
X1600D01*
X1533D02*
X1546D01*
X1494D02*
X1512D01*
X1460D02*
X1481D01*
X1425D02*
X1445D01*
X1374D02*
X1410D01*
X1634Y2093D02*
X1638D01*
X1587D02*
X1600D01*
X1533D02*
X1546D01*
X1494D02*
X1512D01*
X1460D02*
X1481D01*
X1425D02*
X1445D01*
X1374D02*
X1410D01*
X1634Y2094D02*
X1638D01*
X1587D02*
X1600D01*
X1533D02*
X1546D01*
X1494D02*
X1512D01*
X1461D02*
X1481D01*
X1425D02*
X1445D01*
X1374D02*
X1410D01*
X1634Y2094D02*
X1639D01*
X1587D02*
X1600D01*
X1533D02*
X1546D01*
X1494D02*
X1512D01*
X1461D02*
X1481D01*
X1426D02*
X1445D01*
X1374D02*
X1410D01*
X1634Y2095D02*
X1639D01*
X1587D02*
X1600D01*
X1533D02*
X1546D01*
X1494D02*
X1512D01*
X1461D02*
X1481D01*
X1426D02*
X1445D01*
X1374D02*
X1410D01*
X1635Y2095D02*
X1639D01*
X1587D02*
X1600D01*
X1533D02*
X1546D01*
X1494D02*
X1512D01*
X1461D02*
X1481D01*
X1426D02*
X1444D01*
X1374D02*
X1410D01*
X1635Y2096D02*
X1639D01*
X1587D02*
X1600D01*
X1533D02*
X1546D01*
X1494D02*
X1512D01*
X1461D02*
X1481D01*
X1426D02*
X1444D01*
X1374D02*
X1410D01*
X1635Y2096D02*
X1639D01*
X1587D02*
X1600D01*
X1533D02*
X1546D01*
X1494D02*
X1512D01*
X1461D02*
X1481D01*
X1426D02*
X1444D01*
X1374D02*
X1410D01*
X1635Y2097D02*
X1639D01*
X1587D02*
X1600D01*
X1533D02*
X1546D01*
X1494D02*
X1512D01*
X1461D02*
X1481D01*
X1426D02*
X1444D01*
X1374D02*
X1409D01*
X1635Y2097D02*
X1639D01*
X1587D02*
X1600D01*
X1533D02*
X1546D01*
X1494D02*
X1512D01*
X1461D02*
X1481D01*
X1426D02*
X1444D01*
X1373D02*
X1409D01*
X1635Y2098D02*
X1639D01*
X1587D02*
X1600D01*
X1533D02*
X1546D01*
X1494D02*
X1512D01*
X1462D02*
X1481D01*
X1427D02*
X1444D01*
X1373D02*
X1409D01*
X1635Y2098D02*
X1639D01*
X1587D02*
X1600D01*
X1533D02*
X1546D01*
X1494D02*
X1512D01*
X1462D02*
X1481D01*
X1427D02*
X1444D01*
X1373D02*
X1409D01*
X1635Y2099D02*
X1639D01*
X1587D02*
X1600D01*
X1533D02*
X1546D01*
X1494D02*
X1512D01*
X1462D02*
X1481D01*
X1427D02*
X1443D01*
X1373D02*
X1409D01*
X1635Y2099D02*
X1639D01*
X1587D02*
X1600D01*
X1533D02*
X1546D01*
X1494D02*
X1512D01*
X1462D02*
X1481D01*
X1427D02*
X1443D01*
X1373D02*
X1409D01*
X1635Y2100D02*
X1639D01*
X1587D02*
X1600D01*
X1533D02*
X1546D01*
X1494D02*
X1512D01*
X1462D02*
X1481D01*
X1427D02*
X1443D01*
X1373D02*
X1409D01*
X1635Y2100D02*
X1639D01*
X1587D02*
X1600D01*
X1533D02*
X1546D01*
X1494D02*
X1512D01*
X1462D02*
X1481D01*
X1427D02*
X1443D01*
X1373D02*
X1408D01*
X1635Y2101D02*
X1639D01*
X1587D02*
X1600D01*
X1533D02*
X1546D01*
X1494D02*
X1512D01*
X1462D02*
X1481D01*
X1427D02*
X1443D01*
X1373D02*
X1408D01*
X1635Y2101D02*
X1639D01*
X1587D02*
X1600D01*
X1533D02*
X1546D01*
X1494D02*
X1512D01*
X1463D02*
X1481D01*
X1428D02*
X1443D01*
X1373D02*
X1408D01*
X1635Y2102D02*
X1639D01*
X1587D02*
X1600D01*
X1533D02*
X1546D01*
X1494D02*
X1512D01*
X1463D02*
X1481D01*
X1428D02*
X1443D01*
X1373D02*
X1408D01*
X1635Y2102D02*
X1639D01*
X1587D02*
X1600D01*
X1533D02*
X1546D01*
X1494D02*
X1512D01*
X1463D02*
X1481D01*
X1428D02*
X1442D01*
X1373D02*
X1408D01*
X1635Y2103D02*
X1639D01*
X1587D02*
X1600D01*
X1533D02*
X1546D01*
X1494D02*
X1512D01*
X1463D02*
X1481D01*
X1428D02*
X1442D01*
X1373D02*
X1408D01*
X1635Y2103D02*
X1639D01*
X1587D02*
X1600D01*
X1533D02*
X1546D01*
X1494D02*
X1512D01*
X1463D02*
X1481D01*
X1428D02*
X1442D01*
X1373D02*
X1408D01*
X1635Y2104D02*
X1639D01*
X1587D02*
X1600D01*
X1533D02*
X1546D01*
X1494D02*
X1512D01*
X1463D02*
X1481D01*
X1428D02*
X1442D01*
X1373D02*
X1408D01*
X1635Y2104D02*
X1639D01*
X1587D02*
X1600D01*
X1533D02*
X1546D01*
X1494D02*
X1512D01*
X1463D02*
X1481D01*
X1428D02*
X1442D01*
X1373D02*
X1407D01*
X1635Y2105D02*
X1639D01*
X1587D02*
X1600D01*
X1533D02*
X1546D01*
X1494D02*
X1512D01*
X1463D02*
X1481D01*
X1429D02*
X1442D01*
X1373D02*
X1407D01*
X1635Y2105D02*
X1639D01*
X1587D02*
X1600D01*
X1533D02*
X1546D01*
X1494D02*
X1512D01*
X1464D02*
X1481D01*
X1429D02*
X1442D01*
X1373D02*
X1407D01*
X1635Y2106D02*
X1639D01*
X1587D02*
X1600D01*
X1533D02*
X1546D01*
X1494D02*
X1512D01*
X1464D02*
X1481D01*
X1429D02*
X1441D01*
X1373D02*
X1407D01*
X1635Y2106D02*
X1639D01*
X1587D02*
X1600D01*
X1533D02*
X1546D01*
X1494D02*
X1512D01*
X1464D02*
X1481D01*
X1429D02*
X1441D01*
X1373D02*
X1407D01*
X1635Y2107D02*
X1639D01*
X1587D02*
X1600D01*
X1533D02*
X1546D01*
X1494D02*
X1512D01*
X1464D02*
X1481D01*
X1452D02*
X1453D01*
X1429D02*
X1441D01*
X1373D02*
X1407D01*
X1635Y2107D02*
X1639D01*
X1587D02*
X1600D01*
X1533D02*
X1546D01*
X1494D02*
X1512D01*
X1464D02*
X1481D01*
X1452D02*
X1453D01*
X1429D02*
X1441D01*
X1373D02*
X1407D01*
X1635Y2108D02*
X1639D01*
X1587D02*
X1600D01*
X1533D02*
X1546D01*
X1494D02*
X1512D01*
X1464D02*
X1481D01*
X1452D02*
X1453D01*
X1430D02*
X1441D01*
X1373D02*
X1406D01*
X1635Y2108D02*
X1639D01*
X1587D02*
X1600D01*
X1533D02*
X1546D01*
X1494D02*
X1512D01*
X1464D02*
X1481D01*
X1452D02*
X1453D01*
X1430D02*
X1441D01*
X1418D02*
X1419D01*
X1373D02*
X1406D01*
X1635Y2109D02*
X1639D01*
X1587D02*
X1600D01*
X1533D02*
X1546D01*
X1494D02*
X1512D01*
X1464D02*
X1481D01*
X1452D02*
X1453D01*
X1430D02*
X1441D01*
X1418D02*
X1419D01*
X1373D02*
X1406D01*
X1635Y2109D02*
X1639D01*
X1587D02*
X1600D01*
X1533D02*
X1576D01*
X1494D02*
X1512D01*
X1465D02*
X1481D01*
X1452D02*
X1453D01*
X1430D02*
X1440D01*
X1418D02*
X1419D01*
X1373D02*
X1406D01*
X1635Y2110D02*
X1639D01*
X1587D02*
X1600D01*
X1533D02*
X1576D01*
X1494D02*
X1512D01*
X1465D02*
X1481D01*
X1452D02*
X1454D01*
X1430D02*
X1440D01*
X1418D02*
X1419D01*
X1373D02*
X1406D01*
X1635Y2110D02*
X1639D01*
X1587D02*
X1600D01*
X1533D02*
X1576D01*
X1494D02*
X1512D01*
X1465D02*
X1481D01*
X1451D02*
X1454D01*
X1430D02*
X1440D01*
X1418D02*
X1419D01*
X1373D02*
X1406D01*
X1635Y2111D02*
X1639D01*
X1587D02*
X1600D01*
X1533D02*
X1576D01*
X1494D02*
X1512D01*
X1465D02*
X1481D01*
X1451D02*
X1454D01*
X1430D02*
X1440D01*
X1417D02*
X1419D01*
X1373D02*
X1406D01*
X1635Y2111D02*
X1639D01*
X1587D02*
X1600D01*
X1533D02*
X1576D01*
X1494D02*
X1512D01*
X1465D02*
X1481D01*
X1451D02*
X1454D01*
X1431D02*
X1440D01*
X1417D02*
X1419D01*
X1373D02*
X1405D01*
X1635Y2112D02*
X1639D01*
X1587D02*
X1600D01*
X1533D02*
X1576D01*
X1494D02*
X1512D01*
X1465D02*
X1481D01*
X1451D02*
X1454D01*
X1431D02*
X1440D01*
X1417D02*
X1420D01*
X1373D02*
X1405D01*
X1635Y2112D02*
X1639D01*
X1587D02*
X1600D01*
X1533D02*
X1576D01*
X1494D02*
X1512D01*
X1465D02*
X1481D01*
X1451D02*
X1454D01*
X1431D02*
X1440D01*
X1417D02*
X1420D01*
X1373D02*
X1405D01*
X1635Y2113D02*
X1639D01*
X1587D02*
X1600D01*
X1533D02*
X1576D01*
X1494D02*
X1512D01*
X1466D02*
X1481D01*
X1451D02*
X1454D01*
X1431D02*
X1439D01*
X1417D02*
X1420D01*
X1373D02*
X1405D01*
X1635Y2113D02*
X1639D01*
X1587D02*
X1600D01*
X1533D02*
X1576D01*
X1494D02*
X1512D01*
X1466D02*
X1481D01*
X1451D02*
X1454D01*
X1431D02*
X1439D01*
X1417D02*
X1420D01*
X1373D02*
X1405D01*
X1635Y2114D02*
X1639D01*
X1587D02*
X1600D01*
X1533D02*
X1576D01*
X1494D02*
X1512D01*
X1466D02*
X1481D01*
X1451D02*
X1454D01*
X1431D02*
X1439D01*
X1417D02*
X1420D01*
X1373D02*
X1405D01*
X1635Y2114D02*
X1639D01*
X1587D02*
X1600D01*
X1533D02*
X1576D01*
X1494D02*
X1512D01*
X1466D02*
X1481D01*
X1450D02*
X1455D01*
X1431D02*
X1439D01*
X1417D02*
X1420D01*
X1373D02*
X1405D01*
X1635Y2115D02*
X1639D01*
X1587D02*
X1600D01*
X1533D02*
X1576D01*
X1494D02*
X1512D01*
X1466D02*
X1481D01*
X1450D02*
X1455D01*
X1432D02*
X1439D01*
X1417D02*
X1421D01*
X1373D02*
X1405D01*
X1635Y2115D02*
X1639D01*
X1587D02*
X1600D01*
X1533D02*
X1576D01*
X1494D02*
X1512D01*
X1466D02*
X1481D01*
X1450D02*
X1455D01*
X1432D02*
X1439D01*
X1416D02*
X1421D01*
X1373D02*
X1404D01*
X1635Y2116D02*
X1639D01*
X1587D02*
X1600D01*
X1533D02*
X1576D01*
X1494D02*
X1512D01*
X1466D02*
X1481D01*
X1450D02*
X1455D01*
X1432D02*
X1439D01*
X1416D02*
X1421D01*
X1373D02*
X1404D01*
X1635Y2116D02*
X1639D01*
X1587D02*
X1600D01*
X1533D02*
X1576D01*
X1494D02*
X1512D01*
X1466D02*
X1481D01*
X1450D02*
X1455D01*
X1432D02*
X1438D01*
X1416D02*
X1421D01*
X1373D02*
X1404D01*
X1635Y2117D02*
X1639D01*
X1587D02*
X1600D01*
X1533D02*
X1576D01*
X1494D02*
X1512D01*
X1467D02*
X1481D01*
X1450D02*
X1455D01*
X1432D02*
X1438D01*
X1416D02*
X1421D01*
X1373D02*
X1404D01*
X1635Y2117D02*
X1639D01*
X1587D02*
X1600D01*
X1533D02*
X1576D01*
X1494D02*
X1512D01*
X1467D02*
X1481D01*
X1449D02*
X1455D01*
X1432D02*
X1438D01*
X1416D02*
X1421D01*
X1373D02*
X1404D01*
X1635Y2118D02*
X1639D01*
X1587D02*
X1600D01*
X1533D02*
X1576D01*
X1494D02*
X1512D01*
X1467D02*
X1481D01*
X1449D02*
X1455D01*
X1432D02*
X1438D01*
X1416D02*
X1421D01*
X1373D02*
X1404D01*
X1635Y2118D02*
X1639D01*
X1587D02*
X1600D01*
X1533D02*
X1576D01*
X1494D02*
X1512D01*
X1467D02*
X1481D01*
X1449D02*
X1455D01*
X1433D02*
X1438D01*
X1416D02*
X1422D01*
X1373D02*
X1404D01*
X1635Y2119D02*
X1639D01*
X1587D02*
X1600D01*
X1533D02*
X1576D01*
X1494D02*
X1512D01*
X1467D02*
X1481D01*
X1449D02*
X1456D01*
X1433D02*
X1438D01*
X1416D02*
X1422D01*
X1373D02*
X1403D01*
X1635Y2119D02*
X1639D01*
X1587D02*
X1600D01*
X1533D02*
X1576D01*
X1494D02*
X1512D01*
X1467D02*
X1481D01*
X1449D02*
X1456D01*
X1433D02*
X1438D01*
X1416D02*
X1422D01*
X1373D02*
X1403D01*
X1635Y2120D02*
X1639D01*
X1587D02*
X1600D01*
X1533D02*
X1576D01*
X1494D02*
X1512D01*
X1467D02*
X1481D01*
X1449D02*
X1456D01*
X1433D02*
X1437D01*
X1415D02*
X1422D01*
X1373D02*
X1403D01*
X1635Y2120D02*
X1639D01*
X1587D02*
X1600D01*
X1533D02*
X1576D01*
X1494D02*
X1512D01*
X1468D02*
X1481D01*
X1449D02*
X1456D01*
X1433D02*
X1437D01*
X1415D02*
X1422D01*
X1373D02*
X1403D01*
X1635Y2121D02*
X1639D01*
X1587D02*
X1600D01*
X1533D02*
X1576D01*
X1494D02*
X1512D01*
X1468D02*
X1481D01*
X1448D02*
X1456D01*
X1433D02*
X1437D01*
X1415D02*
X1422D01*
X1373D02*
X1403D01*
X1635Y2121D02*
X1639D01*
X1587D02*
X1600D01*
X1533D02*
X1576D01*
X1494D02*
X1512D01*
X1468D02*
X1481D01*
X1448D02*
X1456D01*
X1433D02*
X1437D01*
X1415D02*
X1422D01*
X1373D02*
X1403D01*
X1635Y2122D02*
X1639D01*
X1587D02*
X1600D01*
X1533D02*
X1546D01*
X1494D02*
X1512D01*
X1468D02*
X1481D01*
X1448D02*
X1456D01*
X1434D02*
X1437D01*
X1415D02*
X1423D01*
X1373D02*
X1403D01*
X1635Y2122D02*
X1639D01*
X1587D02*
X1600D01*
X1533D02*
X1546D01*
X1494D02*
X1512D01*
X1468D02*
X1481D01*
X1448D02*
X1456D01*
X1434D02*
X1437D01*
X1415D02*
X1423D01*
X1373D02*
X1403D01*
X1635Y2123D02*
X1639D01*
X1587D02*
X1600D01*
X1533D02*
X1546D01*
X1494D02*
X1512D01*
X1468D02*
X1481D01*
X1448D02*
X1457D01*
X1434D02*
X1437D01*
X1415D02*
X1423D01*
X1373D02*
X1402D01*
X1635Y2123D02*
X1639D01*
X1587D02*
X1600D01*
X1533D02*
X1546D01*
X1494D02*
X1512D01*
X1468D02*
X1481D01*
X1448D02*
X1457D01*
X1434D02*
X1436D01*
X1415D02*
X1423D01*
X1373D02*
X1402D01*
X1635Y2124D02*
X1639D01*
X1587D02*
X1600D01*
X1533D02*
X1546D01*
X1494D02*
X1512D01*
X1468D02*
X1481D01*
X1448D02*
X1457D01*
X1434D02*
X1436D01*
X1415D02*
X1423D01*
X1373D02*
X1402D01*
X1635Y2124D02*
X1639D01*
X1587D02*
X1600D01*
X1533D02*
X1546D01*
X1494D02*
X1512D01*
X1469D02*
X1482D01*
X1447D02*
X1457D01*
X1434D02*
X1436D01*
X1414D02*
X1423D01*
X1373D02*
X1402D01*
X1635Y2125D02*
X1639D01*
X1587D02*
X1600D01*
X1533D02*
X1546D01*
X1494D02*
X1512D01*
X1469D02*
X1481D01*
X1447D02*
X1457D01*
X1434D02*
X1436D01*
X1414D02*
X1423D01*
X1373D02*
X1402D01*
X1635Y2125D02*
X1639D01*
X1587D02*
X1600D01*
X1533D02*
X1546D01*
X1494D02*
X1512D01*
X1469D02*
X1481D01*
X1447D02*
X1457D01*
X1435D02*
X1436D01*
X1414D02*
X1424D01*
X1373D02*
X1402D01*
X1635Y2126D02*
X1639D01*
X1587D02*
X1600D01*
X1533D02*
X1546D01*
X1494D02*
X1512D01*
X1469D02*
X1481D01*
X1447D02*
X1457D01*
X1435D02*
X1436D01*
X1414D02*
X1424D01*
X1373D02*
X1402D01*
X1635Y2126D02*
X1639D01*
X1587D02*
X1600D01*
X1533D02*
X1546D01*
X1494D02*
X1512D01*
X1469D02*
X1481D01*
X1447D02*
X1457D01*
X1435D02*
X1436D01*
X1414D02*
X1424D01*
X1373D02*
X1401D01*
X1635Y2127D02*
X1639D01*
X1587D02*
X1600D01*
X1533D02*
X1546D01*
X1494D02*
X1512D01*
X1469D02*
X1481D01*
X1447D02*
X1457D01*
X1435D02*
X1435D01*
X1414D02*
X1424D01*
X1373D02*
X1401D01*
X1635Y2127D02*
X1639D01*
X1533D02*
X1546D01*
X1469D02*
X1512D01*
X1447D02*
X1458D01*
X1414D02*
X1424D01*
X1373D02*
X1401D01*
X1635Y2128D02*
X1639D01*
X1533D02*
X1546D01*
X1470D02*
X1512D01*
X1447D02*
X1458D01*
X1414D02*
X1424D01*
X1373D02*
X1401D01*
X1635Y2128D02*
X1639D01*
X1533D02*
X1546D01*
X1470D02*
X1512D01*
X1446D02*
X1458D01*
X1414D02*
X1425D01*
X1373D02*
X1401D01*
X1635Y2129D02*
X1639D01*
X1533D02*
X1546D01*
X1470D02*
X1512D01*
X1446D02*
X1458D01*
X1413D02*
X1425D01*
X1373D02*
X1401D01*
X1635Y2129D02*
X1639D01*
X1533D02*
X1546D01*
X1470D02*
X1512D01*
X1446D02*
X1458D01*
X1413D02*
X1425D01*
X1373D02*
X1401D01*
X1635Y2130D02*
X1639D01*
X1533D02*
X1546D01*
X1470D02*
X1512D01*
X1446D02*
X1458D01*
X1413D02*
X1425D01*
X1373D02*
X1401D01*
X1635Y2130D02*
X1639D01*
X1533D02*
X1546D01*
X1470D02*
X1512D01*
X1446D02*
X1458D01*
X1413D02*
X1425D01*
X1373D02*
X1400D01*
X1635Y2131D02*
X1639D01*
X1533D02*
X1546D01*
X1470D02*
X1512D01*
X1446D02*
X1458D01*
X1413D02*
X1425D01*
X1373D02*
X1400D01*
X1635Y2131D02*
X1639D01*
X1533D02*
X1546D01*
X1470D02*
X1512D01*
X1446D02*
X1459D01*
X1413D02*
X1425D01*
X1373D02*
X1400D01*
X1635Y2132D02*
X1639D01*
X1533D02*
X1546D01*
X1471D02*
X1512D01*
X1445D02*
X1459D01*
X1413D02*
X1426D01*
X1373D02*
X1400D01*
X1635Y2132D02*
X1639D01*
X1533D02*
X1546D01*
X1471D02*
X1512D01*
X1445D02*
X1459D01*
X1413D02*
X1426D01*
X1373D02*
X1400D01*
X1635Y2133D02*
X1639D01*
X1593D02*
X1594D01*
X1533D02*
X1546D01*
X1488D02*
X1512D01*
X1471D02*
X1487D01*
X1445D02*
X1459D01*
X1413D02*
X1426D01*
X1373D02*
X1400D01*
X1635Y2133D02*
X1639D01*
X1591D02*
X1597D01*
X1533D02*
X1546D01*
X1491D02*
X1512D01*
X1471D02*
X1485D01*
X1445D02*
X1459D01*
X1412D02*
X1426D01*
X1373D02*
X1400D01*
X1635Y2134D02*
X1639D01*
X1590D02*
X1598D01*
X1533D02*
X1546D01*
X1492D02*
X1512D01*
X1471D02*
X1484D01*
X1445D02*
X1459D01*
X1412D02*
X1426D01*
X1373D02*
X1399D01*
X1635Y2134D02*
X1639D01*
X1589D02*
X1598D01*
X1533D02*
X1578D01*
X1493D02*
X1512D01*
X1471D02*
X1483D01*
X1445D02*
X1459D01*
X1412D02*
X1426D01*
X1374D02*
X1399D01*
X1635Y2135D02*
X1639D01*
X1589D02*
X1599D01*
X1533D02*
X1579D01*
X1493D02*
X1512D01*
X1471D02*
X1483D01*
X1445D02*
X1459D01*
X1412D02*
X1426D01*
X1374D02*
X1399D01*
X1635Y2135D02*
X1639D01*
X1588D02*
X1600D01*
X1533D02*
X1578D01*
X1494D02*
X1513D01*
X1471D02*
X1482D01*
X1444D02*
X1459D01*
X1412D02*
X1427D01*
X1374D02*
X1399D01*
X1635Y2136D02*
X1639D01*
X1588D02*
X1600D01*
X1533D02*
X1578D01*
X1494D02*
X1513D01*
X1472D02*
X1482D01*
X1444D02*
X1459D01*
X1412D02*
X1427D01*
X1374D02*
X1399D01*
X1634Y2136D02*
X1639D01*
X1587D02*
X1600D01*
X1533D02*
X1578D01*
X1494D02*
X1513D01*
X1472D02*
X1481D01*
X1444D02*
X1460D01*
X1412D02*
X1427D01*
X1374D02*
X1399D01*
X1634Y2137D02*
X1639D01*
X1587D02*
X1601D01*
X1533D02*
X1578D01*
X1495D02*
X1513D01*
X1472D02*
X1481D01*
X1444D02*
X1460D01*
X1412D02*
X1427D01*
X1374D02*
X1399D01*
X1634Y2137D02*
X1639D01*
X1587D02*
X1601D01*
X1533D02*
X1578D01*
X1495D02*
X1513D01*
X1472D02*
X1481D01*
X1444D02*
X1460D01*
X1412D02*
X1427D01*
X1374D02*
X1399D01*
X1634Y2138D02*
X1638D01*
X1587D02*
X1601D01*
X1533D02*
X1578D01*
X1495D02*
X1513D01*
X1472D02*
X1481D01*
X1444D02*
X1460D01*
X1411D02*
X1427D01*
X1374D02*
X1398D01*
X1634Y2138D02*
X1638D01*
X1587D02*
X1601D01*
X1533D02*
X1578D01*
X1495D02*
X1513D01*
X1472D02*
X1481D01*
X1444D02*
X1460D01*
X1411D02*
X1427D01*
X1374D02*
X1398D01*
X1634Y2139D02*
X1638D01*
X1586D02*
X1601D01*
X1533D02*
X1578D01*
X1495D02*
X1513D01*
X1472D02*
X1481D01*
X1443D02*
X1460D01*
X1411D02*
X1428D01*
X1374D02*
X1398D01*
X1634Y2139D02*
X1638D01*
X1586D02*
X1601D01*
X1533D02*
X1578D01*
X1495D02*
X1513D01*
X1473D02*
X1480D01*
X1443D02*
X1460D01*
X1411D02*
X1428D01*
X1374D02*
X1398D01*
X1634Y2140D02*
X1638D01*
X1586D02*
X1601D01*
X1533D02*
X1578D01*
X1495D02*
X1513D01*
X1473D02*
X1480D01*
X1443D02*
X1460D01*
X1411D02*
X1428D01*
X1374D02*
X1398D01*
X1634Y2140D02*
X1638D01*
X1586D02*
X1601D01*
X1533D02*
X1578D01*
X1496D02*
X1513D01*
X1473D02*
X1480D01*
X1443D02*
X1461D01*
X1411D02*
X1428D01*
X1375D02*
X1398D01*
X1633Y2141D02*
X1638D01*
X1586D02*
X1601D01*
X1533D02*
X1578D01*
X1495D02*
X1514D01*
X1473D02*
X1480D01*
X1443D02*
X1461D01*
X1411D02*
X1428D01*
X1375D02*
X1398D01*
X1633Y2141D02*
X1638D01*
X1586D02*
X1601D01*
X1533D02*
X1578D01*
X1495D02*
X1514D01*
X1473D02*
X1480D01*
X1443D02*
X1461D01*
X1411D02*
X1428D01*
X1375D02*
X1397D01*
X1633Y2142D02*
X1637D01*
X1586D02*
X1601D01*
X1533D02*
X1578D01*
X1495D02*
X1514D01*
X1473D02*
X1480D01*
X1443D02*
X1461D01*
X1411D02*
X1428D01*
X1375D02*
X1397D01*
X1633Y2142D02*
X1637D01*
X1587D02*
X1601D01*
X1533D02*
X1578D01*
X1495D02*
X1514D01*
X1473D02*
X1481D01*
X1442D02*
X1461D01*
X1410D02*
X1429D01*
X1375D02*
X1397D01*
X1633Y2143D02*
X1637D01*
X1587D02*
X1601D01*
X1533D02*
X1578D01*
X1495D02*
X1514D01*
X1473D02*
X1481D01*
X1442D02*
X1461D01*
X1410D02*
X1429D01*
X1375D02*
X1397D01*
X1633Y2143D02*
X1637D01*
X1587D02*
X1601D01*
X1533D02*
X1578D01*
X1495D02*
X1514D01*
X1474D02*
X1481D01*
X1442D02*
X1461D01*
X1410D02*
X1429D01*
X1375D02*
X1397D01*
X1632Y2144D02*
X1637D01*
X1587D02*
X1601D01*
X1533D02*
X1578D01*
X1495D02*
X1514D01*
X1474D02*
X1481D01*
X1442D02*
X1461D01*
X1410D02*
X1429D01*
X1376D02*
X1397D01*
X1632Y2144D02*
X1637D01*
X1587D02*
X1600D01*
X1533D02*
X1578D01*
X1494D02*
X1515D01*
X1474D02*
X1481D01*
X1442D02*
X1461D01*
X1410D02*
X1429D01*
X1376D02*
X1397D01*
X1632Y2145D02*
X1636D01*
X1588D02*
X1600D01*
X1533D02*
X1578D01*
X1494D02*
X1515D01*
X1474D02*
X1482D01*
X1442D02*
X1462D01*
X1410D02*
X1429D01*
X1376D02*
X1397D01*
X1632Y2145D02*
X1636D01*
X1588D02*
X1600D01*
X1533D02*
X1579D01*
X1494D02*
X1515D01*
X1474D02*
X1482D01*
X1442D02*
X1462D01*
X1410D02*
X1430D01*
X1376D02*
X1396D01*
X1632Y2146D02*
X1636D01*
X1589D02*
X1599D01*
X1533D02*
X1578D01*
X1493D02*
X1515D01*
X1474D02*
X1483D01*
X1441D02*
X1462D01*
X1410D02*
X1430D01*
X1376D02*
X1396D01*
X1631Y2146D02*
X1636D01*
X1589D02*
X1599D01*
X1493D02*
X1515D01*
X1474D02*
X1483D01*
X1473D02*
X1474D01*
X1441D02*
X1462D01*
X1440D02*
X1441D01*
X1439D02*
X1439D01*
X1408D02*
X1430D01*
X1407D02*
X1408D01*
X1397D02*
X1398D01*
X1377D02*
X1397D01*
X1631Y2147D02*
X1636D01*
X1590D02*
X1598D01*
X1492D02*
X1516D01*
X1377D02*
X1484D01*
X1631Y2147D02*
X1635D01*
X1591D02*
X1597D01*
X1491D02*
X1516D01*
X1377D02*
X1485D01*
X1631Y2148D02*
X1635D01*
X1593D02*
X1595D01*
X1489D02*
X1516D01*
X1377D02*
X1487D01*
X1631Y2148D02*
X1635D01*
X1377D02*
X1516D01*
X1630Y2149D02*
X1635D01*
X1378D02*
X1517D01*
X1630Y2149D02*
X1635D01*
X1378D02*
X1517D01*
X1630Y2150D02*
X1634D01*
X1378D02*
X1517D01*
X1629Y2150D02*
X1634D01*
X1378D02*
X1517D01*
X1629Y2151D02*
X1634D01*
X1379D02*
X1518D01*
X1629Y2151D02*
X1633D01*
X1379D02*
X1518D01*
X1628Y2152D02*
X1633D01*
X1379D02*
X1518D01*
X1628Y2152D02*
X1633D01*
X1380D02*
X1519D01*
X1628Y2153D02*
X1633D01*
X1380D02*
X1519D01*
X1627Y2153D02*
X1632D01*
X1380D02*
X1519D01*
X1627Y2154D02*
X1632D01*
X1380D02*
X1520D01*
X1627Y2154D02*
X1632D01*
X1381D02*
X1520D01*
X1626Y2155D02*
X1631D01*
X1381D02*
X1520D01*
X1638Y2155D02*
X1643D01*
X1626D02*
X1631D01*
X1382D02*
X1521D01*
X1636Y2156D02*
X1644D01*
X1625D02*
X1631D01*
X1382D02*
X1521D01*
X1636Y2156D02*
X1645D01*
X1625D02*
X1630D01*
X1382D02*
X1522D01*
X1642Y2157D02*
X1645D01*
X1635D02*
X1638D01*
X1625D02*
X1630D01*
X1383D02*
X1522D01*
X1643Y2157D02*
X1646D01*
X1634D02*
X1637D01*
X1624D02*
X1629D01*
X1383D02*
X1522D01*
X1644Y2158D02*
X1646D01*
X1634D02*
X1636D01*
X1624D02*
X1629D01*
X1383D02*
X1523D01*
X1645Y2158D02*
X1647D01*
X1634D02*
X1636D01*
X1623D02*
X1629D01*
X1384D02*
X1523D01*
X1645Y2159D02*
X1647D01*
X1642D02*
X1644D01*
X1637D02*
X1638D01*
X1633D02*
X1635D01*
X1623D02*
X1628D01*
X1384D02*
X1524D01*
X1645Y2159D02*
X1647D01*
X1641D02*
X1644D01*
X1637D02*
X1638D01*
X1633D02*
X1635D01*
X1622D02*
X1628D01*
X1385D02*
X1524D01*
X1646Y2160D02*
X1648D01*
X1641D02*
X1643D01*
X1637D02*
X1638D01*
X1633D02*
X1635D01*
X1622D02*
X1627D01*
X1385D02*
X1525D01*
X1646Y2160D02*
X1648D01*
X1641D02*
X1643D01*
X1637D02*
X1638D01*
X1633D02*
X1634D01*
X1621D02*
X1627D01*
X1386D02*
X1525D01*
X1646Y2161D02*
X1648D01*
X1640D02*
X1643D01*
X1637D02*
X1638D01*
X1632D02*
X1634D01*
X1620D02*
X1626D01*
X1386D02*
X1526D01*
X1646Y2161D02*
X1648D01*
X1640D02*
X1642D01*
X1637D02*
X1638D01*
X1632D02*
X1634D01*
X1620D02*
X1626D01*
X1387D02*
X1527D01*
X1646Y2162D02*
X1648D01*
X1639D02*
X1642D01*
X1637D02*
X1638D01*
X1632D02*
X1634D01*
X1619D02*
X1625D01*
X1387D02*
X1527D01*
X1646Y2162D02*
X1648D01*
X1637D02*
X1642D01*
X1632D02*
X1634D01*
X1618D02*
X1625D01*
X1388D02*
X1528D01*
X1646Y2163D02*
X1648D01*
X1637D02*
X1643D01*
X1632D02*
X1634D01*
X1618D02*
X1624D01*
X1388D02*
X1529D01*
X1646Y2163D02*
X1648D01*
X1637D02*
X1643D01*
X1632D02*
X1634D01*
X1617D02*
X1624D01*
X1389D02*
X1529D01*
X1646Y2164D02*
X1648D01*
X1641D02*
X1643D01*
X1637D02*
X1638D01*
X1632D02*
X1634D01*
X1616D02*
X1623D01*
X1389D02*
X1530D01*
X1646Y2164D02*
X1648D01*
X1641D02*
X1643D01*
X1637D02*
X1638D01*
X1632D02*
X1634D01*
X1615D02*
X1622D01*
X1390D02*
X1531D01*
X1646Y2165D02*
X1648D01*
X1641D02*
X1643D01*
X1637D02*
X1638D01*
X1633D02*
X1634D01*
X1615D02*
X1622D01*
X1391D02*
X1532D01*
X1646Y2165D02*
X1648D01*
X1641D02*
X1643D01*
X1637D02*
X1638D01*
X1633D02*
X1635D01*
X1614D02*
X1621D01*
X1391D02*
X1533D01*
X1646Y2166D02*
X1647D01*
X1637D02*
X1643D01*
X1633D02*
X1635D01*
X1613D02*
X1620D01*
X1392D02*
X1534D01*
X1645Y2166D02*
X1647D01*
X1637D02*
X1643D01*
X1633D02*
X1635D01*
X1612D02*
X1620D01*
X1393D02*
X1535D01*
X1645Y2167D02*
X1647D01*
X1637D02*
X1641D01*
X1633D02*
X1635D01*
X1610D02*
X1619D01*
X1393D02*
X1536D01*
X1644Y2167D02*
X1647D01*
X1634D02*
X1636D01*
X1609D02*
X1618D01*
X1394D02*
X1537D01*
X1644Y2168D02*
X1646D01*
X1634D02*
X1637D01*
X1608D02*
X1617D01*
X1395D02*
X1538D01*
X1643Y2168D02*
X1646D01*
X1634D02*
X1637D01*
X1606D02*
X1617D01*
X1396D02*
X1540D01*
X1642Y2169D02*
X1645D01*
X1635D02*
X1639D01*
X1604D02*
X1616D01*
X1397D02*
X1542D01*
X1636Y2169D02*
X1645D01*
X1601D02*
X1615D01*
X1398D02*
X1545D01*
X1636Y2170D02*
X1644D01*
X1399D02*
X1614D01*
X1638Y2170D02*
X1643D01*
X1400D02*
X1613D01*
X1401Y2171D02*
X1611D01*
X1402Y2171D02*
X1610D01*
X1404Y2172D02*
X1609D01*
X1405Y2172D02*
X1607D01*
X1407Y2173D02*
X1605D01*
X1409Y2173D02*
X1603D01*
X1412Y2174D02*
X1600D01*
X395Y2057D02*
X580D01*
X391Y2058D02*
X584D01*
X389Y2058D02*
X586D01*
X387Y2059D02*
X588D01*
X386Y2059D02*
X590D01*
X384Y2060D02*
X591D01*
X382Y2060D02*
X592D01*
X382Y2061D02*
X594D01*
X380Y2061D02*
X595D01*
X581Y2062D02*
X595D01*
X380D02*
X475D01*
X585Y2062D02*
X596D01*
X379D02*
X475D01*
X587Y2063D02*
X598D01*
X377D02*
X476D01*
X589Y2063D02*
X599D01*
X377D02*
X477D01*
X590Y2064D02*
X600D01*
X375D02*
X477D01*
X591Y2064D02*
X600D01*
X375D02*
X477D01*
X592Y2065D02*
X601D01*
X374D02*
X478D01*
X594Y2065D02*
X601D01*
X373D02*
X479D01*
X595Y2066D02*
X602D01*
X373D02*
X479D01*
X595Y2066D02*
X603D01*
X372D02*
X479D01*
X596Y2067D02*
X604D01*
X371D02*
X480D01*
X598Y2067D02*
X604D01*
X371D02*
X481D01*
X598Y2068D02*
X604D01*
X370D02*
X481D01*
X599Y2068D02*
X605D01*
X370D02*
X481D01*
X600Y2069D02*
X606D01*
X369D02*
X482D01*
X600Y2069D02*
X607D01*
X368D02*
X482D01*
X601Y2070D02*
X607D01*
X368D02*
X482D01*
X601Y2070D02*
X608D01*
X368D02*
X483D01*
X602Y2071D02*
X608D01*
X367D02*
X484D01*
X603Y2071D02*
X609D01*
X366D02*
X484D01*
X603Y2072D02*
X609D01*
X366D02*
X484D01*
X604Y2072D02*
X609D01*
X366D02*
X484D01*
X604Y2073D02*
X609D01*
X365D02*
X485D01*
X605Y2073D02*
X610D01*
X365D02*
X485D01*
X605Y2074D02*
X610D01*
X364D02*
X486D01*
X605Y2074D02*
X611D01*
X364D02*
X486D01*
X606Y2075D02*
X612D01*
X363D02*
X486D01*
X607Y2075D02*
X612D01*
X363D02*
X486D01*
X607Y2076D02*
X612D01*
X363D02*
X487D01*
X608Y2076D02*
X613D01*
X363D02*
X487D01*
X608Y2077D02*
X613D01*
X362D02*
X488D01*
X608Y2077D02*
X613D01*
X362D02*
X488D01*
X609Y2078D02*
X613D01*
X361D02*
X488D01*
X609Y2078D02*
X614D01*
X361D02*
X488D01*
X609Y2079D02*
X614D01*
X361D02*
X488D01*
X609Y2079D02*
X614D01*
X361D02*
X488D01*
X610Y2080D02*
X614D01*
X361D02*
X489D01*
X610Y2080D02*
X615D01*
X360D02*
X489D01*
X610Y2081D02*
X615D01*
X359D02*
X489D01*
X611Y2081D02*
X615D01*
X359D02*
X489D01*
X611Y2082D02*
X615D01*
X359D02*
X489D01*
X612Y2082D02*
X616D01*
X359D02*
X490D01*
X612Y2083D02*
X616D01*
X359D02*
X490D01*
X612Y2083D02*
X617D01*
X359D02*
X491D01*
X612Y2084D02*
X617D01*
X359D02*
X491D01*
X613Y2084D02*
X617D01*
X358D02*
X491D01*
X613Y2085D02*
X617D01*
X358D02*
X491D01*
X613Y2085D02*
X618D01*
X581D02*
X581D01*
X572D02*
X580D01*
X570D02*
X571D01*
X515D02*
X527D01*
X475D02*
X491D01*
X440D02*
X463D01*
X431D02*
X431D01*
X430D02*
X430D01*
X403D02*
X428D01*
X395D02*
X396D01*
X357D02*
X394D01*
X613Y2086D02*
X618D01*
X568D02*
X581D01*
X514D02*
X527D01*
X475D02*
X491D01*
X440D02*
X463D01*
X405D02*
X428D01*
X357D02*
X394D01*
X613Y2086D02*
X618D01*
X568D02*
X581D01*
X514D02*
X527D01*
X475D02*
X491D01*
X440D02*
X463D01*
X405D02*
X428D01*
X357D02*
X394D01*
X613Y2087D02*
X618D01*
X568D02*
X581D01*
X514D02*
X527D01*
X475D02*
X491D01*
X440D02*
X463D01*
X405D02*
X428D01*
X357D02*
X394D01*
X613Y2087D02*
X618D01*
X568D02*
X581D01*
X514D02*
X527D01*
X475D02*
X491D01*
X440D02*
X463D01*
X405D02*
X428D01*
X357D02*
X393D01*
X614Y2088D02*
X618D01*
X568D02*
X581D01*
X514D02*
X527D01*
X475D02*
X491D01*
X440D02*
X463D01*
X405D02*
X428D01*
X356D02*
X393D01*
X614Y2088D02*
X618D01*
X568D02*
X581D01*
X514D02*
X527D01*
X475D02*
X492D01*
X440D02*
X463D01*
X405D02*
X428D01*
X356D02*
X393D01*
X614Y2089D02*
X618D01*
X568D02*
X581D01*
X514D02*
X527D01*
X475D02*
X492D01*
X440D02*
X463D01*
X405D02*
X428D01*
X356D02*
X393D01*
X614Y2089D02*
X618D01*
X568D02*
X581D01*
X514D02*
X527D01*
X475D02*
X492D01*
X440D02*
X463D01*
X405D02*
X428D01*
X356D02*
X393D01*
X614Y2090D02*
X619D01*
X568D02*
X581D01*
X514D02*
X527D01*
X475D02*
X492D01*
X440D02*
X463D01*
X405D02*
X428D01*
X356D02*
X393D01*
X614Y2090D02*
X619D01*
X568D02*
X581D01*
X514D02*
X527D01*
X475D02*
X493D01*
X441D02*
X463D01*
X405D02*
X427D01*
X356D02*
X393D01*
X615Y2091D02*
X619D01*
X568D02*
X581D01*
X514D02*
X527D01*
X475D02*
X493D01*
X441D02*
X463D01*
X406D02*
X427D01*
X356D02*
X392D01*
X615Y2091D02*
X619D01*
X568D02*
X581D01*
X514D02*
X527D01*
X475D02*
X493D01*
X441D02*
X463D01*
X406D02*
X427D01*
X356D02*
X392D01*
X615Y2092D02*
X619D01*
X568D02*
X581D01*
X514D02*
X527D01*
X475D02*
X493D01*
X442D02*
X463D01*
X406D02*
X426D01*
X356D02*
X392D01*
X615Y2092D02*
X619D01*
X568D02*
X581D01*
X514D02*
X527D01*
X475D02*
X493D01*
X442D02*
X463D01*
X407D02*
X426D01*
X356D02*
X392D01*
X615Y2093D02*
X619D01*
X568D02*
X581D01*
X514D02*
X527D01*
X475D02*
X493D01*
X442D02*
X463D01*
X407D02*
X426D01*
X356D02*
X391D01*
X615Y2093D02*
X619D01*
X568D02*
X581D01*
X514D02*
X527D01*
X475D02*
X493D01*
X442D02*
X463D01*
X407D02*
X426D01*
X356D02*
X391D01*
X615Y2094D02*
X619D01*
X568D02*
X581D01*
X514D02*
X527D01*
X475D02*
X493D01*
X442D02*
X463D01*
X407D02*
X426D01*
X355D02*
X391D01*
X615Y2094D02*
X620D01*
X568D02*
X581D01*
X514D02*
X527D01*
X475D02*
X493D01*
X442D02*
X463D01*
X407D02*
X426D01*
X355D02*
X391D01*
X615Y2095D02*
X620D01*
X568D02*
X581D01*
X514D02*
X527D01*
X475D02*
X493D01*
X442D02*
X463D01*
X407D02*
X426D01*
X355D02*
X391D01*
X616Y2095D02*
X620D01*
X568D02*
X581D01*
X514D02*
X527D01*
X475D02*
X493D01*
X442D02*
X463D01*
X407D02*
X426D01*
X355D02*
X391D01*
X616Y2096D02*
X620D01*
X568D02*
X581D01*
X514D02*
X527D01*
X475D02*
X493D01*
X442D02*
X463D01*
X407D02*
X426D01*
X355D02*
X391D01*
X616Y2096D02*
X620D01*
X568D02*
X581D01*
X514D02*
X527D01*
X475D02*
X493D01*
X442D02*
X463D01*
X407D02*
X426D01*
X355D02*
X391D01*
X616Y2097D02*
X620D01*
X568D02*
X581D01*
X514D02*
X527D01*
X475D02*
X493D01*
X442D02*
X463D01*
X407D02*
X425D01*
X355D02*
X391D01*
X616Y2097D02*
X621D01*
X568D02*
X581D01*
X514D02*
X527D01*
X475D02*
X493D01*
X442D02*
X463D01*
X407D02*
X425D01*
X354D02*
X391D01*
X616Y2098D02*
X621D01*
X568D02*
X581D01*
X514D02*
X527D01*
X475D02*
X493D01*
X443D02*
X463D01*
X408D02*
X425D01*
X354D02*
X391D01*
X616Y2098D02*
X621D01*
X568D02*
X581D01*
X514D02*
X527D01*
X475D02*
X493D01*
X443D02*
X463D01*
X408D02*
X425D01*
X354D02*
X390D01*
X616Y2099D02*
X621D01*
X568D02*
X581D01*
X514D02*
X527D01*
X475D02*
X493D01*
X443D02*
X463D01*
X408D02*
X424D01*
X354D02*
X390D01*
X616Y2099D02*
X621D01*
X568D02*
X581D01*
X514D02*
X527D01*
X475D02*
X493D01*
X443D02*
X463D01*
X408D02*
X424D01*
X354D02*
X390D01*
X616Y2100D02*
X621D01*
X568D02*
X581D01*
X514D02*
X527D01*
X475D02*
X493D01*
X444D02*
X463D01*
X408D02*
X424D01*
X354D02*
X390D01*
X616Y2100D02*
X621D01*
X568D02*
X581D01*
X514D02*
X527D01*
X475D02*
X493D01*
X444D02*
X463D01*
X408D02*
X424D01*
X354D02*
X389D01*
X616Y2101D02*
X621D01*
X568D02*
X581D01*
X514D02*
X527D01*
X475D02*
X493D01*
X444D02*
X463D01*
X408D02*
X424D01*
X354D02*
X389D01*
X616Y2101D02*
X621D01*
X568D02*
X581D01*
X514D02*
X527D01*
X475D02*
X493D01*
X444D02*
X463D01*
X409D02*
X424D01*
X354D02*
X389D01*
X616Y2102D02*
X621D01*
X568D02*
X581D01*
X514D02*
X527D01*
X475D02*
X493D01*
X444D02*
X463D01*
X409D02*
X424D01*
X354D02*
X389D01*
X616Y2102D02*
X621D01*
X568D02*
X581D01*
X514D02*
X527D01*
X475D02*
X493D01*
X444D02*
X463D01*
X409D02*
X424D01*
X354D02*
X389D01*
X616Y2103D02*
X621D01*
X568D02*
X581D01*
X514D02*
X527D01*
X475D02*
X493D01*
X444D02*
X463D01*
X410D02*
X424D01*
X354D02*
X389D01*
X616Y2103D02*
X621D01*
X568D02*
X581D01*
X514D02*
X527D01*
X475D02*
X493D01*
X444D02*
X463D01*
X410D02*
X424D01*
X354D02*
X389D01*
X616Y2104D02*
X621D01*
X568D02*
X581D01*
X514D02*
X527D01*
X475D02*
X493D01*
X444D02*
X463D01*
X410D02*
X424D01*
X354D02*
X389D01*
X616Y2104D02*
X621D01*
X568D02*
X581D01*
X514D02*
X527D01*
X475D02*
X493D01*
X444D02*
X463D01*
X410D02*
X423D01*
X354D02*
X389D01*
X616Y2105D02*
X621D01*
X568D02*
X581D01*
X514D02*
X527D01*
X475D02*
X493D01*
X444D02*
X463D01*
X410D02*
X423D01*
X354D02*
X389D01*
X616Y2105D02*
X621D01*
X568D02*
X581D01*
X514D02*
X527D01*
X475D02*
X493D01*
X445D02*
X463D01*
X410D02*
X423D01*
X354D02*
X389D01*
X616Y2106D02*
X621D01*
X568D02*
X581D01*
X514D02*
X527D01*
X475D02*
X493D01*
X445D02*
X463D01*
X410D02*
X423D01*
X354D02*
X388D01*
X616Y2106D02*
X621D01*
X568D02*
X581D01*
X514D02*
X527D01*
X475D02*
X493D01*
X445D02*
X463D01*
X410D02*
X423D01*
X354D02*
X388D01*
X616Y2107D02*
X621D01*
X568D02*
X581D01*
X514D02*
X527D01*
X475D02*
X493D01*
X445D02*
X463D01*
X433D02*
X434D01*
X410D02*
X423D01*
X354D02*
X388D01*
X616Y2107D02*
X621D01*
X568D02*
X581D01*
X514D02*
X527D01*
X475D02*
X493D01*
X445D02*
X463D01*
X433D02*
X434D01*
X410D02*
X422D01*
X354D02*
X388D01*
X616Y2108D02*
X621D01*
X568D02*
X581D01*
X514D02*
X527D01*
X475D02*
X493D01*
X445D02*
X463D01*
X433D02*
X435D01*
X411D02*
X422D01*
X354D02*
X387D01*
X616Y2108D02*
X621D01*
X568D02*
X581D01*
X514D02*
X527D01*
X475D02*
X493D01*
X445D02*
X463D01*
X433D02*
X435D01*
X411D02*
X422D01*
X400D02*
X400D01*
X354D02*
X387D01*
X616Y2109D02*
X621D01*
X568D02*
X581D01*
X514D02*
X527D01*
X475D02*
X493D01*
X445D02*
X463D01*
X433D02*
X435D01*
X411D02*
X422D01*
X399D02*
X400D01*
X354D02*
X387D01*
X616Y2109D02*
X621D01*
X568D02*
X581D01*
X514D02*
X558D01*
X475D02*
X493D01*
X446D02*
X463D01*
X433D02*
X435D01*
X411D02*
X421D01*
X399D02*
X400D01*
X354D02*
X387D01*
X616Y2110D02*
X621D01*
X568D02*
X581D01*
X514D02*
X558D01*
X475D02*
X493D01*
X446D02*
X463D01*
X433D02*
X435D01*
X412D02*
X421D01*
X399D02*
X400D01*
X354D02*
X387D01*
X616Y2110D02*
X621D01*
X568D02*
X581D01*
X514D02*
X558D01*
X475D02*
X493D01*
X446D02*
X463D01*
X433D02*
X435D01*
X412D02*
X421D01*
X399D02*
X400D01*
X354D02*
X387D01*
X616Y2111D02*
X621D01*
X568D02*
X581D01*
X514D02*
X558D01*
X475D02*
X493D01*
X447D02*
X463D01*
X433D02*
X435D01*
X412D02*
X421D01*
X398D02*
X400D01*
X354D02*
X387D01*
X616Y2111D02*
X621D01*
X568D02*
X581D01*
X514D02*
X558D01*
X475D02*
X493D01*
X447D02*
X463D01*
X433D02*
X435D01*
X412D02*
X421D01*
X398D02*
X400D01*
X354D02*
X387D01*
X616Y2112D02*
X621D01*
X568D02*
X581D01*
X514D02*
X558D01*
X475D02*
X493D01*
X447D02*
X463D01*
X433D02*
X435D01*
X412D02*
X421D01*
X398D02*
X401D01*
X354D02*
X387D01*
X616Y2112D02*
X621D01*
X568D02*
X581D01*
X514D02*
X558D01*
X475D02*
X493D01*
X447D02*
X463D01*
X432D02*
X435D01*
X412D02*
X421D01*
X398D02*
X401D01*
X354D02*
X387D01*
X616Y2113D02*
X621D01*
X568D02*
X581D01*
X514D02*
X558D01*
X475D02*
X493D01*
X447D02*
X463D01*
X432D02*
X435D01*
X412D02*
X421D01*
X398D02*
X401D01*
X354D02*
X387D01*
X616Y2113D02*
X621D01*
X568D02*
X581D01*
X514D02*
X558D01*
X475D02*
X493D01*
X447D02*
X463D01*
X432D02*
X435D01*
X412D02*
X421D01*
X398D02*
X401D01*
X354D02*
X386D01*
X616Y2114D02*
X621D01*
X568D02*
X581D01*
X514D02*
X558D01*
X475D02*
X493D01*
X447D02*
X463D01*
X432D02*
X435D01*
X412D02*
X421D01*
X398D02*
X401D01*
X354D02*
X386D01*
X616Y2114D02*
X621D01*
X568D02*
X581D01*
X514D02*
X558D01*
X475D02*
X493D01*
X447D02*
X463D01*
X431D02*
X436D01*
X412D02*
X420D01*
X398D02*
X401D01*
X354D02*
X386D01*
X616Y2115D02*
X621D01*
X568D02*
X581D01*
X514D02*
X558D01*
X475D02*
X493D01*
X447D02*
X463D01*
X431D02*
X436D01*
X413D02*
X420D01*
X398D02*
X402D01*
X354D02*
X386D01*
X616Y2115D02*
X621D01*
X568D02*
X581D01*
X514D02*
X558D01*
X475D02*
X493D01*
X447D02*
X463D01*
X431D02*
X436D01*
X413D02*
X420D01*
X398D02*
X402D01*
X354D02*
X386D01*
X616Y2116D02*
X621D01*
X568D02*
X581D01*
X514D02*
X558D01*
X475D02*
X493D01*
X447D02*
X463D01*
X431D02*
X436D01*
X413D02*
X420D01*
X398D02*
X402D01*
X354D02*
X386D01*
X616Y2116D02*
X621D01*
X568D02*
X581D01*
X514D02*
X558D01*
X475D02*
X493D01*
X447D02*
X463D01*
X431D02*
X437D01*
X413D02*
X419D01*
X398D02*
X402D01*
X354D02*
X386D01*
X616Y2117D02*
X621D01*
X568D02*
X581D01*
X514D02*
X558D01*
X475D02*
X493D01*
X448D02*
X463D01*
X431D02*
X437D01*
X414D02*
X419D01*
X398D02*
X403D01*
X354D02*
X386D01*
X616Y2117D02*
X621D01*
X568D02*
X581D01*
X514D02*
X558D01*
X475D02*
X493D01*
X448D02*
X463D01*
X431D02*
X437D01*
X414D02*
X419D01*
X398D02*
X403D01*
X354D02*
X385D01*
X616Y2118D02*
X621D01*
X568D02*
X581D01*
X514D02*
X558D01*
X475D02*
X493D01*
X448D02*
X463D01*
X431D02*
X437D01*
X414D02*
X419D01*
X397D02*
X403D01*
X354D02*
X385D01*
X616Y2118D02*
X621D01*
X568D02*
X581D01*
X514D02*
X558D01*
X475D02*
X493D01*
X448D02*
X463D01*
X431D02*
X437D01*
X414D02*
X419D01*
X397D02*
X403D01*
X354D02*
X385D01*
X616Y2119D02*
X621D01*
X568D02*
X581D01*
X514D02*
X558D01*
X475D02*
X493D01*
X449D02*
X463D01*
X431D02*
X437D01*
X414D02*
X419D01*
X397D02*
X403D01*
X354D02*
X384D01*
X616Y2119D02*
X621D01*
X568D02*
X581D01*
X514D02*
X558D01*
X475D02*
X493D01*
X449D02*
X463D01*
X430D02*
X437D01*
X414D02*
X419D01*
X397D02*
X403D01*
X354D02*
X384D01*
X616Y2120D02*
X621D01*
X568D02*
X581D01*
X514D02*
X558D01*
X475D02*
X493D01*
X449D02*
X463D01*
X430D02*
X437D01*
X414D02*
X419D01*
X396D02*
X403D01*
X354D02*
X384D01*
X616Y2120D02*
X621D01*
X568D02*
X581D01*
X514D02*
X558D01*
X475D02*
X493D01*
X449D02*
X463D01*
X430D02*
X437D01*
X414D02*
X419D01*
X396D02*
X403D01*
X354D02*
X384D01*
X616Y2121D02*
X621D01*
X568D02*
X581D01*
X514D02*
X558D01*
X475D02*
X493D01*
X449D02*
X463D01*
X430D02*
X438D01*
X414D02*
X419D01*
X396D02*
X403D01*
X354D02*
X384D01*
X616Y2121D02*
X621D01*
X568D02*
X581D01*
X514D02*
X558D01*
X475D02*
X493D01*
X449D02*
X463D01*
X430D02*
X438D01*
X414D02*
X418D01*
X396D02*
X403D01*
X354D02*
X384D01*
X616Y2122D02*
X621D01*
X568D02*
X581D01*
X514D02*
X527D01*
X475D02*
X493D01*
X449D02*
X463D01*
X430D02*
X438D01*
X415D02*
X418D01*
X396D02*
X404D01*
X354D02*
X384D01*
X616Y2122D02*
X621D01*
X568D02*
X581D01*
X514D02*
X527D01*
X475D02*
X493D01*
X449D02*
X463D01*
X430D02*
X438D01*
X415D02*
X418D01*
X396D02*
X404D01*
X354D02*
X384D01*
X616Y2123D02*
X621D01*
X568D02*
X581D01*
X514D02*
X527D01*
X475D02*
X493D01*
X449D02*
X463D01*
X429D02*
X438D01*
X415D02*
X418D01*
X396D02*
X404D01*
X354D02*
X384D01*
X616Y2123D02*
X621D01*
X568D02*
X581D01*
X514D02*
X527D01*
X475D02*
X493D01*
X449D02*
X463D01*
X429D02*
X438D01*
X415D02*
X417D01*
X396D02*
X405D01*
X354D02*
X384D01*
X616Y2124D02*
X621D01*
X568D02*
X581D01*
X514D02*
X527D01*
X475D02*
X493D01*
X449D02*
X463D01*
X429D02*
X438D01*
X415D02*
X417D01*
X396D02*
X405D01*
X354D02*
X384D01*
X616Y2124D02*
X621D01*
X568D02*
X581D01*
X514D02*
X527D01*
X475D02*
X493D01*
X450D02*
X463D01*
X428D02*
X438D01*
X415D02*
X417D01*
X396D02*
X405D01*
X354D02*
X383D01*
X616Y2125D02*
X621D01*
X568D02*
X581D01*
X514D02*
X527D01*
X475D02*
X493D01*
X450D02*
X463D01*
X428D02*
X438D01*
X415D02*
X417D01*
X396D02*
X405D01*
X354D02*
X383D01*
X616Y2125D02*
X621D01*
X568D02*
X581D01*
X514D02*
X527D01*
X475D02*
X493D01*
X450D02*
X463D01*
X428D02*
X438D01*
X416D02*
X417D01*
X396D02*
X405D01*
X354D02*
X383D01*
X616Y2126D02*
X621D01*
X568D02*
X581D01*
X514D02*
X527D01*
X475D02*
X493D01*
X450D02*
X463D01*
X428D02*
X438D01*
X416D02*
X417D01*
X396D02*
X405D01*
X354D02*
X383D01*
X616Y2126D02*
X621D01*
X568D02*
X581D01*
X514D02*
X527D01*
X475D02*
X493D01*
X451D02*
X463D01*
X428D02*
X438D01*
X416D02*
X417D01*
X396D02*
X405D01*
X354D02*
X382D01*
X616Y2127D02*
X621D01*
X568D02*
X581D01*
X514D02*
X527D01*
X475D02*
X493D01*
X451D02*
X463D01*
X428D02*
X438D01*
X416D02*
X417D01*
X395D02*
X405D01*
X354D02*
X382D01*
X616Y2127D02*
X621D01*
X514D02*
X527D01*
X451D02*
X493D01*
X428D02*
X439D01*
X395D02*
X405D01*
X354D02*
X382D01*
X616Y2128D02*
X621D01*
X514D02*
X527D01*
X451D02*
X493D01*
X428D02*
X439D01*
X395D02*
X405D01*
X354D02*
X382D01*
X616Y2128D02*
X621D01*
X514D02*
X527D01*
X451D02*
X493D01*
X428D02*
X439D01*
X395D02*
X406D01*
X354D02*
X382D01*
X616Y2129D02*
X621D01*
X514D02*
X527D01*
X451D02*
X493D01*
X428D02*
X439D01*
X394D02*
X406D01*
X354D02*
X382D01*
X616Y2129D02*
X621D01*
X514D02*
X527D01*
X451D02*
X493D01*
X428D02*
X440D01*
X394D02*
X406D01*
X354D02*
X382D01*
X616Y2130D02*
X621D01*
X514D02*
X527D01*
X451D02*
X493D01*
X427D02*
X440D01*
X394D02*
X406D01*
X354D02*
X382D01*
X616Y2130D02*
X621D01*
X514D02*
X527D01*
X451D02*
X493D01*
X427D02*
X440D01*
X394D02*
X407D01*
X354D02*
X382D01*
X616Y2131D02*
X621D01*
X514D02*
X527D01*
X451D02*
X493D01*
X427D02*
X440D01*
X394D02*
X407D01*
X354D02*
X382D01*
X616Y2131D02*
X621D01*
X514D02*
X527D01*
X451D02*
X493D01*
X427D02*
X440D01*
X394D02*
X407D01*
X354D02*
X382D01*
X616Y2132D02*
X621D01*
X514D02*
X527D01*
X452D02*
X493D01*
X426D02*
X440D01*
X394D02*
X407D01*
X354D02*
X381D01*
X616Y2132D02*
X621D01*
X514D02*
X527D01*
X452D02*
X493D01*
X426D02*
X440D01*
X394D02*
X407D01*
X354D02*
X381D01*
X616Y2133D02*
X621D01*
X575D02*
X575D01*
X514D02*
X527D01*
X469D02*
X493D01*
X452D02*
X468D01*
X426D02*
X440D01*
X394D02*
X407D01*
X354D02*
X381D01*
X616Y2133D02*
X621D01*
X572D02*
X578D01*
X514D02*
X527D01*
X472D02*
X493D01*
X452D02*
X467D01*
X426D02*
X440D01*
X394D02*
X407D01*
X354D02*
X381D01*
X616Y2134D02*
X621D01*
X571D02*
X579D01*
X514D02*
X527D01*
X473D02*
X493D01*
X452D02*
X465D01*
X426D02*
X440D01*
X394D02*
X407D01*
X354D02*
X380D01*
X616Y2134D02*
X620D01*
X571D02*
X580D01*
X514D02*
X559D01*
X474D02*
X493D01*
X452D02*
X465D01*
X426D02*
X440D01*
X394D02*
X407D01*
X355D02*
X380D01*
X616Y2135D02*
X620D01*
X570D02*
X581D01*
X514D02*
X560D01*
X475D02*
X493D01*
X452D02*
X464D01*
X426D02*
X440D01*
X394D02*
X407D01*
X355D02*
X380D01*
X616Y2135D02*
X620D01*
X570D02*
X581D01*
X514D02*
X559D01*
X475D02*
X494D01*
X452D02*
X463D01*
X426D02*
X440D01*
X393D02*
X408D01*
X355D02*
X380D01*
X616Y2136D02*
X620D01*
X569D02*
X581D01*
X514D02*
X559D01*
X475D02*
X494D01*
X453D02*
X463D01*
X426D02*
X440D01*
X393D02*
X408D01*
X355D02*
X380D01*
X615Y2136D02*
X620D01*
X568D02*
X581D01*
X514D02*
X559D01*
X475D02*
X494D01*
X453D02*
X463D01*
X426D02*
X441D01*
X393D02*
X408D01*
X355D02*
X380D01*
X615Y2137D02*
X620D01*
X568D02*
X582D01*
X514D02*
X559D01*
X476D02*
X494D01*
X453D02*
X463D01*
X425D02*
X441D01*
X393D02*
X408D01*
X355D02*
X380D01*
X615Y2137D02*
X620D01*
X568D02*
X582D01*
X514D02*
X559D01*
X476D02*
X494D01*
X454D02*
X462D01*
X425D02*
X441D01*
X393D02*
X408D01*
X355D02*
X380D01*
X615Y2138D02*
X619D01*
X568D02*
X582D01*
X514D02*
X559D01*
X477D02*
X494D01*
X454D02*
X462D01*
X425D02*
X441D01*
X393D02*
X408D01*
X356D02*
X380D01*
X615Y2138D02*
X619D01*
X568D02*
X582D01*
X514D02*
X559D01*
X477D02*
X494D01*
X454D02*
X462D01*
X425D02*
X442D01*
X393D02*
X408D01*
X356D02*
X380D01*
X615Y2139D02*
X619D01*
X567D02*
X582D01*
X514D02*
X559D01*
X477D02*
X495D01*
X454D02*
X462D01*
X424D02*
X442D01*
X393D02*
X409D01*
X356D02*
X380D01*
X615Y2139D02*
X619D01*
X567D02*
X582D01*
X514D02*
X559D01*
X477D02*
X495D01*
X454D02*
X461D01*
X424D02*
X442D01*
X393D02*
X409D01*
X356D02*
X379D01*
X615Y2140D02*
X619D01*
X567D02*
X582D01*
X514D02*
X559D01*
X477D02*
X495D01*
X454D02*
X461D01*
X424D02*
X442D01*
X392D02*
X409D01*
X356D02*
X379D01*
X615Y2140D02*
X619D01*
X567D02*
X582D01*
X514D02*
X559D01*
X477D02*
X495D01*
X454D02*
X461D01*
X424D02*
X442D01*
X392D02*
X410D01*
X356D02*
X379D01*
X614Y2141D02*
X619D01*
X567D02*
X582D01*
X514D02*
X559D01*
X477D02*
X495D01*
X454D02*
X461D01*
X424D02*
X442D01*
X392D02*
X410D01*
X356D02*
X379D01*
X614Y2141D02*
X619D01*
X567D02*
X582D01*
X514D02*
X559D01*
X477D02*
X495D01*
X454D02*
X461D01*
X424D02*
X442D01*
X392D02*
X410D01*
X356D02*
X379D01*
X614Y2142D02*
X618D01*
X567D02*
X582D01*
X514D02*
X559D01*
X477D02*
X495D01*
X454D02*
X461D01*
X424D02*
X442D01*
X392D02*
X410D01*
X356D02*
X379D01*
X614Y2142D02*
X618D01*
X568D02*
X582D01*
X514D02*
X559D01*
X477D02*
X495D01*
X454D02*
X462D01*
X424D02*
X442D01*
X391D02*
X410D01*
X356D02*
X379D01*
X614Y2143D02*
X618D01*
X568D02*
X582D01*
X514D02*
X559D01*
X477D02*
X495D01*
X454D02*
X462D01*
X424D02*
X442D01*
X391D02*
X410D01*
X356D02*
X379D01*
X614Y2143D02*
X618D01*
X568D02*
X582D01*
X514D02*
X559D01*
X476D02*
X495D01*
X455D02*
X462D01*
X424D02*
X442D01*
X391D02*
X410D01*
X356D02*
X378D01*
X613Y2144D02*
X618D01*
X568D02*
X582D01*
X514D02*
X559D01*
X476D02*
X495D01*
X455D02*
X463D01*
X423D02*
X442D01*
X391D02*
X410D01*
X357D02*
X378D01*
X613Y2144D02*
X618D01*
X568D02*
X581D01*
X514D02*
X559D01*
X475D02*
X496D01*
X455D02*
X463D01*
X423D02*
X442D01*
X391D02*
X410D01*
X357D02*
X378D01*
X613Y2145D02*
X618D01*
X569D02*
X581D01*
X514D02*
X559D01*
X475D02*
X496D01*
X455D02*
X463D01*
X423D02*
X443D01*
X391D02*
X410D01*
X357D02*
X378D01*
X613Y2145D02*
X618D01*
X570D02*
X581D01*
X514D02*
X560D01*
X475D02*
X496D01*
X456D02*
X463D01*
X423D02*
X443D01*
X391D02*
X411D01*
X357D02*
X377D01*
X613Y2146D02*
X618D01*
X570D02*
X581D01*
X514D02*
X559D01*
X475D02*
X496D01*
X456D02*
X464D01*
X423D02*
X443D01*
X391D02*
X411D01*
X357D02*
X377D01*
X613Y2146D02*
X617D01*
X571D02*
X580D01*
X474D02*
X496D01*
X456D02*
X465D01*
X454D02*
X455D01*
X423D02*
X444D01*
X421D02*
X422D01*
X420D02*
X421D01*
X389D02*
X411D01*
X388D02*
X389D01*
X379D02*
X379D01*
X358D02*
X378D01*
X613Y2147D02*
X617D01*
X571D02*
X579D01*
X473D02*
X497D01*
X358D02*
X465D01*
X613Y2147D02*
X617D01*
X572D02*
X578D01*
X472D02*
X497D01*
X358D02*
X466D01*
X612Y2148D02*
X617D01*
X574D02*
X576D01*
X470D02*
X498D01*
X359D02*
X468D01*
X612Y2148D02*
X617D01*
X359D02*
X498D01*
X612Y2149D02*
X616D01*
X359D02*
X498D01*
X611Y2149D02*
X616D01*
X359D02*
X498D01*
X611Y2150D02*
X615D01*
X359D02*
X498D01*
X610Y2150D02*
X615D01*
X359D02*
X498D01*
X610Y2151D02*
X615D01*
X360D02*
X499D01*
X610Y2151D02*
X614D01*
X360D02*
X499D01*
X609Y2152D02*
X614D01*
X361D02*
X500D01*
X609Y2152D02*
X614D01*
X361D02*
X500D01*
X609Y2153D02*
X614D01*
X361D02*
X500D01*
X609Y2153D02*
X613D01*
X361D02*
X501D01*
X609Y2154D02*
X613D01*
X361D02*
X501D01*
X608Y2154D02*
X613D01*
X362D02*
X501D01*
X608Y2155D02*
X613D01*
X363D02*
X502D01*
X619Y2155D02*
X624D01*
X607D02*
X612D01*
X363D02*
X502D01*
X618Y2156D02*
X626D01*
X607D02*
X612D01*
X363D02*
X502D01*
X617Y2156D02*
X626D01*
X607D02*
X612D01*
X363D02*
X503D01*
X623Y2157D02*
X627D01*
X616D02*
X619D01*
X606D02*
X611D01*
X364D02*
X503D01*
X624Y2157D02*
X627D01*
X615D02*
X618D01*
X605D02*
X610D01*
X364D02*
X503D01*
X625Y2158D02*
X627D01*
X615D02*
X618D01*
X605D02*
X610D01*
X364D02*
X504D01*
X626Y2158D02*
X628D01*
X615D02*
X617D01*
X604D02*
X610D01*
X365D02*
X504D01*
X627Y2159D02*
X628D01*
X623D02*
X625D01*
X618D02*
X619D01*
X614D02*
X617D01*
X604D02*
X609D01*
X366D02*
X505D01*
X627Y2159D02*
X628D01*
X623D02*
X625D01*
X618D02*
X619D01*
X614D02*
X616D01*
X604D02*
X609D01*
X366D02*
X506D01*
X627Y2160D02*
X629D01*
X623D02*
X624D01*
X618D02*
X619D01*
X614D02*
X616D01*
X603D02*
X609D01*
X366D02*
X506D01*
X627Y2160D02*
X629D01*
X622D02*
X624D01*
X618D02*
X619D01*
X614D02*
X615D01*
X603D02*
X608D01*
X367D02*
X507D01*
X627Y2161D02*
X629D01*
X622D02*
X624D01*
X618D02*
X619D01*
X613D02*
X615D01*
X601D02*
X608D01*
X368D02*
X507D01*
X627Y2161D02*
X629D01*
X622D02*
X623D01*
X618D02*
X619D01*
X613D02*
X615D01*
X601D02*
X607D01*
X368D02*
X508D01*
X627Y2162D02*
X629D01*
X621D02*
X623D01*
X618D02*
X619D01*
X613D02*
X615D01*
X600D02*
X607D01*
X368D02*
X508D01*
X627Y2162D02*
X629D01*
X618D02*
X623D01*
X613D02*
X615D01*
X600D02*
X606D01*
X369D02*
X509D01*
X627Y2163D02*
X629D01*
X618D02*
X624D01*
X613D02*
X615D01*
X599D02*
X605D01*
X370D02*
X510D01*
X627Y2163D02*
X629D01*
X618D02*
X624D01*
X613D02*
X615D01*
X598D02*
X605D01*
X370D02*
X511D01*
X627Y2164D02*
X629D01*
X623D02*
X624D01*
X618D02*
X619D01*
X613D02*
X615D01*
X598D02*
X604D01*
X370D02*
X512D01*
X627Y2164D02*
X629D01*
X623D02*
X624D01*
X618D02*
X619D01*
X613D02*
X615D01*
X596D02*
X604D01*
X371D02*
X512D01*
X627Y2165D02*
X629D01*
X623D02*
X624D01*
X618D02*
X619D01*
X614D02*
X615D01*
X596D02*
X603D01*
X372D02*
X513D01*
X627Y2165D02*
X629D01*
X622D02*
X624D01*
X618D02*
X619D01*
X614D02*
X616D01*
X595D02*
X603D01*
X373D02*
X514D01*
X627Y2166D02*
X628D01*
X618D02*
X624D01*
X614D02*
X616D01*
X594D02*
X601D01*
X373D02*
X515D01*
X627Y2166D02*
X628D01*
X618D02*
X624D01*
X614D02*
X617D01*
X593D02*
X601D01*
X374D02*
X516D01*
X626Y2167D02*
X628D01*
X618D02*
X623D01*
X614D02*
X617D01*
X591D02*
X600D01*
X375D02*
X517D01*
X626Y2167D02*
X628D01*
X615D02*
X617D01*
X590D02*
X600D01*
X375D02*
X518D01*
X625Y2168D02*
X627D01*
X615D02*
X618D01*
X589D02*
X599D01*
X377D02*
X520D01*
X624Y2168D02*
X627D01*
X615D02*
X618D01*
X587D02*
X598D01*
X377D02*
X521D01*
X623Y2169D02*
X627D01*
X617D02*
X620D01*
X585D02*
X597D01*
X378D02*
X523D01*
X617Y2169D02*
X626D01*
X582D02*
X596D01*
X379D02*
X526D01*
X618Y2170D02*
X625D01*
X380D02*
X595D01*
X619Y2170D02*
X624D01*
X381D02*
X594D01*
X382Y2171D02*
X592D01*
X384Y2171D02*
X591D01*
X385Y2172D02*
X590D01*
X387Y2172D02*
X589D01*
X389Y2173D02*
X586D01*
X391Y2173D02*
X585D01*
X394Y2174D02*
X581D01*
D34*
X1299Y869D02*
Y969D01*
X1699D01*
X1299Y869D02*
X1699D01*
Y969D01*
X280Y869D02*
Y969D01*
X680D01*
X280Y869D02*
X680D01*
Y969D01*
M02*
