G04 Layer_Physical_Order=1*
G04 Layer_Color=255*
%FSLAX23Y23*%
%MOIN*%
G70*
G01*
G75*
G04:AMPARAMS|DCode=10|XSize=118mil|YSize=71mil|CornerRadius=18mil|HoleSize=0mil|Usage=FLASHONLY|Rotation=0.000|XOffset=0mil|YOffset=0mil|HoleType=Round|Shape=RoundedRectangle|*
%AMROUNDEDRECTD10*
21,1,0.118,0.035,0,0,0.0*
21,1,0.083,0.071,0,0,0.0*
1,1,0.035,0.041,-0.018*
1,1,0.035,-0.041,-0.018*
1,1,0.035,-0.041,0.018*
1,1,0.035,0.041,0.018*
%
%ADD10ROUNDEDRECTD10*%
%ADD11R,0.118X0.071*%
%ADD12R,0.050X0.098*%
%ADD13R,0.100X0.045*%
%ADD14R,0.055X0.100*%
G04:AMPARAMS|DCode=15|XSize=45mil|YSize=100mil|CornerRadius=11mil|HoleSize=0mil|Usage=FLASHONLY|Rotation=90.000|XOffset=0mil|YOffset=0mil|HoleType=Round|Shape=RoundedRectangle|*
%AMROUNDEDRECTD15*
21,1,0.045,0.078,0,0,90.0*
21,1,0.023,0.100,0,0,90.0*
1,1,0.023,0.039,0.011*
1,1,0.023,0.039,-0.011*
1,1,0.023,-0.039,-0.011*
1,1,0.023,-0.039,0.011*
%
%ADD15ROUNDEDRECTD15*%
%ADD16C,0.010*%
%ADD17C,0.020*%
%ADD18R,0.039X0.067*%
%ADD19R,0.039X0.067*%
G04:AMPARAMS|DCode=20|XSize=67mil|YSize=39mil|CornerRadius=10mil|HoleSize=0mil|Usage=FLASHONLY|Rotation=270.000|XOffset=0mil|YOffset=0mil|HoleType=Round|Shape=RoundedRectangle|*
%AMROUNDEDRECTD20*
21,1,0.067,0.020,0,0,270.0*
21,1,0.047,0.039,0,0,270.0*
1,1,0.020,-0.010,-0.024*
1,1,0.020,-0.010,0.024*
1,1,0.020,0.010,0.024*
1,1,0.020,0.010,-0.024*
%
%ADD20ROUNDEDRECTD20*%
%ADD21C,0.050*%
%ADD22R,0.050X0.050*%
%ADD23C,0.059*%
%ADD24R,0.059X0.059*%
%ADD25R,0.059X0.059*%
%ADD26C,0.031*%
G36*
X1333Y1114D02*
Y1091D01*
X1330Y1086D01*
X1328Y1079D01*
Y953D01*
X1320Y947D01*
X1314Y938D01*
X1310Y929D01*
X1309Y919D01*
X1310Y908D01*
X1314Y899D01*
X1320Y890D01*
X1322Y889D01*
X1321Y884D01*
X1242D01*
Y923D01*
X1207D01*
X1172D01*
Y884D01*
X1096D01*
X1095Y889D01*
X1097Y890D01*
X1103Y899D01*
X1107Y908D01*
X1108Y919D01*
X1107Y929D01*
X1103Y938D01*
X1097Y947D01*
X1092Y950D01*
X1092Y955D01*
X1170Y1034D01*
X1239D01*
X1244Y1035D01*
X1246Y1032D01*
X1247Y1031D01*
X1244Y1027D01*
X1241Y1021D01*
X1241Y1019D01*
X1262D01*
Y1039D01*
X1260Y1039D01*
X1256Y1038D01*
X1253Y1042D01*
X1328Y1116D01*
X1333Y1114D01*
D02*
G37*
G36*
X1258Y1856D02*
X1740D01*
Y1804D01*
X1860D01*
Y1821D01*
X1876D01*
X1879Y1819D01*
X1880Y1808D01*
X1884Y1799D01*
X1890Y1790D01*
X1899Y1784D01*
X1908Y1780D01*
X1919Y1779D01*
X1929Y1780D01*
X1938Y1784D01*
X1947Y1790D01*
X1948Y1792D01*
X1953Y1791D01*
Y1746D01*
X1948Y1745D01*
X1947Y1747D01*
X1938Y1753D01*
X1929Y1757D01*
X1919Y1758D01*
X1908Y1757D01*
X1904Y1755D01*
X1891Y1767D01*
X1886Y1771D01*
X1881Y1772D01*
X1860D01*
Y1789D01*
X1740D01*
Y1724D01*
X1860D01*
Y1741D01*
X1874D01*
X1882Y1733D01*
X1880Y1729D01*
X1879Y1719D01*
X1880Y1708D01*
X1884Y1699D01*
X1890Y1690D01*
X1899Y1684D01*
X1908Y1680D01*
X1919Y1679D01*
X1929Y1680D01*
X1938Y1684D01*
X1947Y1690D01*
X1948Y1692D01*
X1953Y1691D01*
Y1646D01*
X1948Y1645D01*
X1947Y1647D01*
X1938Y1653D01*
X1929Y1657D01*
X1919Y1658D01*
X1908Y1657D01*
X1904Y1655D01*
X1869Y1689D01*
X1864Y1693D01*
X1860Y1694D01*
Y1711D01*
X1740D01*
Y1646D01*
X1860D01*
Y1649D01*
X1864Y1651D01*
X1882Y1633D01*
X1880Y1629D01*
X1879Y1619D01*
X1880Y1608D01*
X1884Y1599D01*
X1890Y1590D01*
X1899Y1584D01*
X1908Y1580D01*
X1919Y1579D01*
X1929Y1580D01*
X1938Y1584D01*
X1947Y1590D01*
X1948Y1592D01*
X1953Y1591D01*
Y1546D01*
X1948Y1545D01*
X1947Y1547D01*
X1938Y1553D01*
X1929Y1557D01*
X1919Y1558D01*
X1908Y1557D01*
X1904Y1555D01*
X1860Y1599D01*
Y1632D01*
X1740D01*
Y1567D01*
X1848D01*
X1857Y1558D01*
X1855Y1553D01*
X1741D01*
Y1488D01*
X1847D01*
X1856Y1480D01*
X1854Y1475D01*
X1741D01*
Y1410D01*
X1835D01*
X1845Y1401D01*
X1843Y1396D01*
X1806D01*
Y1369D01*
X1861D01*
Y1378D01*
X1865Y1380D01*
X1892Y1353D01*
X1892Y1348D01*
X1890Y1347D01*
X1884Y1338D01*
X1880Y1329D01*
X1879Y1319D01*
X1880Y1308D01*
X1884Y1299D01*
X1890Y1290D01*
X1899Y1284D01*
X1908Y1280D01*
X1919Y1279D01*
X1929Y1280D01*
X1938Y1284D01*
X1947Y1290D01*
X1948Y1292D01*
X1953Y1291D01*
Y1246D01*
X1948Y1245D01*
X1947Y1247D01*
X1938Y1253D01*
X1929Y1257D01*
X1924Y1258D01*
Y1219D01*
X1914D01*
Y1258D01*
X1908Y1257D01*
X1899Y1253D01*
X1894Y1250D01*
X1889Y1252D01*
Y1257D01*
X1888Y1263D01*
X1885Y1268D01*
X1836Y1316D01*
X1831Y1320D01*
X1826Y1321D01*
X1727D01*
Y1343D01*
X1652D01*
Y1223D01*
X1727D01*
Y1290D01*
X1819D01*
X1859Y1251D01*
Y1200D01*
X1860Y1194D01*
X1863Y1189D01*
X1895Y1157D01*
X1895Y1150D01*
X1890Y1147D01*
X1884Y1138D01*
X1880Y1129D01*
X1879Y1119D01*
X1880Y1108D01*
X1884Y1099D01*
X1890Y1090D01*
X1899Y1084D01*
X1908Y1080D01*
X1919Y1079D01*
X1929Y1080D01*
X1938Y1084D01*
X1947Y1090D01*
X1948Y1092D01*
X1953Y1091D01*
Y1046D01*
X1948Y1045D01*
X1947Y1047D01*
X1938Y1053D01*
X1929Y1057D01*
X1919Y1058D01*
X1908Y1057D01*
X1904Y1055D01*
X1853Y1106D01*
X1848Y1109D01*
X1842Y1110D01*
X1817D01*
Y1223D01*
X1787D01*
Y1234D01*
X1790Y1236D01*
X1794Y1241D01*
X1797Y1248D01*
X1798Y1254D01*
X1797Y1261D01*
X1794Y1267D01*
X1790Y1273D01*
X1785Y1277D01*
X1778Y1279D01*
X1772Y1280D01*
X1765Y1279D01*
X1759Y1277D01*
X1753Y1273D01*
X1749Y1267D01*
X1747Y1261D01*
X1746Y1254D01*
X1747Y1248D01*
X1749Y1241D01*
X1753Y1236D01*
X1756Y1234D01*
Y1223D01*
X1747D01*
Y1177D01*
X1744Y1172D01*
X1743Y1167D01*
X1744Y1161D01*
X1747Y1156D01*
Y1110D01*
X1735D01*
X1630Y1216D01*
Y1223D01*
X1647D01*
Y1343D01*
X1572D01*
X1572Y1343D01*
X1569D01*
Y1343D01*
X1567Y1343D01*
X1494D01*
Y1223D01*
X1549D01*
X1623Y1149D01*
X1621Y1144D01*
X1580D01*
Y1104D01*
X1644D01*
Y1121D01*
X1649Y1123D01*
X1709Y1062D01*
X1714Y1059D01*
X1720Y1058D01*
X1792D01*
X1895Y955D01*
X1894Y950D01*
X1890Y947D01*
X1884Y938D01*
X1880Y929D01*
X1879Y919D01*
X1880Y908D01*
X1884Y899D01*
X1890Y890D01*
X1892Y889D01*
X1891Y884D01*
X1817D01*
Y923D01*
X1782D01*
X1747D01*
Y884D01*
X1688D01*
Y914D01*
X1649D01*
X1609D01*
Y884D01*
X1576D01*
X1575Y889D01*
X1577Y890D01*
X1583Y899D01*
X1587Y908D01*
X1588Y919D01*
X1587Y929D01*
X1583Y938D01*
X1577Y947D01*
X1568Y953D01*
X1559Y957D01*
X1549Y958D01*
X1538Y957D01*
X1529Y953D01*
X1520Y947D01*
X1514Y938D01*
X1510Y929D01*
X1509Y919D01*
X1510Y908D01*
X1514Y899D01*
X1520Y890D01*
X1522Y889D01*
X1521Y884D01*
X1476D01*
X1475Y889D01*
X1477Y890D01*
X1483Y899D01*
X1487Y908D01*
X1488Y919D01*
X1487Y929D01*
X1483Y938D01*
X1477Y947D01*
X1468Y953D01*
X1459Y957D01*
X1449Y958D01*
X1438Y957D01*
X1429Y953D01*
X1420Y947D01*
X1414Y938D01*
X1410Y929D01*
X1409Y919D01*
X1410Y908D01*
X1414Y899D01*
X1420Y890D01*
X1422Y889D01*
X1421Y884D01*
X1376D01*
X1375Y889D01*
X1377Y890D01*
X1383Y899D01*
X1387Y908D01*
X1388Y919D01*
X1387Y929D01*
X1383Y938D01*
X1377Y947D01*
X1369Y953D01*
Y1053D01*
X1426D01*
X1471Y1008D01*
X1476Y1004D01*
X1482Y1003D01*
X1618D01*
X1620Y1000D01*
X1626Y996D01*
X1632Y993D01*
X1639Y993D01*
X1645Y993D01*
X1651Y996D01*
X1657Y1000D01*
X1661Y1006D01*
X1664Y1012D01*
X1664Y1019D01*
X1664Y1025D01*
X1661Y1031D01*
X1657Y1037D01*
X1651Y1041D01*
X1645Y1044D01*
X1639Y1044D01*
X1632Y1044D01*
X1626Y1041D01*
X1620Y1037D01*
X1618Y1034D01*
X1488D01*
X1463Y1059D01*
X1463Y1061D01*
X1467Y1067D01*
X1470Y1074D01*
X1471Y1081D01*
Y1086D01*
X1473Y1089D01*
X1474Y1099D01*
X1473Y1108D01*
X1471Y1111D01*
Y1116D01*
X1470Y1123D01*
X1467Y1130D01*
X1463Y1136D01*
X1457Y1140D01*
X1450Y1143D01*
X1443Y1144D01*
X1363D01*
X1360Y1149D01*
X1434Y1223D01*
X1489D01*
Y1343D01*
X1416D01*
X1414Y1343D01*
Y1343D01*
X1411D01*
Y1343D01*
X1336D01*
Y1343D01*
X1333D01*
Y1343D01*
X1258D01*
Y1308D01*
X1194D01*
X1192Y1313D01*
X1200Y1321D01*
X1204Y1328D01*
X1205Y1332D01*
X1246D01*
Y1397D01*
X1145D01*
X1143Y1402D01*
X1153Y1411D01*
X1246D01*
Y1476D01*
X1126D01*
Y1427D01*
X1113Y1414D01*
X1108Y1416D01*
X1108Y1419D01*
X1107Y1429D01*
X1103Y1438D01*
X1097Y1447D01*
X1095Y1448D01*
X1095Y1453D01*
X1131Y1489D01*
X1246D01*
Y1554D01*
X1132D01*
X1130Y1559D01*
X1139Y1567D01*
X1246D01*
Y1632D01*
X1126D01*
Y1597D01*
X1083Y1555D01*
X1079Y1557D01*
X1069Y1558D01*
X1058Y1557D01*
X1049Y1553D01*
X1040Y1547D01*
X1039Y1545D01*
X1034Y1546D01*
Y1591D01*
X1039Y1592D01*
X1040Y1590D01*
X1049Y1584D01*
X1058Y1580D01*
X1069Y1579D01*
X1079Y1580D01*
X1088Y1584D01*
X1097Y1590D01*
X1103Y1599D01*
X1107Y1608D01*
X1108Y1619D01*
X1107Y1629D01*
X1105Y1633D01*
X1121Y1649D01*
X1126Y1647D01*
Y1647D01*
X1246D01*
Y1712D01*
X1126D01*
Y1694D01*
X1124Y1694D01*
X1119Y1690D01*
X1083Y1655D01*
X1079Y1657D01*
X1069Y1658D01*
X1058Y1657D01*
X1049Y1653D01*
X1040Y1647D01*
X1039Y1645D01*
X1034Y1646D01*
Y1691D01*
X1039Y1692D01*
X1040Y1690D01*
X1049Y1684D01*
X1058Y1680D01*
X1069Y1679D01*
X1079Y1680D01*
X1088Y1684D01*
X1097Y1690D01*
X1103Y1699D01*
X1107Y1708D01*
X1108Y1719D01*
X1107Y1729D01*
X1105Y1733D01*
X1114Y1742D01*
X1126D01*
Y1725D01*
X1246D01*
Y1790D01*
X1126D01*
Y1773D01*
X1108D01*
X1102Y1772D01*
X1097Y1768D01*
X1083Y1755D01*
X1079Y1757D01*
X1069Y1758D01*
X1058Y1757D01*
X1049Y1753D01*
X1040Y1747D01*
X1039Y1745D01*
X1034Y1746D01*
Y1791D01*
X1039Y1792D01*
X1040Y1790D01*
X1049Y1784D01*
X1058Y1780D01*
X1069Y1779D01*
X1079Y1780D01*
X1088Y1784D01*
X1097Y1790D01*
X1103Y1799D01*
X1105Y1803D01*
X1168D01*
X1171Y1804D01*
X1246D01*
Y1857D01*
X1258D01*
Y1856D01*
D02*
G37*
%LPC*%
G36*
X1272Y1039D02*
Y1019D01*
X1292D01*
X1292Y1021D01*
X1289Y1027D01*
X1285Y1033D01*
X1280Y1037D01*
X1273Y1039D01*
X1272Y1039D01*
D02*
G37*
G36*
X1292Y1009D02*
X1272D01*
Y989D01*
X1273Y989D01*
X1280Y992D01*
X1285Y996D01*
X1289Y1001D01*
X1292Y1007D01*
X1292Y1009D01*
D02*
G37*
G36*
X1262D02*
X1241D01*
X1241Y1007D01*
X1244Y1001D01*
X1248Y996D01*
X1254Y992D01*
X1260Y989D01*
X1262Y989D01*
Y1009D01*
D02*
G37*
G36*
X1242Y987D02*
X1212D01*
Y933D01*
X1242D01*
Y987D01*
D02*
G37*
G36*
X1202D02*
X1172D01*
Y933D01*
X1202D01*
Y987D01*
D02*
G37*
G36*
X1796Y1359D02*
X1741D01*
Y1331D01*
X1796D01*
Y1359D01*
D02*
G37*
G36*
X1644Y1094D02*
X1580D01*
Y1053D01*
X1644D01*
Y1094D01*
D02*
G37*
G36*
X1570Y1144D02*
X1506D01*
Y1112D01*
X1504Y1108D01*
X1504Y1104D01*
X1539D01*
Y1094D01*
X1504D01*
X1504Y1089D01*
X1506Y1085D01*
Y1053D01*
X1570D01*
Y1099D01*
Y1144D01*
D02*
G37*
G36*
X1777Y987D02*
X1747D01*
Y933D01*
X1777D01*
Y987D01*
D02*
G37*
G36*
X1688Y958D02*
X1654D01*
Y924D01*
X1688D01*
Y958D01*
D02*
G37*
G36*
X1644D02*
X1609D01*
Y924D01*
X1644D01*
Y958D01*
D02*
G37*
G36*
X1817Y987D02*
X1787D01*
Y933D01*
X1817D01*
Y987D01*
D02*
G37*
G36*
X1861Y1359D02*
X1806D01*
Y1331D01*
X1861D01*
Y1359D01*
D02*
G37*
G36*
X1314Y1744D02*
X1312Y1744D01*
X1306Y1741D01*
X1300Y1737D01*
X1296Y1731D01*
X1293Y1725D01*
X1293Y1724D01*
X1314D01*
Y1744D01*
D02*
G37*
G36*
X1704Y1714D02*
X1684D01*
Y1693D01*
X1685Y1693D01*
X1691Y1696D01*
X1697Y1700D01*
X1701Y1706D01*
X1704Y1712D01*
X1704Y1714D01*
D02*
G37*
G36*
X1674D02*
X1653D01*
X1653Y1712D01*
X1656Y1706D01*
X1660Y1700D01*
X1666Y1696D01*
X1672Y1693D01*
X1674Y1693D01*
Y1714D01*
D02*
G37*
G36*
X1684Y1744D02*
Y1724D01*
X1704D01*
X1704Y1725D01*
X1701Y1731D01*
X1697Y1737D01*
X1691Y1741D01*
X1685Y1744D01*
X1684Y1744D01*
D02*
G37*
G36*
X1674D02*
X1672Y1744D01*
X1666Y1741D01*
X1660Y1737D01*
X1656Y1731D01*
X1653Y1725D01*
X1653Y1724D01*
X1674D01*
Y1744D01*
D02*
G37*
G36*
X1324D02*
Y1724D01*
X1344D01*
X1344Y1725D01*
X1341Y1731D01*
X1337Y1737D01*
X1331Y1741D01*
X1325Y1744D01*
X1324Y1744D01*
D02*
G37*
G36*
X1344Y1714D02*
X1324D01*
Y1693D01*
X1325Y1693D01*
X1331Y1696D01*
X1337Y1700D01*
X1341Y1706D01*
X1344Y1712D01*
X1344Y1714D01*
D02*
G37*
G36*
X1796Y1396D02*
X1741D01*
Y1369D01*
X1796D01*
Y1396D01*
D02*
G37*
G36*
X1514Y1384D02*
X1494D01*
Y1363D01*
X1495Y1363D01*
X1501Y1366D01*
X1507Y1370D01*
X1511Y1376D01*
X1514Y1382D01*
X1514Y1384D01*
D02*
G37*
G36*
X1484D02*
X1463D01*
X1463Y1382D01*
X1466Y1376D01*
X1470Y1370D01*
X1476Y1366D01*
X1482Y1363D01*
X1484Y1363D01*
Y1384D01*
D02*
G37*
G36*
X1314Y1714D02*
X1293D01*
X1293Y1712D01*
X1296Y1706D01*
X1300Y1700D01*
X1306Y1696D01*
X1312Y1693D01*
X1314Y1693D01*
Y1714D01*
D02*
G37*
G36*
X1494Y1414D02*
Y1394D01*
X1514D01*
X1514Y1395D01*
X1511Y1401D01*
X1507Y1407D01*
X1501Y1411D01*
X1495Y1414D01*
X1494Y1414D01*
D02*
G37*
G36*
X1484D02*
X1482Y1414D01*
X1476Y1411D01*
X1470Y1407D01*
X1466Y1401D01*
X1463Y1395D01*
X1463Y1394D01*
X1484D01*
Y1414D01*
D02*
G37*
%LPD*%
G36*
X314Y1114D02*
Y1091D01*
X311Y1086D01*
X310Y1079D01*
Y953D01*
X302Y947D01*
X295Y938D01*
X291Y929D01*
X290Y919D01*
X291Y908D01*
X295Y899D01*
X302Y890D01*
X304Y889D01*
X302Y884D01*
X224D01*
Y923D01*
X189D01*
X154D01*
Y884D01*
X78D01*
X76Y889D01*
X78Y890D01*
X85Y899D01*
X89Y908D01*
X90Y919D01*
X89Y929D01*
X85Y938D01*
X78Y947D01*
X73Y950D01*
X73Y955D01*
X152Y1034D01*
X221D01*
X225Y1035D01*
X228Y1032D01*
X228Y1031D01*
X226Y1027D01*
X223Y1021D01*
X223Y1019D01*
X243D01*
Y1039D01*
X241Y1039D01*
X238Y1038D01*
X235Y1042D01*
X309Y1116D01*
X314Y1114D01*
D02*
G37*
G36*
X240Y1856D02*
X721D01*
Y1804D01*
X841D01*
Y1821D01*
X858D01*
X860Y1819D01*
X861Y1808D01*
X865Y1799D01*
X872Y1790D01*
X880Y1784D01*
X890Y1780D01*
X900Y1779D01*
X910Y1780D01*
X920Y1784D01*
X928Y1790D01*
X930Y1792D01*
X935Y1791D01*
Y1746D01*
X930Y1745D01*
X928Y1747D01*
X920Y1753D01*
X910Y1757D01*
X900Y1758D01*
X890Y1757D01*
X885Y1755D01*
X873Y1767D01*
X868Y1771D01*
X862Y1772D01*
X841D01*
Y1789D01*
X721D01*
Y1724D01*
X841D01*
Y1741D01*
X856D01*
X863Y1733D01*
X861Y1729D01*
X860Y1719D01*
X861Y1708D01*
X865Y1699D01*
X872Y1690D01*
X880Y1684D01*
X890Y1680D01*
X900Y1679D01*
X910Y1680D01*
X920Y1684D01*
X928Y1690D01*
X930Y1692D01*
X935Y1691D01*
Y1646D01*
X930Y1645D01*
X928Y1647D01*
X920Y1653D01*
X910Y1657D01*
X900Y1658D01*
X890Y1657D01*
X885Y1655D01*
X851Y1689D01*
X846Y1693D01*
X841Y1694D01*
Y1711D01*
X721D01*
Y1646D01*
X841D01*
Y1649D01*
X846Y1651D01*
X863Y1633D01*
X861Y1629D01*
X860Y1619D01*
X861Y1608D01*
X865Y1599D01*
X872Y1590D01*
X880Y1584D01*
X890Y1580D01*
X900Y1579D01*
X910Y1580D01*
X920Y1584D01*
X928Y1590D01*
X930Y1592D01*
X935Y1591D01*
Y1546D01*
X930Y1545D01*
X928Y1547D01*
X920Y1553D01*
X910Y1557D01*
X900Y1558D01*
X890Y1557D01*
X885Y1555D01*
X841Y1599D01*
Y1632D01*
X721D01*
Y1567D01*
X830D01*
X839Y1558D01*
X837Y1553D01*
X722D01*
Y1488D01*
X829D01*
X837Y1480D01*
X835Y1475D01*
X722D01*
Y1410D01*
X817D01*
X826Y1401D01*
X824Y1396D01*
X787D01*
Y1369D01*
X842D01*
Y1378D01*
X847Y1380D01*
X874Y1353D01*
X874Y1348D01*
X872Y1347D01*
X865Y1338D01*
X861Y1329D01*
X860Y1319D01*
X861Y1308D01*
X865Y1299D01*
X872Y1290D01*
X880Y1284D01*
X890Y1280D01*
X900Y1279D01*
X910Y1280D01*
X920Y1284D01*
X928Y1290D01*
X930Y1292D01*
X935Y1291D01*
Y1246D01*
X930Y1245D01*
X928Y1247D01*
X920Y1253D01*
X910Y1257D01*
X905Y1258D01*
Y1219D01*
X895D01*
Y1258D01*
X890Y1257D01*
X880Y1253D01*
X876Y1250D01*
X871Y1252D01*
Y1257D01*
X870Y1263D01*
X866Y1268D01*
X818Y1316D01*
X813Y1320D01*
X807Y1321D01*
X709D01*
Y1343D01*
X633D01*
Y1223D01*
X709D01*
Y1290D01*
X801D01*
X840Y1251D01*
Y1200D01*
X841Y1194D01*
X845Y1189D01*
X877Y1157D01*
X877Y1150D01*
X872Y1147D01*
X865Y1138D01*
X861Y1129D01*
X860Y1119D01*
X861Y1108D01*
X865Y1099D01*
X872Y1090D01*
X880Y1084D01*
X890Y1080D01*
X900Y1079D01*
X910Y1080D01*
X920Y1084D01*
X928Y1090D01*
X930Y1092D01*
X935Y1091D01*
Y1046D01*
X930Y1045D01*
X928Y1047D01*
X920Y1053D01*
X910Y1057D01*
X900Y1058D01*
X890Y1057D01*
X885Y1055D01*
X834Y1106D01*
X829Y1109D01*
X823Y1110D01*
X799D01*
Y1223D01*
X768D01*
Y1234D01*
X772Y1236D01*
X776Y1241D01*
X778Y1248D01*
X779Y1254D01*
X778Y1261D01*
X776Y1267D01*
X772Y1273D01*
X766Y1277D01*
X760Y1279D01*
X753Y1280D01*
X746Y1279D01*
X740Y1277D01*
X735Y1273D01*
X731Y1267D01*
X728Y1261D01*
X727Y1254D01*
X728Y1248D01*
X731Y1241D01*
X735Y1236D01*
X738Y1234D01*
Y1223D01*
X729D01*
Y1177D01*
X726Y1172D01*
X725Y1167D01*
X726Y1161D01*
X729Y1156D01*
Y1110D01*
X717D01*
X611Y1216D01*
Y1223D01*
X628D01*
Y1343D01*
X553D01*
X553Y1343D01*
X550D01*
Y1343D01*
X549Y1343D01*
X475D01*
Y1223D01*
X531D01*
X605Y1149D01*
X603Y1144D01*
X562D01*
Y1104D01*
X626D01*
Y1121D01*
X630Y1123D01*
X691Y1062D01*
X696Y1059D01*
X702Y1058D01*
X773D01*
X876Y955D01*
X876Y950D01*
X872Y947D01*
X865Y938D01*
X861Y929D01*
X860Y919D01*
X861Y908D01*
X865Y899D01*
X872Y890D01*
X874Y889D01*
X872Y884D01*
X799D01*
Y923D01*
X764D01*
X729D01*
Y884D01*
X670D01*
Y914D01*
X630D01*
X590D01*
Y884D01*
X558D01*
X556Y889D01*
X558Y890D01*
X565Y899D01*
X569Y908D01*
X570Y919D01*
X569Y929D01*
X565Y938D01*
X558Y947D01*
X550Y953D01*
X540Y957D01*
X530Y958D01*
X520Y957D01*
X510Y953D01*
X502Y947D01*
X495Y938D01*
X491Y929D01*
X490Y919D01*
X491Y908D01*
X495Y899D01*
X502Y890D01*
X504Y889D01*
X502Y884D01*
X458D01*
X456Y889D01*
X458Y890D01*
X465Y899D01*
X469Y908D01*
X470Y919D01*
X469Y929D01*
X465Y938D01*
X458Y947D01*
X450Y953D01*
X440Y957D01*
X430Y958D01*
X420Y957D01*
X410Y953D01*
X402Y947D01*
X395Y938D01*
X391Y929D01*
X390Y919D01*
X391Y908D01*
X395Y899D01*
X402Y890D01*
X404Y889D01*
X402Y884D01*
X358D01*
X356Y889D01*
X358Y890D01*
X365Y899D01*
X369Y908D01*
X370Y919D01*
X369Y929D01*
X365Y938D01*
X358Y947D01*
X350Y953D01*
Y1053D01*
X407D01*
X453Y1008D01*
X458Y1004D01*
X463Y1003D01*
X599D01*
X602Y1000D01*
X607Y996D01*
X613Y993D01*
X620Y993D01*
X627Y993D01*
X633Y996D01*
X638Y1000D01*
X642Y1006D01*
X645Y1012D01*
X646Y1019D01*
X645Y1025D01*
X642Y1031D01*
X638Y1037D01*
X633Y1041D01*
X627Y1044D01*
X620Y1044D01*
X613Y1044D01*
X607Y1041D01*
X602Y1037D01*
X599Y1034D01*
X470D01*
X444Y1059D01*
X444Y1061D01*
X449Y1067D01*
X452Y1074D01*
X453Y1081D01*
Y1086D01*
X454Y1089D01*
X455Y1099D01*
X454Y1108D01*
X453Y1111D01*
Y1116D01*
X452Y1123D01*
X449Y1130D01*
X444Y1136D01*
X439Y1140D01*
X432Y1143D01*
X425Y1144D01*
X344D01*
X342Y1149D01*
X415Y1223D01*
X470D01*
Y1343D01*
X398D01*
X396Y1343D01*
Y1343D01*
X393D01*
Y1343D01*
X317D01*
Y1343D01*
X315D01*
Y1343D01*
X240D01*
Y1308D01*
X175D01*
X173Y1313D01*
X181Y1321D01*
X186Y1328D01*
X187Y1332D01*
X227D01*
Y1397D01*
X127D01*
X125Y1402D01*
X134Y1411D01*
X227D01*
Y1476D01*
X107D01*
Y1427D01*
X94Y1414D01*
X90Y1416D01*
X90Y1419D01*
X89Y1429D01*
X85Y1438D01*
X78Y1447D01*
X76Y1448D01*
X76Y1453D01*
X112Y1489D01*
X227D01*
Y1554D01*
X114D01*
X112Y1559D01*
X120Y1567D01*
X227D01*
Y1632D01*
X107D01*
Y1597D01*
X65Y1555D01*
X60Y1557D01*
X50Y1558D01*
X40Y1557D01*
X30Y1553D01*
X22Y1547D01*
X20Y1545D01*
X15Y1546D01*
Y1591D01*
X20Y1592D01*
X22Y1590D01*
X30Y1584D01*
X40Y1580D01*
X50Y1579D01*
X60Y1580D01*
X70Y1584D01*
X78Y1590D01*
X85Y1599D01*
X89Y1608D01*
X90Y1619D01*
X89Y1629D01*
X87Y1633D01*
X102Y1649D01*
X107Y1647D01*
Y1647D01*
X227D01*
Y1712D01*
X107D01*
Y1694D01*
X105Y1694D01*
X100Y1690D01*
X65Y1655D01*
X60Y1657D01*
X50Y1658D01*
X40Y1657D01*
X30Y1653D01*
X22Y1647D01*
X20Y1645D01*
X15Y1646D01*
Y1691D01*
X20Y1692D01*
X22Y1690D01*
X30Y1684D01*
X40Y1680D01*
X50Y1679D01*
X60Y1680D01*
X70Y1684D01*
X78Y1690D01*
X85Y1699D01*
X89Y1708D01*
X90Y1719D01*
X89Y1729D01*
X87Y1733D01*
X95Y1742D01*
X107D01*
Y1725D01*
X227D01*
Y1790D01*
X107D01*
Y1773D01*
X89D01*
X83Y1772D01*
X78Y1768D01*
X65Y1755D01*
X60Y1757D01*
X50Y1758D01*
X40Y1757D01*
X30Y1753D01*
X22Y1747D01*
X20Y1745D01*
X15Y1746D01*
Y1791D01*
X20Y1792D01*
X22Y1790D01*
X30Y1784D01*
X40Y1780D01*
X50Y1779D01*
X60Y1780D01*
X70Y1784D01*
X78Y1790D01*
X85Y1799D01*
X86Y1803D01*
X149D01*
X153Y1804D01*
X227D01*
Y1857D01*
X240D01*
Y1856D01*
D02*
G37*
%LPC*%
G36*
X253Y1039D02*
Y1019D01*
X273D01*
X273Y1021D01*
X271Y1027D01*
X266Y1033D01*
X261Y1037D01*
X255Y1039D01*
X253Y1039D01*
D02*
G37*
G36*
X273Y1009D02*
X253D01*
Y989D01*
X255Y989D01*
X261Y992D01*
X266Y996D01*
X271Y1001D01*
X273Y1007D01*
X273Y1009D01*
D02*
G37*
G36*
X243D02*
X223D01*
X223Y1007D01*
X226Y1001D01*
X230Y996D01*
X235Y992D01*
X241Y989D01*
X243Y989D01*
Y1009D01*
D02*
G37*
G36*
X224Y987D02*
X194D01*
Y933D01*
X224D01*
Y987D01*
D02*
G37*
G36*
X184D02*
X154D01*
Y933D01*
X184D01*
Y987D01*
D02*
G37*
G36*
X777Y1359D02*
X722D01*
Y1331D01*
X777D01*
Y1359D01*
D02*
G37*
G36*
X626Y1094D02*
X562D01*
Y1053D01*
X626D01*
Y1094D01*
D02*
G37*
G36*
X552Y1144D02*
X488D01*
Y1112D01*
X486Y1108D01*
X485Y1104D01*
X520D01*
Y1094D01*
X485D01*
X486Y1089D01*
X488Y1085D01*
Y1053D01*
X552D01*
Y1099D01*
Y1144D01*
D02*
G37*
G36*
X759Y987D02*
X729D01*
Y933D01*
X759D01*
Y987D01*
D02*
G37*
G36*
X670Y958D02*
X635D01*
Y924D01*
X670D01*
Y958D01*
D02*
G37*
G36*
X625D02*
X590D01*
Y924D01*
X625D01*
Y958D01*
D02*
G37*
G36*
X799Y987D02*
X769D01*
Y933D01*
X799D01*
Y987D01*
D02*
G37*
G36*
X842Y1359D02*
X787D01*
Y1331D01*
X842D01*
Y1359D01*
D02*
G37*
G36*
X295Y1744D02*
X293Y1744D01*
X287Y1741D01*
X282Y1737D01*
X278Y1731D01*
X275Y1725D01*
X275Y1724D01*
X295D01*
Y1744D01*
D02*
G37*
G36*
X685Y1714D02*
X665D01*
Y1693D01*
X667Y1693D01*
X673Y1696D01*
X678Y1700D01*
X682Y1706D01*
X685Y1712D01*
X685Y1714D01*
D02*
G37*
G36*
X655D02*
X635D01*
X635Y1712D01*
X638Y1706D01*
X642Y1700D01*
X647Y1696D01*
X653Y1693D01*
X655Y1693D01*
Y1714D01*
D02*
G37*
G36*
X665Y1744D02*
Y1724D01*
X685D01*
X685Y1725D01*
X682Y1731D01*
X678Y1737D01*
X673Y1741D01*
X667Y1744D01*
X665Y1744D01*
D02*
G37*
G36*
X655D02*
X653Y1744D01*
X647Y1741D01*
X642Y1737D01*
X638Y1731D01*
X635Y1725D01*
X635Y1724D01*
X655D01*
Y1744D01*
D02*
G37*
G36*
X305D02*
Y1724D01*
X325D01*
X325Y1725D01*
X322Y1731D01*
X318Y1737D01*
X313Y1741D01*
X307Y1744D01*
X305Y1744D01*
D02*
G37*
G36*
X325Y1714D02*
X305D01*
Y1693D01*
X307Y1693D01*
X313Y1696D01*
X318Y1700D01*
X322Y1706D01*
X325Y1712D01*
X325Y1714D01*
D02*
G37*
G36*
X777Y1396D02*
X722D01*
Y1369D01*
X777D01*
Y1396D01*
D02*
G37*
G36*
X495Y1384D02*
X475D01*
Y1363D01*
X477Y1363D01*
X483Y1366D01*
X488Y1370D01*
X492Y1376D01*
X495Y1382D01*
X495Y1384D01*
D02*
G37*
G36*
X465D02*
X445D01*
X445Y1382D01*
X448Y1376D01*
X452Y1370D01*
X457Y1366D01*
X463Y1363D01*
X465Y1363D01*
Y1384D01*
D02*
G37*
G36*
X295Y1714D02*
X275D01*
X275Y1712D01*
X278Y1706D01*
X282Y1700D01*
X287Y1696D01*
X293Y1693D01*
X295Y1693D01*
Y1714D01*
D02*
G37*
G36*
X475Y1414D02*
Y1394D01*
X495D01*
X495Y1395D01*
X492Y1401D01*
X488Y1407D01*
X483Y1411D01*
X477Y1414D01*
X475Y1414D01*
D02*
G37*
G36*
X465D02*
X463Y1414D01*
X457Y1411D01*
X452Y1407D01*
X448Y1401D01*
X445Y1395D01*
X445Y1394D01*
X465D01*
Y1414D01*
D02*
G37*
%LPD*%
G36*
X1953Y205D02*
X1836D01*
X1834Y210D01*
X1829Y215D01*
X1824Y219D01*
X1818Y222D01*
X1811Y223D01*
X1804Y222D01*
X1798Y219D01*
X1793Y215D01*
X1789Y210D01*
X1786Y205D01*
X1756D01*
Y253D01*
X1771D01*
Y340D01*
X1711D01*
Y253D01*
X1726D01*
Y209D01*
X1721Y205D01*
X1520D01*
Y253D01*
X1534D01*
Y340D01*
X1475D01*
Y253D01*
X1490D01*
Y209D01*
X1485Y205D01*
X1284D01*
Y253D01*
X1298D01*
Y340D01*
X1239D01*
Y253D01*
X1253D01*
Y209D01*
X1249Y205D01*
X1048D01*
Y253D01*
X1062D01*
Y340D01*
X1003D01*
Y253D01*
X1017D01*
Y209D01*
X1012Y205D01*
X811D01*
Y253D01*
X826D01*
Y340D01*
X766D01*
Y253D01*
X781D01*
Y209D01*
X776Y205D01*
X575D01*
Y253D01*
X590D01*
Y340D01*
X530D01*
Y253D01*
X545D01*
Y209D01*
X540Y205D01*
X339D01*
Y253D01*
X353D01*
Y340D01*
X294D01*
Y253D01*
X308D01*
Y209D01*
X304Y205D01*
X178D01*
X176Y210D01*
X172Y215D01*
X169Y218D01*
Y268D01*
X168Y274D01*
X164Y279D01*
X135Y308D01*
X130Y311D01*
X124Y312D01*
X117D01*
Y340D01*
X58D01*
Y253D01*
X117D01*
Y275D01*
X122Y277D01*
X138Y261D01*
Y218D01*
X135Y215D01*
X131Y210D01*
X129Y205D01*
X15D01*
Y378D01*
X1636D01*
X1639Y375D01*
X1639Y374D01*
X1640Y368D01*
X1644Y363D01*
X1656Y351D01*
X1660Y348D01*
X1666Y347D01*
X1672Y348D01*
X1677Y351D01*
X1680Y356D01*
X1681Y359D01*
X1710D01*
X1715Y360D01*
X1720Y363D01*
X1724Y368D01*
X1725Y374D01*
X1725Y375D01*
X1728Y378D01*
X1953D01*
Y205D01*
D02*
G37*
G36*
Y15D02*
X1748D01*
X1745Y19D01*
X1745Y20D01*
X1744Y26D01*
X1741Y30D01*
X1736Y34D01*
X1730Y35D01*
X1701D01*
X1701Y37D01*
X1697Y42D01*
X1693Y46D01*
X1687Y47D01*
X1681Y46D01*
X1676Y42D01*
X1664Y30D01*
X1661Y26D01*
X1660Y20D01*
X1660Y19D01*
X1656Y15D01*
X15D01*
Y189D01*
X129D01*
X131Y184D01*
X135Y178D01*
X141Y174D01*
X147Y172D01*
X154Y171D01*
X160Y172D01*
X167Y174D01*
X172Y178D01*
X176Y184D01*
X178Y189D01*
X281D01*
X283Y184D01*
X239Y140D01*
X188D01*
Y53D01*
X247D01*
Y105D01*
X331Y189D01*
X518D01*
X520Y184D01*
X476Y140D01*
X424D01*
Y53D01*
X483D01*
Y105D01*
X567Y189D01*
X754D01*
X756Y184D01*
X712Y140D01*
X660D01*
Y53D01*
X720D01*
Y105D01*
X804Y189D01*
X990D01*
X992Y184D01*
X948Y140D01*
X896D01*
Y53D01*
X956D01*
Y105D01*
X1040Y189D01*
X1226D01*
X1228Y184D01*
X1184Y140D01*
X1133D01*
Y53D01*
X1192D01*
Y105D01*
X1276Y189D01*
X1463D01*
X1464Y184D01*
X1420Y140D01*
X1369D01*
Y53D01*
X1428D01*
Y105D01*
X1512Y189D01*
X1699D01*
X1701Y184D01*
X1657Y140D01*
X1605D01*
Y53D01*
X1664D01*
Y105D01*
X1749Y189D01*
X1786D01*
X1789Y184D01*
X1793Y178D01*
X1796Y176D01*
Y157D01*
X1797Y151D01*
X1800Y146D01*
X1841Y105D01*
Y53D01*
X1901D01*
Y140D01*
X1849D01*
X1826Y163D01*
Y176D01*
X1829Y178D01*
X1834Y184D01*
X1836Y189D01*
X1953D01*
Y15D01*
D02*
G37*
%LPC*%
G36*
X1570Y330D02*
X1549D01*
X1550Y328D01*
X1552Y322D01*
X1556Y316D01*
X1562Y312D01*
X1568Y310D01*
X1570Y309D01*
Y330D01*
D02*
G37*
G36*
X1600D02*
X1580D01*
Y309D01*
X1582Y310D01*
X1588Y312D01*
X1593Y316D01*
X1597Y322D01*
X1600Y328D01*
X1600Y330D01*
D02*
G37*
G36*
X1334D02*
X1313D01*
X1313Y328D01*
X1316Y322D01*
X1320Y316D01*
X1326Y312D01*
X1332Y310D01*
X1334Y309D01*
Y330D01*
D02*
G37*
G36*
X1364D02*
X1344D01*
Y309D01*
X1345Y310D01*
X1352Y312D01*
X1357Y316D01*
X1361Y322D01*
X1364Y328D01*
X1364Y330D01*
D02*
G37*
G36*
X1830Y341D02*
X1810D01*
Y321D01*
X1812Y321D01*
X1818Y324D01*
X1823Y328D01*
X1828Y333D01*
X1830Y340D01*
X1830Y341D01*
D02*
G37*
G36*
X212Y341D02*
X208D01*
X200Y339D01*
X193Y335D01*
X192Y333D01*
X191Y333D01*
X188Y337D01*
X188Y339D01*
X189Y340D01*
X168D01*
Y320D01*
X170Y320D01*
X176Y323D01*
X182Y327D01*
X183Y329D01*
X183Y329D01*
X188Y328D01*
X189Y327D01*
X187Y320D01*
Y302D01*
X212D01*
Y341D01*
D02*
G37*
G36*
X158Y340D02*
X138D01*
X138Y339D01*
X141Y332D01*
X145Y327D01*
X150Y323D01*
X157Y320D01*
X158Y320D01*
Y340D01*
D02*
G37*
G36*
X1800Y341D02*
X1780D01*
X1780Y340D01*
X1783Y333D01*
X1787Y328D01*
X1792Y324D01*
X1798Y321D01*
X1800Y321D01*
Y341D01*
D02*
G37*
G36*
X625Y330D02*
X605D01*
X605Y328D01*
X607Y322D01*
X612Y316D01*
X617Y312D01*
X623Y310D01*
X625Y309D01*
Y330D01*
D02*
G37*
G36*
X655D02*
X635D01*
Y309D01*
X637Y310D01*
X643Y312D01*
X648Y316D01*
X652Y322D01*
X655Y328D01*
X655Y330D01*
D02*
G37*
G36*
X389D02*
X368D01*
X369Y328D01*
X371Y322D01*
X375Y316D01*
X381Y312D01*
X387Y310D01*
X389Y309D01*
Y330D01*
D02*
G37*
G36*
X419D02*
X399D01*
Y309D01*
X400Y310D01*
X407Y312D01*
X412Y316D01*
X416Y322D01*
X419Y328D01*
X419Y330D01*
D02*
G37*
G36*
X1097D02*
X1077D01*
X1077Y328D01*
X1080Y322D01*
X1084Y316D01*
X1089Y312D01*
X1096Y310D01*
X1097Y309D01*
Y330D01*
D02*
G37*
G36*
X1128D02*
X1107D01*
Y309D01*
X1109Y310D01*
X1115Y312D01*
X1121Y316D01*
X1125Y322D01*
X1127Y328D01*
X1128Y330D01*
D02*
G37*
G36*
X861D02*
X841D01*
X841Y328D01*
X844Y322D01*
X848Y316D01*
X853Y312D01*
X859Y310D01*
X861Y309D01*
Y330D01*
D02*
G37*
G36*
X891D02*
X871D01*
Y309D01*
X873Y310D01*
X879Y312D01*
X885Y316D01*
X889Y322D01*
X891Y328D01*
X891Y330D01*
D02*
G37*
G36*
X1570Y360D02*
X1568Y360D01*
X1562Y357D01*
X1556Y353D01*
X1552Y348D01*
X1550Y341D01*
X1549Y340D01*
X1570D01*
Y360D01*
D02*
G37*
G36*
X1580D02*
Y340D01*
X1600D01*
X1600Y341D01*
X1597Y348D01*
X1593Y353D01*
X1588Y357D01*
X1582Y360D01*
X1580Y360D01*
D02*
G37*
G36*
X1334D02*
X1332Y360D01*
X1326Y357D01*
X1320Y353D01*
X1316Y348D01*
X1313Y341D01*
X1313Y340D01*
X1334D01*
Y360D01*
D02*
G37*
G36*
X1344D02*
Y340D01*
X1364D01*
X1364Y341D01*
X1361Y348D01*
X1357Y353D01*
X1352Y357D01*
X1345Y360D01*
X1344Y360D01*
D02*
G37*
G36*
X1800Y372D02*
X1798Y372D01*
X1792Y369D01*
X1787Y365D01*
X1783Y359D01*
X1780Y353D01*
X1780Y351D01*
X1800D01*
Y372D01*
D02*
G37*
G36*
X1810D02*
Y351D01*
X1830D01*
X1830Y353D01*
X1828Y359D01*
X1823Y365D01*
X1818Y369D01*
X1812Y372D01*
X1810Y372D01*
D02*
G37*
G36*
X158Y371D02*
X157Y371D01*
X150Y368D01*
X145Y364D01*
X141Y358D01*
X138Y352D01*
X138Y350D01*
X158D01*
Y371D01*
D02*
G37*
G36*
X168D02*
Y350D01*
X189D01*
X188Y352D01*
X186Y358D01*
X182Y364D01*
X176Y368D01*
X170Y371D01*
X168Y371D01*
D02*
G37*
G36*
X625Y360D02*
X623Y360D01*
X617Y357D01*
X612Y353D01*
X607Y348D01*
X605Y341D01*
X605Y340D01*
X625D01*
Y360D01*
D02*
G37*
G36*
X635D02*
Y340D01*
X655D01*
X655Y341D01*
X652Y348D01*
X648Y353D01*
X643Y357D01*
X637Y360D01*
X635Y360D01*
D02*
G37*
G36*
X389D02*
X387Y360D01*
X381Y357D01*
X375Y353D01*
X371Y348D01*
X369Y341D01*
X368Y340D01*
X389D01*
Y360D01*
D02*
G37*
G36*
X399D02*
Y340D01*
X419D01*
X419Y341D01*
X416Y348D01*
X412Y353D01*
X407Y357D01*
X400Y360D01*
X399Y360D01*
D02*
G37*
G36*
X1097D02*
X1096Y360D01*
X1089Y357D01*
X1084Y353D01*
X1080Y348D01*
X1077Y341D01*
X1077Y340D01*
X1097D01*
Y360D01*
D02*
G37*
G36*
X1107D02*
Y340D01*
X1128D01*
X1127Y341D01*
X1125Y348D01*
X1121Y353D01*
X1115Y357D01*
X1109Y360D01*
X1107Y360D01*
D02*
G37*
G36*
X861D02*
X859Y360D01*
X853Y357D01*
X848Y353D01*
X844Y348D01*
X841Y341D01*
X841Y340D01*
X861D01*
Y360D01*
D02*
G37*
G36*
X871D02*
Y340D01*
X891D01*
X891Y341D01*
X889Y348D01*
X885Y353D01*
X879Y357D01*
X873Y360D01*
X871Y360D01*
D02*
G37*
G36*
X1192Y292D02*
X1167D01*
Y253D01*
X1172D01*
X1180Y255D01*
X1187Y259D01*
X1191Y265D01*
X1192Y273D01*
Y292D01*
D02*
G37*
G36*
X1394D02*
X1369D01*
Y273D01*
X1370Y265D01*
X1374Y259D01*
X1381Y255D01*
X1389Y253D01*
X1394D01*
Y292D01*
D02*
G37*
G36*
X956Y292D02*
X931D01*
Y253D01*
X936D01*
X944Y255D01*
X950Y259D01*
X955Y265D01*
X956Y273D01*
Y292D01*
D02*
G37*
G36*
X1157Y292D02*
X1132D01*
Y273D01*
X1134Y265D01*
X1138Y259D01*
X1145Y255D01*
X1153Y253D01*
X1157D01*
Y292D01*
D02*
G37*
G36*
X1665Y292D02*
X1640D01*
Y253D01*
X1645D01*
X1652Y255D01*
X1659Y259D01*
X1663Y265D01*
X1665Y273D01*
Y292D01*
D02*
G37*
G36*
X1866Y292D02*
X1841D01*
Y273D01*
X1842Y265D01*
X1847Y259D01*
X1853Y255D01*
X1861Y253D01*
X1866D01*
Y292D01*
D02*
G37*
G36*
X1429D02*
X1404D01*
Y253D01*
X1408D01*
X1416Y255D01*
X1423Y259D01*
X1427Y265D01*
X1429Y273D01*
Y292D01*
D02*
G37*
G36*
X1630Y292D02*
X1605D01*
Y273D01*
X1606Y265D01*
X1611Y259D01*
X1617Y255D01*
X1625Y253D01*
X1630D01*
Y292D01*
D02*
G37*
G36*
X248Y292D02*
X222D01*
Y253D01*
X227D01*
X235Y255D01*
X242Y259D01*
X246Y265D01*
X248Y273D01*
Y292D01*
D02*
G37*
G36*
X449D02*
X424D01*
Y273D01*
X425Y265D01*
X430Y259D01*
X436Y255D01*
X444Y253D01*
X449D01*
Y292D01*
D02*
G37*
G36*
X212D02*
X187D01*
Y273D01*
X189Y265D01*
X193Y259D01*
X200Y255D01*
X208Y253D01*
X212D01*
Y292D01*
D02*
G37*
G36*
X720D02*
X695D01*
Y253D01*
X700D01*
X708Y255D01*
X714Y259D01*
X718Y265D01*
X720Y273D01*
Y292D01*
D02*
G37*
G36*
X921Y292D02*
X896D01*
Y273D01*
X898Y265D01*
X902Y259D01*
X909Y255D01*
X916Y253D01*
X921D01*
Y292D01*
D02*
G37*
G36*
X484Y292D02*
X459D01*
Y253D01*
X464D01*
X471Y255D01*
X478Y259D01*
X482Y265D01*
X484Y273D01*
Y292D01*
D02*
G37*
G36*
X685D02*
X660D01*
Y273D01*
X661Y265D01*
X666Y259D01*
X672Y255D01*
X680Y253D01*
X685D01*
Y292D01*
D02*
G37*
G36*
X700Y341D02*
X695D01*
Y302D01*
X720D01*
Y320D01*
X718Y328D01*
X714Y335D01*
X708Y339D01*
X700Y341D01*
D02*
G37*
G36*
X1172D02*
X1167D01*
Y302D01*
X1192D01*
Y320D01*
X1191Y328D01*
X1187Y335D01*
X1180Y339D01*
X1172Y341D01*
D02*
G37*
G36*
X227D02*
X222D01*
Y302D01*
X248D01*
Y320D01*
X246Y328D01*
X242Y335D01*
X235Y339D01*
X227Y341D01*
D02*
G37*
G36*
X464D02*
X459D01*
Y302D01*
X484D01*
Y320D01*
X482Y328D01*
X478Y335D01*
X471Y339D01*
X464Y341D01*
D02*
G37*
G36*
X1630D02*
X1625D01*
X1617Y339D01*
X1611Y335D01*
X1606Y328D01*
X1605Y320D01*
Y302D01*
X1630D01*
Y341D01*
D02*
G37*
G36*
X1645D02*
X1640D01*
Y302D01*
X1665D01*
Y320D01*
X1663Y328D01*
X1659Y335D01*
X1652Y339D01*
X1645Y341D01*
D02*
G37*
G36*
X1408D02*
X1404D01*
Y302D01*
X1429D01*
Y320D01*
X1427Y328D01*
X1423Y335D01*
X1416Y339D01*
X1408Y341D01*
D02*
G37*
G36*
X1881D02*
X1876D01*
Y302D01*
X1901D01*
Y320D01*
X1900Y328D01*
X1895Y335D01*
X1889Y339D01*
X1881Y341D01*
D02*
G37*
G36*
X936D02*
X931D01*
Y302D01*
X956D01*
Y320D01*
X955Y328D01*
X950Y335D01*
X944Y339D01*
X936Y341D01*
D02*
G37*
G36*
X449D02*
X444D01*
X436Y339D01*
X430Y335D01*
X425Y328D01*
X424Y320D01*
Y302D01*
X449D01*
Y341D01*
D02*
G37*
G36*
X1901Y292D02*
X1876D01*
Y253D01*
X1881D01*
X1889Y255D01*
X1895Y259D01*
X1900Y265D01*
X1901Y273D01*
Y292D01*
D02*
G37*
G36*
X921Y341D02*
X916D01*
X909Y339D01*
X902Y335D01*
X898Y328D01*
X896Y320D01*
Y302D01*
X921D01*
Y341D01*
D02*
G37*
G36*
X1394D02*
X1389D01*
X1381Y339D01*
X1374Y335D01*
X1370Y328D01*
X1369Y320D01*
Y302D01*
X1394D01*
Y341D01*
D02*
G37*
G36*
X1866D02*
X1861D01*
X1853Y339D01*
X1847Y335D01*
X1842Y328D01*
X1841Y320D01*
Y302D01*
X1866D01*
Y341D01*
D02*
G37*
G36*
X685D02*
X680D01*
X672Y339D01*
X666Y335D01*
X661Y328D01*
X660Y320D01*
Y302D01*
X685D01*
Y341D01*
D02*
G37*
G36*
X1157D02*
X1153D01*
X1145Y339D01*
X1138Y335D01*
X1134Y328D01*
X1132Y320D01*
Y302D01*
X1157D01*
Y341D01*
D02*
G37*
G36*
X1092Y79D02*
X1091Y79D01*
X1084Y77D01*
X1079Y72D01*
X1075Y67D01*
X1072Y61D01*
X1072Y59D01*
X1092D01*
Y79D01*
D02*
G37*
G36*
X866D02*
Y59D01*
X886D01*
X886Y61D01*
X884Y67D01*
X880Y72D01*
X874Y77D01*
X868Y79D01*
X866Y79D01*
D02*
G37*
G36*
X856D02*
X854Y79D01*
X848Y77D01*
X843Y72D01*
X839Y67D01*
X836Y61D01*
X836Y59D01*
X856D01*
Y79D01*
D02*
G37*
G36*
X1565D02*
X1563Y79D01*
X1557Y77D01*
X1551Y72D01*
X1547Y67D01*
X1545Y61D01*
X1544Y59D01*
X1565D01*
Y79D01*
D02*
G37*
G36*
X1329D02*
X1327Y79D01*
X1321Y77D01*
X1315Y72D01*
X1311Y67D01*
X1308Y61D01*
X1308Y59D01*
X1329D01*
Y79D01*
D02*
G37*
G36*
X1102D02*
Y59D01*
X1123D01*
X1122Y61D01*
X1120Y67D01*
X1116Y72D01*
X1110Y77D01*
X1104Y79D01*
X1102Y79D01*
D02*
G37*
G36*
X1339D02*
Y59D01*
X1359D01*
X1359Y61D01*
X1356Y67D01*
X1352Y72D01*
X1347Y77D01*
X1340Y79D01*
X1339Y79D01*
D02*
G37*
G36*
X630D02*
Y59D01*
X650D01*
X650Y61D01*
X647Y67D01*
X643Y72D01*
X638Y77D01*
X632Y79D01*
X630Y79D01*
D02*
G37*
G36*
X1736Y92D02*
X1711D01*
Y53D01*
X1736D01*
Y92D01*
D02*
G37*
G36*
X1534Y92D02*
X1510D01*
Y53D01*
X1534D01*
Y92D01*
D02*
G37*
G36*
X1500D02*
X1475D01*
Y53D01*
X1500D01*
Y92D01*
D02*
G37*
G36*
X1771Y92D02*
X1746D01*
Y53D01*
X1771D01*
Y92D01*
D02*
G37*
G36*
X620Y79D02*
X618Y79D01*
X612Y77D01*
X607Y72D01*
X602Y67D01*
X600Y61D01*
X600Y59D01*
X620D01*
Y79D01*
D02*
G37*
G36*
X394D02*
Y59D01*
X414D01*
X414Y61D01*
X411Y67D01*
X407Y72D01*
X402Y77D01*
X395Y79D01*
X394Y79D01*
D02*
G37*
G36*
X384D02*
X382Y79D01*
X376Y77D01*
X370Y72D01*
X366Y67D01*
X364Y61D01*
X363Y59D01*
X384D01*
Y79D01*
D02*
G37*
G36*
X353Y140D02*
X329D01*
Y102D01*
X353D01*
Y140D01*
D02*
G37*
G36*
X590D02*
X565D01*
Y102D01*
X590D01*
Y140D01*
D02*
G37*
G36*
X1736D02*
X1711D01*
Y102D01*
X1736D01*
Y140D01*
D02*
G37*
G36*
X117D02*
X92D01*
Y102D01*
X117D01*
Y140D01*
D02*
G37*
G36*
X1771D02*
X1746D01*
Y102D01*
X1771D01*
Y140D01*
D02*
G37*
G36*
X1500D02*
X1475D01*
Y102D01*
X1500D01*
Y140D01*
D02*
G37*
G36*
X1062D02*
X1037D01*
Y102D01*
X1062D01*
Y140D01*
D02*
G37*
G36*
X1298D02*
X1274D01*
Y102D01*
X1298D01*
Y140D01*
D02*
G37*
G36*
X826D02*
X801D01*
Y102D01*
X826D01*
Y140D01*
D02*
G37*
G36*
X82D02*
X58D01*
Y102D01*
X82D01*
Y140D01*
D02*
G37*
G36*
X1575Y79D02*
Y59D01*
X1595D01*
X1595Y61D01*
X1592Y67D01*
X1588Y72D01*
X1583Y77D01*
X1577Y79D01*
X1575Y79D01*
D02*
G37*
G36*
X791Y140D02*
X766D01*
Y102D01*
X791D01*
Y140D01*
D02*
G37*
G36*
X1027D02*
X1003D01*
Y102D01*
X1027D01*
Y140D01*
D02*
G37*
G36*
X1264D02*
X1239D01*
Y102D01*
X1264D01*
Y140D01*
D02*
G37*
G36*
X319D02*
X294D01*
Y102D01*
X319D01*
Y140D01*
D02*
G37*
G36*
X555D02*
X530D01*
Y102D01*
X555D01*
Y140D01*
D02*
G37*
G36*
X1092Y49D02*
X1072D01*
X1072Y47D01*
X1075Y41D01*
X1079Y36D01*
X1084Y32D01*
X1091Y29D01*
X1092Y29D01*
Y49D01*
D02*
G37*
G36*
X1123D02*
X1102D01*
Y29D01*
X1104Y29D01*
X1110Y32D01*
X1116Y36D01*
X1120Y41D01*
X1122Y47D01*
X1123Y49D01*
D02*
G37*
G36*
X856D02*
X836D01*
X836Y47D01*
X839Y41D01*
X843Y36D01*
X848Y32D01*
X854Y29D01*
X856Y29D01*
Y49D01*
D02*
G37*
G36*
X886D02*
X866D01*
Y29D01*
X868Y29D01*
X874Y32D01*
X880Y36D01*
X884Y41D01*
X886Y47D01*
X886Y49D01*
D02*
G37*
G36*
X1565D02*
X1544D01*
X1545Y47D01*
X1547Y41D01*
X1551Y36D01*
X1557Y32D01*
X1563Y29D01*
X1565Y29D01*
Y49D01*
D02*
G37*
G36*
X1595D02*
X1575D01*
Y29D01*
X1577Y29D01*
X1583Y32D01*
X1588Y36D01*
X1592Y41D01*
X1595Y47D01*
X1595Y49D01*
D02*
G37*
G36*
X1329D02*
X1308D01*
X1308Y47D01*
X1311Y41D01*
X1315Y36D01*
X1321Y32D01*
X1327Y29D01*
X1329Y29D01*
Y49D01*
D02*
G37*
G36*
X1359D02*
X1339D01*
Y29D01*
X1340Y29D01*
X1347Y32D01*
X1352Y36D01*
X1356Y41D01*
X1359Y47D01*
X1359Y49D01*
D02*
G37*
G36*
X151Y43D02*
X131D01*
X131Y42D01*
X134Y35D01*
X138Y30D01*
X143Y26D01*
X150Y23D01*
X151Y23D01*
Y43D01*
D02*
G37*
G36*
X182D02*
X161D01*
Y23D01*
X163Y23D01*
X169Y26D01*
X175Y30D01*
X179Y35D01*
X182Y42D01*
X182Y43D01*
D02*
G37*
G36*
X1802Y42D02*
X1782D01*
X1782Y41D01*
X1785Y34D01*
X1789Y29D01*
X1794Y25D01*
X1800Y22D01*
X1802Y22D01*
Y42D01*
D02*
G37*
G36*
X1832D02*
X1812D01*
Y22D01*
X1814Y22D01*
X1820Y25D01*
X1825Y29D01*
X1830Y34D01*
X1832Y41D01*
X1832Y42D01*
D02*
G37*
G36*
X620Y49D02*
X600D01*
X600Y47D01*
X602Y41D01*
X607Y36D01*
X612Y32D01*
X618Y29D01*
X620Y29D01*
Y49D01*
D02*
G37*
G36*
X650D02*
X630D01*
Y29D01*
X632Y29D01*
X638Y32D01*
X643Y36D01*
X647Y41D01*
X650Y47D01*
X650Y49D01*
D02*
G37*
G36*
X384D02*
X363D01*
X364Y47D01*
X366Y41D01*
X370Y36D01*
X376Y32D01*
X382Y29D01*
X384Y29D01*
Y49D01*
D02*
G37*
G36*
X414D02*
X394D01*
Y29D01*
X395Y29D01*
X402Y32D01*
X407Y36D01*
X411Y41D01*
X414Y47D01*
X414Y49D01*
D02*
G37*
G36*
X791Y92D02*
X766D01*
Y53D01*
X791D01*
Y92D01*
D02*
G37*
G36*
X826D02*
X801D01*
Y53D01*
X826D01*
Y92D01*
D02*
G37*
G36*
X555Y92D02*
X530D01*
Y53D01*
X555D01*
Y92D01*
D02*
G37*
G36*
X590D02*
X565D01*
Y53D01*
X590D01*
Y92D01*
D02*
G37*
G36*
X1264D02*
X1239D01*
Y53D01*
X1264D01*
Y92D01*
D02*
G37*
G36*
X1298D02*
X1274D01*
Y53D01*
X1298D01*
Y92D01*
D02*
G37*
G36*
X1027D02*
X1003D01*
Y53D01*
X1027D01*
Y92D01*
D02*
G37*
G36*
X1062D02*
X1037D01*
Y53D01*
X1062D01*
Y92D01*
D02*
G37*
G36*
X151Y74D02*
X150Y73D01*
X143Y71D01*
X138Y67D01*
X134Y61D01*
X131Y55D01*
X131Y53D01*
X151D01*
Y74D01*
D02*
G37*
G36*
X161D02*
Y53D01*
X182D01*
X182Y55D01*
X179Y61D01*
X175Y67D01*
X169Y71D01*
X163Y73D01*
X161Y74D01*
D02*
G37*
G36*
X1802Y73D02*
X1800Y72D01*
X1794Y70D01*
X1789Y66D01*
X1785Y60D01*
X1782Y54D01*
X1782Y52D01*
X1802D01*
Y73D01*
D02*
G37*
G36*
X1812D02*
Y52D01*
X1832D01*
X1832Y54D01*
X1830Y60D01*
X1825Y66D01*
X1820Y70D01*
X1814Y72D01*
X1812Y73D01*
D02*
G37*
G36*
X319Y92D02*
X294D01*
Y53D01*
X319D01*
Y92D01*
D02*
G37*
G36*
X353D02*
X329D01*
Y53D01*
X353D01*
Y92D01*
D02*
G37*
G36*
X82D02*
X58D01*
Y53D01*
X82D01*
Y92D01*
D02*
G37*
G36*
X117D02*
X92D01*
Y53D01*
X117D01*
Y92D01*
D02*
G37*
G36*
X1534Y140D02*
X1510D01*
Y102D01*
X1534D01*
Y140D01*
D02*
G37*
%LPD*%
G36*
X1953Y638D02*
X1836D01*
X1834Y643D01*
X1829Y648D01*
X1824Y652D01*
X1818Y655D01*
X1811Y656D01*
X1804Y655D01*
X1798Y652D01*
X1793Y648D01*
X1789Y643D01*
X1786Y638D01*
X1756D01*
Y686D01*
X1771D01*
Y773D01*
X1711D01*
Y686D01*
X1726D01*
Y642D01*
X1721Y638D01*
X1520D01*
Y686D01*
X1534D01*
Y773D01*
X1475D01*
Y686D01*
X1490D01*
Y642D01*
X1485Y638D01*
X1284D01*
Y686D01*
X1298D01*
Y773D01*
X1239D01*
Y686D01*
X1253D01*
Y642D01*
X1249Y638D01*
X1048D01*
Y686D01*
X1062D01*
Y773D01*
X1003D01*
Y686D01*
X1017D01*
Y642D01*
X1012Y638D01*
X811D01*
Y686D01*
X826D01*
Y773D01*
X766D01*
Y686D01*
X781D01*
Y642D01*
X776Y638D01*
X575D01*
Y686D01*
X590D01*
Y773D01*
X530D01*
Y686D01*
X545D01*
Y642D01*
X540Y638D01*
X339D01*
Y686D01*
X353D01*
Y773D01*
X294D01*
Y686D01*
X308D01*
Y642D01*
X304Y638D01*
X178D01*
X176Y643D01*
X172Y648D01*
X169Y651D01*
Y701D01*
X168Y707D01*
X164Y712D01*
X135Y741D01*
X130Y744D01*
X124Y745D01*
X117D01*
Y773D01*
X58D01*
Y686D01*
X117D01*
Y708D01*
X122Y711D01*
X138Y694D01*
Y651D01*
X135Y648D01*
X131Y643D01*
X129Y638D01*
X15D01*
Y811D01*
X1636D01*
X1639Y808D01*
X1639Y807D01*
X1640Y801D01*
X1644Y796D01*
X1656Y784D01*
X1660Y781D01*
X1666Y780D01*
X1672Y781D01*
X1677Y784D01*
X1680Y789D01*
X1681Y792D01*
X1710D01*
X1715Y793D01*
X1720Y796D01*
X1724Y801D01*
X1725Y807D01*
X1725Y808D01*
X1728Y811D01*
X1953D01*
Y638D01*
D02*
G37*
G36*
Y448D02*
X1748D01*
X1745Y452D01*
X1745Y453D01*
X1744Y459D01*
X1741Y464D01*
X1736Y467D01*
X1730Y468D01*
X1701D01*
X1701Y470D01*
X1697Y475D01*
X1693Y479D01*
X1687Y480D01*
X1681Y479D01*
X1676Y475D01*
X1664Y464D01*
X1661Y459D01*
X1660Y453D01*
X1660Y452D01*
X1656Y448D01*
X15D01*
Y622D01*
X129D01*
X131Y617D01*
X135Y612D01*
X141Y607D01*
X147Y605D01*
X154Y604D01*
X160Y605D01*
X167Y607D01*
X172Y612D01*
X176Y617D01*
X178Y622D01*
X281D01*
X283Y617D01*
X239Y573D01*
X188D01*
Y486D01*
X247D01*
Y538D01*
X331Y622D01*
X518D01*
X520Y617D01*
X476Y573D01*
X424D01*
Y486D01*
X483D01*
Y538D01*
X567Y622D01*
X754D01*
X756Y617D01*
X712Y573D01*
X660D01*
Y486D01*
X720D01*
Y538D01*
X804Y622D01*
X990D01*
X992Y617D01*
X948Y573D01*
X896D01*
Y486D01*
X956D01*
Y538D01*
X1040Y622D01*
X1226D01*
X1228Y617D01*
X1184Y573D01*
X1133D01*
Y486D01*
X1192D01*
Y538D01*
X1276Y622D01*
X1463D01*
X1464Y617D01*
X1420Y573D01*
X1369D01*
Y486D01*
X1428D01*
Y538D01*
X1512Y622D01*
X1699D01*
X1701Y617D01*
X1657Y573D01*
X1605D01*
Y486D01*
X1664D01*
Y538D01*
X1749Y622D01*
X1786D01*
X1789Y617D01*
X1793Y612D01*
X1796Y609D01*
Y590D01*
X1797Y584D01*
X1800Y579D01*
X1841Y538D01*
Y486D01*
X1901D01*
Y573D01*
X1849D01*
X1826Y596D01*
Y609D01*
X1829Y612D01*
X1834Y617D01*
X1836Y622D01*
X1953D01*
Y448D01*
D02*
G37*
%LPC*%
G36*
X1570Y763D02*
X1549D01*
X1550Y761D01*
X1552Y755D01*
X1556Y749D01*
X1562Y745D01*
X1568Y743D01*
X1570Y742D01*
Y763D01*
D02*
G37*
G36*
X1600D02*
X1580D01*
Y742D01*
X1582Y743D01*
X1588Y745D01*
X1593Y749D01*
X1597Y755D01*
X1600Y761D01*
X1600Y763D01*
D02*
G37*
G36*
X1334D02*
X1313D01*
X1313Y761D01*
X1316Y755D01*
X1320Y749D01*
X1326Y745D01*
X1332Y743D01*
X1334Y742D01*
Y763D01*
D02*
G37*
G36*
X1364D02*
X1344D01*
Y742D01*
X1345Y743D01*
X1352Y745D01*
X1357Y749D01*
X1361Y755D01*
X1364Y761D01*
X1364Y763D01*
D02*
G37*
G36*
X1830Y775D02*
X1810D01*
Y754D01*
X1812Y754D01*
X1818Y757D01*
X1823Y761D01*
X1828Y767D01*
X1830Y773D01*
X1830Y775D01*
D02*
G37*
G36*
X212Y774D02*
X208D01*
X200Y772D01*
X193Y768D01*
X192Y766D01*
X191Y766D01*
X188Y770D01*
X188Y772D01*
X189Y774D01*
X168D01*
Y753D01*
X170Y753D01*
X176Y756D01*
X182Y760D01*
X183Y762D01*
X183Y762D01*
X188Y761D01*
X189Y760D01*
X187Y754D01*
Y735D01*
X212D01*
Y774D01*
D02*
G37*
G36*
X158Y774D02*
X138D01*
X138Y772D01*
X141Y766D01*
X145Y760D01*
X150Y756D01*
X157Y753D01*
X158Y753D01*
Y774D01*
D02*
G37*
G36*
X1800Y775D02*
X1780D01*
X1780Y773D01*
X1783Y767D01*
X1787Y761D01*
X1792Y757D01*
X1798Y754D01*
X1800Y754D01*
Y775D01*
D02*
G37*
G36*
X625Y763D02*
X605D01*
X605Y761D01*
X607Y755D01*
X612Y749D01*
X617Y745D01*
X623Y743D01*
X625Y742D01*
Y763D01*
D02*
G37*
G36*
X655D02*
X635D01*
Y742D01*
X637Y743D01*
X643Y745D01*
X648Y749D01*
X652Y755D01*
X655Y761D01*
X655Y763D01*
D02*
G37*
G36*
X389D02*
X368D01*
X369Y761D01*
X371Y755D01*
X375Y749D01*
X381Y745D01*
X387Y743D01*
X389Y742D01*
Y763D01*
D02*
G37*
G36*
X419D02*
X399D01*
Y742D01*
X400Y743D01*
X407Y745D01*
X412Y749D01*
X416Y755D01*
X419Y761D01*
X419Y763D01*
D02*
G37*
G36*
X1097D02*
X1077D01*
X1077Y761D01*
X1080Y755D01*
X1084Y749D01*
X1089Y745D01*
X1096Y743D01*
X1097Y742D01*
Y763D01*
D02*
G37*
G36*
X1128D02*
X1107D01*
Y742D01*
X1109Y743D01*
X1115Y745D01*
X1121Y749D01*
X1125Y755D01*
X1127Y761D01*
X1128Y763D01*
D02*
G37*
G36*
X861D02*
X841D01*
X841Y761D01*
X844Y755D01*
X848Y749D01*
X853Y745D01*
X859Y743D01*
X861Y742D01*
Y763D01*
D02*
G37*
G36*
X891D02*
X871D01*
Y742D01*
X873Y743D01*
X879Y745D01*
X885Y749D01*
X889Y755D01*
X891Y761D01*
X891Y763D01*
D02*
G37*
G36*
X1570Y793D02*
X1568Y793D01*
X1562Y790D01*
X1556Y786D01*
X1552Y781D01*
X1550Y774D01*
X1549Y773D01*
X1570D01*
Y793D01*
D02*
G37*
G36*
X1580D02*
Y773D01*
X1600D01*
X1600Y774D01*
X1597Y781D01*
X1593Y786D01*
X1588Y790D01*
X1582Y793D01*
X1580Y793D01*
D02*
G37*
G36*
X1334D02*
X1332Y793D01*
X1326Y790D01*
X1320Y786D01*
X1316Y781D01*
X1313Y774D01*
X1313Y773D01*
X1334D01*
Y793D01*
D02*
G37*
G36*
X1344D02*
Y773D01*
X1364D01*
X1364Y774D01*
X1361Y781D01*
X1357Y786D01*
X1352Y790D01*
X1345Y793D01*
X1344Y793D01*
D02*
G37*
G36*
X1800Y805D02*
X1798Y805D01*
X1792Y802D01*
X1787Y798D01*
X1783Y793D01*
X1780Y786D01*
X1780Y785D01*
X1800D01*
Y805D01*
D02*
G37*
G36*
X1810D02*
Y785D01*
X1830D01*
X1830Y786D01*
X1828Y793D01*
X1823Y798D01*
X1818Y802D01*
X1812Y805D01*
X1810Y805D01*
D02*
G37*
G36*
X158Y804D02*
X157Y804D01*
X150Y801D01*
X145Y797D01*
X141Y792D01*
X138Y785D01*
X138Y784D01*
X158D01*
Y804D01*
D02*
G37*
G36*
X168D02*
Y784D01*
X189D01*
X188Y785D01*
X186Y792D01*
X182Y797D01*
X176Y801D01*
X170Y804D01*
X168Y804D01*
D02*
G37*
G36*
X625Y793D02*
X623Y793D01*
X617Y790D01*
X612Y786D01*
X607Y781D01*
X605Y774D01*
X605Y773D01*
X625D01*
Y793D01*
D02*
G37*
G36*
X635D02*
Y773D01*
X655D01*
X655Y774D01*
X652Y781D01*
X648Y786D01*
X643Y790D01*
X637Y793D01*
X635Y793D01*
D02*
G37*
G36*
X389D02*
X387Y793D01*
X381Y790D01*
X375Y786D01*
X371Y781D01*
X369Y774D01*
X368Y773D01*
X389D01*
Y793D01*
D02*
G37*
G36*
X399D02*
Y773D01*
X419D01*
X419Y774D01*
X416Y781D01*
X412Y786D01*
X407Y790D01*
X400Y793D01*
X399Y793D01*
D02*
G37*
G36*
X1097D02*
X1096Y793D01*
X1089Y790D01*
X1084Y786D01*
X1080Y781D01*
X1077Y774D01*
X1077Y773D01*
X1097D01*
Y793D01*
D02*
G37*
G36*
X1107D02*
Y773D01*
X1128D01*
X1127Y774D01*
X1125Y781D01*
X1121Y786D01*
X1115Y790D01*
X1109Y793D01*
X1107Y793D01*
D02*
G37*
G36*
X861D02*
X859Y793D01*
X853Y790D01*
X848Y786D01*
X844Y781D01*
X841Y774D01*
X841Y773D01*
X861D01*
Y793D01*
D02*
G37*
G36*
X871D02*
Y773D01*
X891D01*
X891Y774D01*
X889Y781D01*
X885Y786D01*
X879Y790D01*
X873Y793D01*
X871Y793D01*
D02*
G37*
G36*
X1192Y725D02*
X1167D01*
Y686D01*
X1172D01*
X1180Y688D01*
X1187Y692D01*
X1191Y699D01*
X1192Y706D01*
Y725D01*
D02*
G37*
G36*
X1394D02*
X1369D01*
Y706D01*
X1370Y699D01*
X1374Y692D01*
X1381Y688D01*
X1389Y686D01*
X1394D01*
Y725D01*
D02*
G37*
G36*
X956Y725D02*
X931D01*
Y686D01*
X936D01*
X944Y688D01*
X950Y692D01*
X955Y699D01*
X956Y706D01*
Y725D01*
D02*
G37*
G36*
X1157Y725D02*
X1132D01*
Y706D01*
X1134Y699D01*
X1138Y692D01*
X1145Y688D01*
X1153Y686D01*
X1157D01*
Y725D01*
D02*
G37*
G36*
X1665Y725D02*
X1640D01*
Y686D01*
X1645D01*
X1652Y688D01*
X1659Y692D01*
X1663Y699D01*
X1665Y706D01*
Y725D01*
D02*
G37*
G36*
X1866Y725D02*
X1841D01*
Y706D01*
X1842Y699D01*
X1847Y692D01*
X1853Y688D01*
X1861Y686D01*
X1866D01*
Y725D01*
D02*
G37*
G36*
X1429D02*
X1404D01*
Y686D01*
X1408D01*
X1416Y688D01*
X1423Y692D01*
X1427Y699D01*
X1429Y706D01*
Y725D01*
D02*
G37*
G36*
X1630Y725D02*
X1605D01*
Y706D01*
X1606Y699D01*
X1611Y692D01*
X1617Y688D01*
X1625Y686D01*
X1630D01*
Y725D01*
D02*
G37*
G36*
X248Y725D02*
X222D01*
Y686D01*
X227D01*
X235Y688D01*
X242Y692D01*
X246Y699D01*
X248Y706D01*
Y725D01*
D02*
G37*
G36*
X449D02*
X424D01*
Y706D01*
X425Y699D01*
X430Y692D01*
X436Y688D01*
X444Y686D01*
X449D01*
Y725D01*
D02*
G37*
G36*
X212D02*
X187D01*
Y706D01*
X189Y699D01*
X193Y692D01*
X200Y688D01*
X208Y686D01*
X212D01*
Y725D01*
D02*
G37*
G36*
X720D02*
X695D01*
Y686D01*
X700D01*
X708Y688D01*
X714Y692D01*
X718Y699D01*
X720Y706D01*
Y725D01*
D02*
G37*
G36*
X921Y725D02*
X896D01*
Y706D01*
X898Y699D01*
X902Y692D01*
X909Y688D01*
X916Y686D01*
X921D01*
Y725D01*
D02*
G37*
G36*
X484Y725D02*
X459D01*
Y686D01*
X464D01*
X471Y688D01*
X478Y692D01*
X482Y699D01*
X484Y706D01*
Y725D01*
D02*
G37*
G36*
X685D02*
X660D01*
Y706D01*
X661Y699D01*
X666Y692D01*
X672Y688D01*
X680Y686D01*
X685D01*
Y725D01*
D02*
G37*
G36*
X700Y774D02*
X695D01*
Y735D01*
X720D01*
Y754D01*
X718Y761D01*
X714Y768D01*
X708Y772D01*
X700Y774D01*
D02*
G37*
G36*
X1172D02*
X1167D01*
Y735D01*
X1192D01*
Y754D01*
X1191Y761D01*
X1187Y768D01*
X1180Y772D01*
X1172Y774D01*
D02*
G37*
G36*
X227D02*
X222D01*
Y735D01*
X248D01*
Y754D01*
X246Y761D01*
X242Y768D01*
X235Y772D01*
X227Y774D01*
D02*
G37*
G36*
X464D02*
X459D01*
Y735D01*
X484D01*
Y754D01*
X482Y761D01*
X478Y768D01*
X471Y772D01*
X464Y774D01*
D02*
G37*
G36*
X1630D02*
X1625D01*
X1617Y772D01*
X1611Y768D01*
X1606Y761D01*
X1605Y754D01*
Y735D01*
X1630D01*
Y774D01*
D02*
G37*
G36*
X1645D02*
X1640D01*
Y735D01*
X1665D01*
Y754D01*
X1663Y761D01*
X1659Y768D01*
X1652Y772D01*
X1645Y774D01*
D02*
G37*
G36*
X1408D02*
X1404D01*
Y735D01*
X1429D01*
Y754D01*
X1427Y761D01*
X1423Y768D01*
X1416Y772D01*
X1408Y774D01*
D02*
G37*
G36*
X1881D02*
X1876D01*
Y735D01*
X1901D01*
Y754D01*
X1900Y761D01*
X1895Y768D01*
X1889Y772D01*
X1881Y774D01*
D02*
G37*
G36*
X936D02*
X931D01*
Y735D01*
X956D01*
Y754D01*
X955Y761D01*
X950Y768D01*
X944Y772D01*
X936Y774D01*
D02*
G37*
G36*
X449D02*
X444D01*
X436Y772D01*
X430Y768D01*
X425Y761D01*
X424Y754D01*
Y735D01*
X449D01*
Y774D01*
D02*
G37*
G36*
X1901Y725D02*
X1876D01*
Y686D01*
X1881D01*
X1889Y688D01*
X1895Y692D01*
X1900Y699D01*
X1901Y706D01*
Y725D01*
D02*
G37*
G36*
X921Y774D02*
X916D01*
X909Y772D01*
X902Y768D01*
X898Y761D01*
X896Y754D01*
Y735D01*
X921D01*
Y774D01*
D02*
G37*
G36*
X1394D02*
X1389D01*
X1381Y772D01*
X1374Y768D01*
X1370Y761D01*
X1369Y754D01*
Y735D01*
X1394D01*
Y774D01*
D02*
G37*
G36*
X1866D02*
X1861D01*
X1853Y772D01*
X1847Y768D01*
X1842Y761D01*
X1841Y754D01*
Y735D01*
X1866D01*
Y774D01*
D02*
G37*
G36*
X685D02*
X680D01*
X672Y772D01*
X666Y768D01*
X661Y761D01*
X660Y754D01*
Y735D01*
X685D01*
Y774D01*
D02*
G37*
G36*
X1157D02*
X1153D01*
X1145Y772D01*
X1138Y768D01*
X1134Y761D01*
X1132Y754D01*
Y735D01*
X1157D01*
Y774D01*
D02*
G37*
G36*
X1092Y512D02*
X1091Y512D01*
X1084Y510D01*
X1079Y505D01*
X1075Y500D01*
X1072Y494D01*
X1072Y492D01*
X1092D01*
Y512D01*
D02*
G37*
G36*
X866D02*
Y492D01*
X886D01*
X886Y494D01*
X884Y500D01*
X880Y505D01*
X874Y510D01*
X868Y512D01*
X866Y512D01*
D02*
G37*
G36*
X856D02*
X854Y512D01*
X848Y510D01*
X843Y505D01*
X839Y500D01*
X836Y494D01*
X836Y492D01*
X856D01*
Y512D01*
D02*
G37*
G36*
X1565D02*
X1563Y512D01*
X1557Y510D01*
X1551Y505D01*
X1547Y500D01*
X1545Y494D01*
X1544Y492D01*
X1565D01*
Y512D01*
D02*
G37*
G36*
X1329D02*
X1327Y512D01*
X1321Y510D01*
X1315Y505D01*
X1311Y500D01*
X1308Y494D01*
X1308Y492D01*
X1329D01*
Y512D01*
D02*
G37*
G36*
X1102D02*
Y492D01*
X1123D01*
X1122Y494D01*
X1120Y500D01*
X1116Y505D01*
X1110Y510D01*
X1104Y512D01*
X1102Y512D01*
D02*
G37*
G36*
X1339D02*
Y492D01*
X1359D01*
X1359Y494D01*
X1356Y500D01*
X1352Y505D01*
X1347Y510D01*
X1340Y512D01*
X1339Y512D01*
D02*
G37*
G36*
X630D02*
Y492D01*
X650D01*
X650Y494D01*
X647Y500D01*
X643Y505D01*
X638Y510D01*
X632Y512D01*
X630Y512D01*
D02*
G37*
G36*
X1736Y525D02*
X1711D01*
Y486D01*
X1736D01*
Y525D01*
D02*
G37*
G36*
X1534Y525D02*
X1510D01*
Y486D01*
X1534D01*
Y525D01*
D02*
G37*
G36*
X1500D02*
X1475D01*
Y486D01*
X1500D01*
Y525D01*
D02*
G37*
G36*
X1771Y525D02*
X1746D01*
Y486D01*
X1771D01*
Y525D01*
D02*
G37*
G36*
X620Y512D02*
X618Y512D01*
X612Y510D01*
X607Y505D01*
X602Y500D01*
X600Y494D01*
X600Y492D01*
X620D01*
Y512D01*
D02*
G37*
G36*
X394D02*
Y492D01*
X414D01*
X414Y494D01*
X411Y500D01*
X407Y505D01*
X402Y510D01*
X395Y512D01*
X394Y512D01*
D02*
G37*
G36*
X384D02*
X382Y512D01*
X376Y510D01*
X370Y505D01*
X366Y500D01*
X364Y494D01*
X363Y492D01*
X384D01*
Y512D01*
D02*
G37*
G36*
X353Y573D02*
X329D01*
Y535D01*
X353D01*
Y573D01*
D02*
G37*
G36*
X590D02*
X565D01*
Y535D01*
X590D01*
Y573D01*
D02*
G37*
G36*
X1736D02*
X1711D01*
Y535D01*
X1736D01*
Y573D01*
D02*
G37*
G36*
X117D02*
X92D01*
Y535D01*
X117D01*
Y573D01*
D02*
G37*
G36*
X1771D02*
X1746D01*
Y535D01*
X1771D01*
Y573D01*
D02*
G37*
G36*
X1500D02*
X1475D01*
Y535D01*
X1500D01*
Y573D01*
D02*
G37*
G36*
X1062D02*
X1037D01*
Y535D01*
X1062D01*
Y573D01*
D02*
G37*
G36*
X1298D02*
X1274D01*
Y535D01*
X1298D01*
Y573D01*
D02*
G37*
G36*
X826D02*
X801D01*
Y535D01*
X826D01*
Y573D01*
D02*
G37*
G36*
X82D02*
X58D01*
Y535D01*
X82D01*
Y573D01*
D02*
G37*
G36*
X1575Y512D02*
Y492D01*
X1595D01*
X1595Y494D01*
X1592Y500D01*
X1588Y505D01*
X1583Y510D01*
X1577Y512D01*
X1575Y512D01*
D02*
G37*
G36*
X791Y573D02*
X766D01*
Y535D01*
X791D01*
Y573D01*
D02*
G37*
G36*
X1027D02*
X1003D01*
Y535D01*
X1027D01*
Y573D01*
D02*
G37*
G36*
X1264D02*
X1239D01*
Y535D01*
X1264D01*
Y573D01*
D02*
G37*
G36*
X319D02*
X294D01*
Y535D01*
X319D01*
Y573D01*
D02*
G37*
G36*
X555D02*
X530D01*
Y535D01*
X555D01*
Y573D01*
D02*
G37*
G36*
X1092Y482D02*
X1072D01*
X1072Y480D01*
X1075Y474D01*
X1079Y469D01*
X1084Y465D01*
X1091Y462D01*
X1092Y462D01*
Y482D01*
D02*
G37*
G36*
X1123D02*
X1102D01*
Y462D01*
X1104Y462D01*
X1110Y465D01*
X1116Y469D01*
X1120Y474D01*
X1122Y480D01*
X1123Y482D01*
D02*
G37*
G36*
X856D02*
X836D01*
X836Y480D01*
X839Y474D01*
X843Y469D01*
X848Y465D01*
X854Y462D01*
X856Y462D01*
Y482D01*
D02*
G37*
G36*
X886D02*
X866D01*
Y462D01*
X868Y462D01*
X874Y465D01*
X880Y469D01*
X884Y474D01*
X886Y480D01*
X886Y482D01*
D02*
G37*
G36*
X1565D02*
X1544D01*
X1545Y480D01*
X1547Y474D01*
X1551Y469D01*
X1557Y465D01*
X1563Y462D01*
X1565Y462D01*
Y482D01*
D02*
G37*
G36*
X1595D02*
X1575D01*
Y462D01*
X1577Y462D01*
X1583Y465D01*
X1588Y469D01*
X1592Y474D01*
X1595Y480D01*
X1595Y482D01*
D02*
G37*
G36*
X1329D02*
X1308D01*
X1308Y480D01*
X1311Y474D01*
X1315Y469D01*
X1321Y465D01*
X1327Y462D01*
X1329Y462D01*
Y482D01*
D02*
G37*
G36*
X1359D02*
X1339D01*
Y462D01*
X1340Y462D01*
X1347Y465D01*
X1352Y469D01*
X1356Y474D01*
X1359Y480D01*
X1359Y482D01*
D02*
G37*
G36*
X151Y476D02*
X131D01*
X131Y475D01*
X134Y468D01*
X138Y463D01*
X143Y459D01*
X150Y456D01*
X151Y456D01*
Y476D01*
D02*
G37*
G36*
X182D02*
X161D01*
Y456D01*
X163Y456D01*
X169Y459D01*
X175Y463D01*
X179Y468D01*
X182Y475D01*
X182Y476D01*
D02*
G37*
G36*
X1802Y475D02*
X1782D01*
X1782Y474D01*
X1785Y467D01*
X1789Y462D01*
X1794Y458D01*
X1800Y455D01*
X1802Y455D01*
Y475D01*
D02*
G37*
G36*
X1832D02*
X1812D01*
Y455D01*
X1814Y455D01*
X1820Y458D01*
X1825Y462D01*
X1830Y467D01*
X1832Y474D01*
X1832Y475D01*
D02*
G37*
G36*
X620Y482D02*
X600D01*
X600Y480D01*
X602Y474D01*
X607Y469D01*
X612Y465D01*
X618Y462D01*
X620Y462D01*
Y482D01*
D02*
G37*
G36*
X650D02*
X630D01*
Y462D01*
X632Y462D01*
X638Y465D01*
X643Y469D01*
X647Y474D01*
X650Y480D01*
X650Y482D01*
D02*
G37*
G36*
X384D02*
X363D01*
X364Y480D01*
X366Y474D01*
X370Y469D01*
X376Y465D01*
X382Y462D01*
X384Y462D01*
Y482D01*
D02*
G37*
G36*
X414D02*
X394D01*
Y462D01*
X395Y462D01*
X402Y465D01*
X407Y469D01*
X411Y474D01*
X414Y480D01*
X414Y482D01*
D02*
G37*
G36*
X791Y525D02*
X766D01*
Y486D01*
X791D01*
Y525D01*
D02*
G37*
G36*
X826D02*
X801D01*
Y486D01*
X826D01*
Y525D01*
D02*
G37*
G36*
X555Y525D02*
X530D01*
Y486D01*
X555D01*
Y525D01*
D02*
G37*
G36*
X590D02*
X565D01*
Y486D01*
X590D01*
Y525D01*
D02*
G37*
G36*
X1264D02*
X1239D01*
Y486D01*
X1264D01*
Y525D01*
D02*
G37*
G36*
X1298D02*
X1274D01*
Y486D01*
X1298D01*
Y525D01*
D02*
G37*
G36*
X1027D02*
X1003D01*
Y486D01*
X1027D01*
Y525D01*
D02*
G37*
G36*
X1062D02*
X1037D01*
Y486D01*
X1062D01*
Y525D01*
D02*
G37*
G36*
X151Y507D02*
X150Y506D01*
X143Y504D01*
X138Y500D01*
X134Y494D01*
X131Y488D01*
X131Y486D01*
X151D01*
Y507D01*
D02*
G37*
G36*
X161D02*
Y486D01*
X182D01*
X182Y488D01*
X179Y494D01*
X175Y500D01*
X169Y504D01*
X163Y506D01*
X161Y507D01*
D02*
G37*
G36*
X1802Y506D02*
X1800Y505D01*
X1794Y503D01*
X1789Y499D01*
X1785Y493D01*
X1782Y487D01*
X1782Y485D01*
X1802D01*
Y506D01*
D02*
G37*
G36*
X1812D02*
Y485D01*
X1832D01*
X1832Y487D01*
X1830Y493D01*
X1825Y499D01*
X1820Y503D01*
X1814Y505D01*
X1812Y506D01*
D02*
G37*
G36*
X319Y525D02*
X294D01*
Y486D01*
X319D01*
Y525D01*
D02*
G37*
G36*
X353D02*
X329D01*
Y486D01*
X353D01*
Y525D01*
D02*
G37*
G36*
X82D02*
X58D01*
Y486D01*
X82D01*
Y525D01*
D02*
G37*
G36*
X117D02*
X92D01*
Y486D01*
X117D01*
Y525D01*
D02*
G37*
G36*
X1534Y573D02*
X1510D01*
Y535D01*
X1534D01*
Y573D01*
D02*
G37*
%LPD*%
D10*
X1402Y1099D02*
D03*
X383D02*
D03*
D11*
X1575D02*
D03*
X557D02*
D03*
D12*
X1207Y928D02*
D03*
Y1164D02*
D03*
X1782Y928D02*
D03*
Y1164D02*
D03*
X189Y928D02*
D03*
Y1164D02*
D03*
X764Y928D02*
D03*
Y1164D02*
D03*
D13*
X1800Y1757D02*
D03*
X1186Y1837D02*
D03*
Y1758D02*
D03*
Y1680D02*
D03*
Y1600D02*
D03*
Y1522D02*
D03*
Y1444D02*
D03*
Y1365D02*
D03*
X1801Y1364D02*
D03*
Y1443D02*
D03*
Y1521D02*
D03*
X1800Y1600D02*
D03*
Y1679D02*
D03*
Y1837D02*
D03*
Y1915D02*
D03*
X781Y1757D02*
D03*
X167Y1837D02*
D03*
Y1758D02*
D03*
Y1680D02*
D03*
Y1600D02*
D03*
Y1522D02*
D03*
Y1444D02*
D03*
Y1365D02*
D03*
X782Y1364D02*
D03*
Y1443D02*
D03*
Y1521D02*
D03*
X781Y1600D02*
D03*
Y1679D02*
D03*
Y1837D02*
D03*
Y1915D02*
D03*
D14*
X1296Y1283D02*
D03*
X1374D02*
D03*
X1452D02*
D03*
X1532D02*
D03*
X1610D02*
D03*
X1690D02*
D03*
X277D02*
D03*
X355D02*
D03*
X433D02*
D03*
X513D02*
D03*
X591D02*
D03*
X671D02*
D03*
D15*
X1186Y1915D02*
D03*
X167D02*
D03*
D16*
X1374Y1216D02*
Y1283D01*
X1227Y1069D02*
X1374Y1216D01*
X1152Y1069D02*
X1227D01*
X1239Y1049D02*
X1452Y1262D01*
X1164Y1049D02*
X1239D01*
X1452Y1262D02*
Y1283D01*
X1113Y1223D02*
X1183Y1293D01*
X1285D02*
X1296Y1283D01*
X1183Y1293D02*
X1285D01*
X1069Y954D02*
X1164Y1049D01*
X1102Y1019D02*
X1152Y1069D01*
X1759Y1167D02*
X1772Y1180D01*
Y1254D01*
X1729Y1095D02*
X1842D01*
X1615Y1210D02*
X1729Y1095D01*
X1615Y1210D02*
Y1283D01*
X1532Y1262D02*
X1720Y1073D01*
X1532Y1262D02*
Y1283D01*
X1720Y1073D02*
X1798D01*
X1919Y919D02*
Y953D01*
X1798Y1073D02*
X1919Y953D01*
X1842Y1095D02*
X1919Y1019D01*
X1713Y1306D02*
X1826D01*
X1690Y1283D02*
X1713Y1306D01*
X1826D02*
X1874Y1257D01*
X1759Y1167D02*
X1779Y1147D01*
X1874Y1200D02*
X1919Y1156D01*
X1874Y1200D02*
Y1257D01*
X1919Y1119D02*
Y1156D01*
X1069Y1019D02*
X1102D01*
X1069Y919D02*
Y954D01*
X1207Y1180D02*
Y1262D01*
X1069Y1919D02*
X1182D01*
X1069Y1819D02*
X1168D01*
X1108Y1758D02*
X1186D01*
X1069Y1719D02*
X1108Y1758D01*
X1130Y1680D02*
X1186D01*
X1069Y1619D02*
X1130Y1680D01*
X1150Y1600D02*
X1186D01*
X1069Y1519D02*
X1150Y1600D01*
X1142Y1522D02*
X1186D01*
X1069Y1449D02*
X1142Y1522D01*
X1069Y1419D02*
Y1449D01*
X1164Y1444D02*
X1186D01*
X1069Y1349D02*
X1164Y1444D01*
X1069Y1319D02*
Y1349D01*
X1800Y1915D02*
X1915D01*
X1800Y1837D02*
X1901D01*
X1919Y1819D01*
X1800Y1757D02*
X1881D01*
X1919Y1719D01*
X1800Y1679D02*
X1859D01*
X1919Y1619D01*
X1800Y1600D02*
X1838D01*
X1919Y1519D01*
X1801Y1521D02*
X1803Y1519D01*
X1839D01*
X1919Y1439D01*
Y1419D02*
Y1439D01*
X1801Y1443D02*
X1825D01*
X1919Y1349D01*
Y1319D02*
Y1349D01*
X1069Y1119D02*
X1083D01*
X1113Y1148D01*
Y1223D01*
X1402Y1099D02*
X1482Y1019D01*
X1639D01*
X1278Y1936D02*
Y1876D01*
X1308D01*
X1318Y1886D01*
Y1926D01*
X1308Y1936D01*
X1278D01*
X1338Y1916D02*
Y1876D01*
Y1896D01*
X1348Y1906D01*
X1358Y1916D01*
X1368D01*
X1398Y1876D02*
X1418D01*
X1408D01*
Y1916D01*
X1398D01*
X1478Y1876D02*
X1458D01*
X1448Y1886D01*
Y1906D01*
X1458Y1916D01*
X1478D01*
X1488Y1906D01*
Y1896D01*
X1448D01*
X1508Y1876D02*
X1538D01*
X1548Y1886D01*
X1538Y1896D01*
X1518D01*
X1508Y1906D01*
X1518Y1916D01*
X1548D01*
X1568Y1926D02*
X1578Y1936D01*
X1598D01*
X1608Y1926D01*
Y1886D01*
X1598Y1876D01*
X1578D01*
X1568Y1886D01*
Y1926D01*
X1628D02*
X1638Y1936D01*
X1658D01*
X1668Y1926D01*
Y1886D01*
X1658Y1876D01*
X1638D01*
X1628Y1886D01*
Y1926D01*
X1688Y1936D02*
X1728D01*
Y1926D01*
X1688Y1886D01*
Y1876D01*
X355Y1216D02*
Y1283D01*
X209Y1069D02*
X355Y1216D01*
X134Y1069D02*
X209D01*
X221Y1049D02*
X433Y1262D01*
X145Y1049D02*
X221D01*
X433Y1262D02*
Y1283D01*
X95Y1223D02*
X164Y1293D01*
X267D02*
X277Y1283D01*
X164Y1293D02*
X267D01*
X50Y954D02*
X145Y1049D01*
X83Y1019D02*
X134Y1069D01*
X740Y1167D02*
X753Y1180D01*
Y1254D01*
X710Y1095D02*
X823D01*
X596Y1210D02*
X710Y1095D01*
X596Y1210D02*
Y1283D01*
X513Y1262D02*
X702Y1073D01*
X513Y1262D02*
Y1283D01*
X702Y1073D02*
X780D01*
X900Y919D02*
Y953D01*
X780Y1073D02*
X900Y953D01*
X823Y1095D02*
X900Y1019D01*
X694Y1306D02*
X807D01*
X671Y1283D02*
X694Y1306D01*
X807D02*
X855Y1257D01*
X740Y1167D02*
X760Y1147D01*
X855Y1200D02*
X900Y1156D01*
X855Y1200D02*
Y1257D01*
X900Y1119D02*
Y1156D01*
X50Y1019D02*
X83D01*
X50Y919D02*
Y954D01*
X189Y1180D02*
Y1262D01*
X50Y1919D02*
X163D01*
X50Y1819D02*
X149D01*
X89Y1758D02*
X167D01*
X50Y1719D02*
X89Y1758D01*
X111Y1680D02*
X167D01*
X50Y1619D02*
X111Y1680D01*
X131Y1600D02*
X167D01*
X50Y1519D02*
X131Y1600D01*
X123Y1522D02*
X167D01*
X50Y1449D02*
X123Y1522D01*
X50Y1419D02*
Y1449D01*
X145Y1444D02*
X167D01*
X50Y1349D02*
X145Y1444D01*
X50Y1319D02*
Y1349D01*
X781Y1915D02*
X896D01*
X781Y1837D02*
X882D01*
X900Y1819D01*
X781Y1757D02*
X862D01*
X900Y1719D01*
X781Y1679D02*
X840D01*
X900Y1619D01*
X781Y1600D02*
X819D01*
X900Y1519D01*
X782Y1521D02*
X784Y1519D01*
X820D01*
X900Y1439D01*
Y1419D02*
Y1439D01*
X782Y1443D02*
X806D01*
X900Y1349D01*
Y1319D02*
Y1349D01*
X50Y1119D02*
X65D01*
X95Y1148D01*
Y1223D01*
X383Y1099D02*
X463Y1019D01*
X620D01*
X260Y1936D02*
Y1876D01*
X290D01*
X300Y1886D01*
Y1926D01*
X290Y1936D01*
X260D01*
X320Y1916D02*
Y1876D01*
Y1896D01*
X330Y1906D01*
X340Y1916D01*
X350D01*
X380Y1876D02*
X400D01*
X390D01*
Y1916D01*
X380D01*
X460Y1876D02*
X440D01*
X430Y1886D01*
Y1906D01*
X440Y1916D01*
X460D01*
X470Y1906D01*
Y1896D01*
X430D01*
X490Y1876D02*
X520D01*
X530Y1886D01*
X520Y1896D01*
X500D01*
X490Y1906D01*
X500Y1916D01*
X530D01*
X550Y1926D02*
X560Y1936D01*
X580D01*
X590Y1926D01*
Y1886D01*
X580Y1876D01*
X560D01*
X550Y1886D01*
Y1926D01*
X610D02*
X620Y1936D01*
X640D01*
X650Y1926D01*
Y1886D01*
X640Y1876D01*
X620D01*
X610Y1886D01*
Y1926D01*
X670Y1936D02*
X710D01*
Y1926D01*
X670Y1886D01*
Y1876D01*
X1675Y20D02*
X1687Y31D01*
X1655Y374D02*
X1710D01*
X1655D02*
X1666Y386D01*
X1655Y374D02*
X1666Y362D01*
X1675Y20D02*
X1687Y8D01*
X1675Y20D02*
X1730D01*
X1811Y157D02*
X1871Y97D01*
X1811Y157D02*
Y197D01*
X154D02*
Y268D01*
X124Y297D02*
X154Y268D01*
X87Y297D02*
X124D01*
X1741Y203D02*
Y297D01*
X1635Y97D02*
X1741Y203D01*
X1505D02*
Y297D01*
X1399Y97D02*
X1505Y203D01*
X1269Y203D02*
Y297D01*
X1162Y97D02*
X1269Y203D01*
X1032Y203D02*
Y297D01*
X926Y97D02*
X1032Y203D01*
X796D02*
Y297D01*
X690Y97D02*
X796Y203D01*
X560Y203D02*
Y297D01*
X454Y97D02*
X560Y203D01*
X324Y203D02*
Y297D01*
X217Y97D02*
X324Y203D01*
X1675Y453D02*
X1687Y465D01*
X1655Y807D02*
X1710D01*
X1655D02*
X1666Y819D01*
X1655Y807D02*
X1666Y795D01*
X1675Y453D02*
X1687Y441D01*
X1675Y453D02*
X1730D01*
X1811Y590D02*
X1871Y530D01*
X1811Y590D02*
Y630D01*
X154D02*
Y701D01*
X124Y730D02*
X154Y701D01*
X87Y730D02*
X124D01*
X1741Y636D02*
Y730D01*
X1635Y530D02*
X1741Y636D01*
X1505D02*
Y730D01*
X1399Y530D02*
X1505Y636D01*
X1269Y636D02*
Y730D01*
X1162Y530D02*
X1269Y636D01*
X1032Y636D02*
Y730D01*
X926Y530D02*
X1032Y636D01*
X796D02*
Y730D01*
X690Y530D02*
X796Y636D01*
X560Y636D02*
Y730D01*
X454Y530D02*
X560Y636D01*
X324Y636D02*
Y730D01*
X217Y530D02*
X324Y636D01*
D17*
X1349Y1079D02*
X1369Y1099D01*
X1349Y919D02*
Y1079D01*
X1069Y1219D02*
X1186Y1336D01*
Y1365D01*
X1369Y1099D02*
X1402D01*
X330Y1079D02*
X350Y1099D01*
X330Y919D02*
Y1079D01*
X50Y1219D02*
X167Y1336D01*
Y1365D01*
X350Y1099D02*
X383D01*
D18*
X87Y97D02*
D03*
Y297D02*
D03*
X324D02*
D03*
Y97D02*
D03*
X560D02*
D03*
Y297D02*
D03*
X796D02*
D03*
Y97D02*
D03*
X1032D02*
D03*
Y297D02*
D03*
X1269D02*
D03*
Y97D02*
D03*
X1505D02*
D03*
Y297D02*
D03*
X1741D02*
D03*
Y97D02*
D03*
X87Y530D02*
D03*
Y730D02*
D03*
X324D02*
D03*
Y530D02*
D03*
X560D02*
D03*
Y730D02*
D03*
X796D02*
D03*
Y530D02*
D03*
X1032D02*
D03*
Y730D02*
D03*
X1269D02*
D03*
Y530D02*
D03*
X1505D02*
D03*
Y730D02*
D03*
X1741D02*
D03*
Y530D02*
D03*
D19*
X217Y97D02*
D03*
X454D02*
D03*
X690D02*
D03*
X926D02*
D03*
X1162D02*
D03*
X1399D02*
D03*
X1635D02*
D03*
X1871D02*
D03*
X217Y530D02*
D03*
X454D02*
D03*
X690D02*
D03*
X926D02*
D03*
X1162D02*
D03*
X1399D02*
D03*
X1635D02*
D03*
X1871D02*
D03*
D20*
X217Y297D02*
D03*
X454D02*
D03*
X690D02*
D03*
X926D02*
D03*
X1162D02*
D03*
X1399D02*
D03*
X1635D02*
D03*
X1871D02*
D03*
X217Y730D02*
D03*
X454D02*
D03*
X690D02*
D03*
X926D02*
D03*
X1162D02*
D03*
X1399D02*
D03*
X1635D02*
D03*
X1871D02*
D03*
D21*
X1439Y1099D02*
D03*
X420D02*
D03*
D22*
X1539D02*
D03*
X520D02*
D03*
D23*
X1919Y1919D02*
D03*
Y1819D02*
D03*
Y1719D02*
D03*
Y1619D02*
D03*
Y1519D02*
D03*
Y1419D02*
D03*
Y1319D02*
D03*
Y1219D02*
D03*
Y1119D02*
D03*
Y1019D02*
D03*
Y919D02*
D03*
X1069Y1819D02*
D03*
Y1719D02*
D03*
Y1619D02*
D03*
Y1519D02*
D03*
Y1419D02*
D03*
Y1319D02*
D03*
Y1219D02*
D03*
Y1119D02*
D03*
Y1019D02*
D03*
Y919D02*
D03*
X1549D02*
D03*
X1449D02*
D03*
X1349D02*
D03*
X900Y1919D02*
D03*
Y1819D02*
D03*
Y1719D02*
D03*
Y1619D02*
D03*
Y1519D02*
D03*
Y1419D02*
D03*
Y1319D02*
D03*
Y1219D02*
D03*
Y1119D02*
D03*
Y1019D02*
D03*
Y919D02*
D03*
X50Y1819D02*
D03*
Y1719D02*
D03*
Y1619D02*
D03*
Y1519D02*
D03*
Y1419D02*
D03*
Y1319D02*
D03*
Y1219D02*
D03*
Y1119D02*
D03*
Y1019D02*
D03*
Y919D02*
D03*
X530D02*
D03*
X430D02*
D03*
X330D02*
D03*
D24*
X1069Y1919D02*
D03*
X50D02*
D03*
D25*
X1649Y919D02*
D03*
X630D02*
D03*
D26*
X1267Y1014D02*
D03*
X1772Y1254D02*
D03*
X1207Y1262D02*
D03*
X1319Y1719D02*
D03*
X1679D02*
D03*
X1489Y1389D02*
D03*
X1639Y1019D02*
D03*
X248Y1014D02*
D03*
X753Y1254D02*
D03*
X189Y1262D02*
D03*
X300Y1719D02*
D03*
X660D02*
D03*
X470Y1389D02*
D03*
X620Y1019D02*
D03*
X1811Y197D02*
D03*
X154D02*
D03*
X630Y335D02*
D03*
X866D02*
D03*
X1102D02*
D03*
X1339D02*
D03*
X1575D02*
D03*
X1805Y346D02*
D03*
X1807Y47D02*
D03*
X1570Y54D02*
D03*
X1334D02*
D03*
X1097D02*
D03*
X861D02*
D03*
X625D02*
D03*
X389D02*
D03*
X156Y48D02*
D03*
X394Y335D02*
D03*
X163Y345D02*
D03*
X1811Y630D02*
D03*
X154D02*
D03*
X630Y768D02*
D03*
X866D02*
D03*
X1102D02*
D03*
X1339D02*
D03*
X1575D02*
D03*
X1805Y780D02*
D03*
X1807Y480D02*
D03*
X1570Y487D02*
D03*
X1334D02*
D03*
X1097D02*
D03*
X861D02*
D03*
X625D02*
D03*
X389D02*
D03*
X156Y481D02*
D03*
X394Y768D02*
D03*
X163Y779D02*
D03*
M02*
