M48
;Layer_Color=9474304
;FILE_FORMAT=2:3
INCH,LZ
;TYPE=PLATED
T1F00S00C0.016
T2F00S00C0.035
%
T01
X00156Y00048
X00154Y00197
X00163Y00345
X00156Y00481
X00389Y00487
X00394Y00335
X00389Y00054
X00625
X00861
X01097
X01334
X0157
X01807Y00047
X01811Y00197
X01805Y00346
X01807Y0048
X0157Y00487
X01575Y00335
X01339
X01334Y00487
X01097
X01102Y00335
X00866
X00861Y00487
X00625
X0063Y00335
Y00768
X00866
X01102
X01339
X01575
X01805Y0078
X01811Y0063
X01639Y01019
X01772Y01254
X01489Y01389
X01207Y01262
X01267Y01014
X0062Y01019
X00753Y01254
X0066Y01719
X01319
X01679
X003
X0047Y01389
X00189Y01262
X00248Y01014
X00163Y00779
X00154Y0063
X00394Y00768
T02
X0063Y00919
X009
Y01019
Y01119
Y01219
Y01319
Y01419
Y01519
Y01619
Y01719
Y01819
Y01919
X01069
Y01819
Y01719
Y01619
Y01519
Y01419
Y01319
Y01219
Y01119
Y01019
Y00919
X01349
X01449
X01549
X01649
X01919
Y01019
Y01119
Y01219
Y01319
Y01419
Y01519
Y01619
Y01719
Y01819
Y01919
X01539Y01099
X01439
X0052
X0042
X0043Y00919
X0053
X0033
X0005
Y01019
Y01119
Y01219
Y01319
Y01419
Y01519
Y01619
Y01719
Y01819
Y01919
M30
